<svg width="1365" height="448" viewBox="0 0 1365 448" fill="none" xmlns="http://www.w3.org/2000/svg">
<path d="M303.594 339.084C320.668 312.381 328.119 280.651 324.714 249.139C321.309 217.627 307.253 188.221 284.869 165.781C262.485 143.341 233.114 129.212 201.61 125.729C170.107 122.246 138.359 129.618 111.613 146.626C84.868 163.634 64.7274 189.259 54.5212 219.266C44.315 249.273 44.6543 281.865 55.483 311.653C59.5064 322.72 64.8883 333.155 71.4535 342.742" stroke="#10547E" stroke-width="18.1681"/>
<path d="M261.274 95.0192C263.046 98.2566 262.982 100.127 263.011 104.617C263.055 110.39 263.6 127.393 261.426 131.534C261.294 131.784 261.141 131.987 260.999 132.215C257.848 130.859 254.869 129.477 251.855 127.232C206.466 104.898 158.711 106.14 113.665 130.833C113.513 130.464 113.361 130.09 113.204 129.726C110.864 124.384 111.525 106.581 111.437 99.3427C142.97 64.1463 235.397 70.2674 261.274 95.0192Z" fill="#9D2027"/>
<path d="M70.5234 68.4075C75.3127 64.7336 80.6939 62.6186 85.677 59.8385L116.577 42.4203L158.506 18.3713C167.733 12.9826 176.97 6.93919 186.335 2.53264C189.545 1.02568 193.231 -0.465679 196.539 0.137104C205.054 1.69083 223.646 15.3989 232.622 20.8915C258.419 36.673 284.235 52.6831 310.174 67.6228C313.944 69.2805 319.259 71.6396 322.439 75.6045C320.005 78.9821 295.048 90.0505 290.434 91.1885C286.1 94.3167 278.552 98.8428 273.884 98.0633C272.314 95.7509 271.013 92.3161 269.246 90.6897C266.409 88.0811 262.375 87.1509 259.258 85.6647C236.681 74.9134 212.691 68.0177 189.358 67.9813C178.227 67.9657 166.855 70.273 155.817 72.7984C148.224 74.5392 111.777 84.5007 107.811 93.0955L107.65 95.7145C107.698 99.1234 107.727 99.9184 106.631 102.527C102.159 104.689 94.4378 97.0812 90.0858 94.1608C85.3388 91.547 80.5844 88.9904 75.8221 86.4805L75.6229 82.1259C74.2398 82.0532 73.4417 79.5122 72.4847 77.6934C72.8871 74.3937 73.6155 76.5658 74.467 74.2118L73.0167 73.7701L73.1988 72.7257L75.9615 71.9981L75.936 70.6575C74.0322 68.5633 72.7546 70.9225 70.5234 68.4075Z" fill="#9D2027"/>
<path d="M70.5345 68.375C72.7657 70.8901 74.0432 68.5309 75.9471 70.625L75.9726 71.9657L73.2099 72.6932L73.0278 73.7377L74.4781 74.1793C73.6266 76.5333 72.8982 74.3613 72.4957 77.661C73.4528 79.4797 74.2508 82.0207 75.6339 82.0935L75.8332 86.4481C73.657 85.045 71.5299 83.5745 69.4184 81.8492C66.5276 98.6856 69.8596 115.595 68.2164 132.644C70.6646 134.936 72.4923 138.329 74.4958 141.759C72.7465 144.902 68.9576 149.553 68.909 154.656C68.8717 158.611 72.2616 169.746 73.0028 174.74C70.2734 180.83 67.2623 182.582 63.1248 183.205C62.2026 183.34 61.2794 183.455 60.3557 183.538C57.9591 182.104 54.1373 179.848 52.6634 175.753C50.3684 169.377 56.9633 160.866 56.6566 153.341C56.5299 150.239 55.8084 149.896 54.6183 148.275C53.2254 146.383 52.4253 145.682 52.1328 142.377C52.923 137.908 54.6094 136.443 56.2148 133.231C58.9682 127.723 58.1456 117.689 58.0745 110.804C58.2438 101.965 56.6929 86.1155 59.032 78.7314C61.2156 71.841 66.7759 70.3496 70.5345 68.375Z" fill="#9D2027"/>
<path d="M77.388 353.911L85.1553 348.345L88.5143 353.033L87.6799 353.631L84.9949 349.884L82.3704 351.764L84.8815 355.269L84.0471 355.867L81.536 352.362L78.8963 354.254L81.6248 358.061L80.7904 358.659L77.388 353.911Z" fill="#10547E"/>
<path d="M89.465 355.913L90.2533 355.256L94.8433 360.76L94.055 361.417L92.1305 359.11L85.5803 364.572L84.8392 363.684L91.3894 358.221L89.465 355.913Z" fill="#10547E"/>
<path d="M90.1404 369.795L89.2943 368.926L98.5887 364.775L99.4218 365.631L95.0223 374.81L94.1761 373.941L97.9481 366.284L97.896 366.23L90.1404 369.795ZM93.1275 367.512L96.5383 371.016L95.8028 371.732L92.392 368.228L93.1275 367.512Z" fill="#10547E"/>
<path d="M97.4925 377.132L103.799 369.953L106.309 372.158C106.809 372.597 107.145 373.046 107.318 373.504C107.493 373.96 107.533 374.403 107.437 374.832C107.344 375.259 107.143 375.648 106.835 375.999C106.564 376.307 106.285 376.513 105.999 376.618C105.715 376.725 105.433 376.758 105.152 376.719C104.875 376.682 104.608 376.601 104.353 376.476L104.292 376.547C104.499 376.754 104.652 377.025 104.751 377.36C104.85 377.695 104.859 378.059 104.779 378.452C104.698 378.846 104.492 379.231 104.159 379.61C103.843 379.97 103.477 380.222 103.061 380.365C102.645 380.509 102.186 380.51 101.686 380.368C101.185 380.227 100.652 379.907 100.086 379.411L97.4925 377.132ZM99.0392 377.124L100.764 378.639C101.332 379.138 101.831 379.383 102.263 379.372C102.698 379.362 103.055 379.199 103.332 378.883C103.545 378.64 103.681 378.361 103.737 378.047C103.796 377.73 103.766 377.409 103.645 377.084C103.527 376.757 103.312 376.456 102.998 376.181L101.232 374.629L99.0392 377.124ZM101.897 373.871L103.509 375.288C103.771 375.518 104.052 375.674 104.353 375.756C104.656 375.84 104.951 375.843 105.24 375.765C105.53 375.688 105.786 375.524 106.008 375.272C106.285 374.956 106.41 374.592 106.383 374.18C106.359 373.765 106.108 373.348 105.631 372.929L103.991 371.488L101.897 373.871Z" fill="#10547E"/>
<path d="M105.452 383.911L111.224 376.296L112.146 376.995L106.994 383.791L110.534 386.475L109.914 387.293L105.452 383.911Z" fill="#10547E"/>
<path d="M119.165 382.056L113.809 389.969L112.851 389.32L118.207 381.407L119.165 382.056Z" fill="#10547E"/>
<path d="M125.531 388.827C125.725 388.392 125.718 387.961 125.51 387.532C125.302 387.104 124.95 386.741 124.453 386.445C124.09 386.228 123.737 386.097 123.394 386.052C123.054 386.009 122.747 386.044 122.472 386.159C122.2 386.276 121.985 386.465 121.829 386.727C121.699 386.946 121.638 387.165 121.648 387.385C121.663 387.603 121.722 387.814 121.825 388.017C121.93 388.218 122.054 388.405 122.195 388.58C122.339 388.753 122.475 388.905 122.603 389.036L123.303 389.757C123.483 389.941 123.674 390.16 123.877 390.415C124.083 390.672 124.254 390.957 124.393 391.272C124.535 391.585 124.607 391.921 124.607 392.279C124.606 392.638 124.491 393.009 124.262 393.394C123.997 393.838 123.642 394.169 123.196 394.388C122.753 394.609 122.247 394.693 121.677 394.639C121.111 394.587 120.512 394.373 119.882 393.997C119.294 393.646 118.842 393.248 118.525 392.802C118.211 392.357 118.032 391.892 117.989 391.406C117.948 390.921 118.045 390.445 118.281 389.977L119.307 390.59C119.149 390.915 119.1 391.234 119.16 391.545C119.225 391.856 119.368 392.144 119.59 392.41C119.815 392.675 120.091 392.905 120.417 393.099C120.796 393.326 121.174 393.468 121.549 393.525C121.926 393.579 122.268 393.548 122.577 393.432C122.887 393.313 123.131 393.103 123.31 392.804C123.472 392.532 123.529 392.265 123.478 392.003C123.428 391.741 123.311 391.483 123.126 391.228C122.941 390.973 122.729 390.719 122.488 390.467L121.651 389.576C121.119 389.009 120.769 388.443 120.599 387.878C120.429 387.313 120.509 386.754 120.839 386.201C121.113 385.741 121.476 385.415 121.929 385.221C122.385 385.026 122.881 384.96 123.417 385.022C123.956 385.083 124.488 385.27 125.011 385.583C125.54 385.898 125.954 386.273 126.252 386.709C126.552 387.141 126.724 387.592 126.77 388.061C126.819 388.532 126.726 388.979 126.493 389.401L125.531 388.827Z" fill="#10547E"/>
<path d="M134.031 393.306C134.193 392.858 134.154 392.428 133.914 392.016C133.675 391.605 133.297 391.269 132.779 391.011C132.401 390.822 132.039 390.717 131.694 390.698C131.352 390.68 131.048 390.738 130.782 390.873C130.519 391.01 130.32 391.214 130.183 391.487C130.069 391.715 130.026 391.938 130.052 392.157C130.083 392.374 130.157 392.58 130.275 392.774C130.395 392.966 130.532 393.144 130.687 393.308C130.842 393.47 130.989 393.611 131.127 393.732L131.878 394.4C132.072 394.569 132.279 394.774 132.5 395.013C132.724 395.254 132.917 395.525 133.078 395.829C133.244 396.13 133.34 396.46 133.366 396.818C133.393 397.175 133.306 397.554 133.106 397.955C132.875 398.417 132.545 398.774 132.117 399.026C131.691 399.279 131.193 399.4 130.621 399.389C130.052 399.379 129.439 399.21 128.782 398.882C128.17 398.576 127.69 398.213 127.34 397.791C126.994 397.371 126.781 396.92 126.702 396.439C126.625 395.959 126.687 395.477 126.887 394.993L127.956 395.527C127.822 395.864 127.797 396.185 127.881 396.491C127.968 396.796 128.133 397.072 128.373 397.321C128.618 397.569 128.91 397.778 129.25 397.947C129.645 398.145 130.032 398.258 130.41 398.287C130.79 398.314 131.129 398.257 131.428 398.118C131.729 397.976 131.957 397.749 132.112 397.438C132.254 397.154 132.29 396.883 132.221 396.626C132.151 396.369 132.015 396.12 131.812 395.879C131.609 395.638 131.378 395.401 131.119 395.168L130.217 394.341C129.645 393.816 129.254 393.277 129.042 392.727C128.831 392.176 128.869 391.612 129.157 391.036C129.396 390.558 129.734 390.205 130.171 389.978C130.611 389.75 131.101 389.647 131.639 389.669C132.182 389.69 132.726 389.837 133.271 390.109C133.822 390.385 134.263 390.728 134.592 391.14C134.923 391.549 135.129 391.985 135.21 392.45C135.294 392.916 135.235 393.368 135.033 393.806L134.031 393.306Z" fill="#10547E"/>
<path d="M135.291 401.768L138.924 392.93L144.258 395.123L143.868 396.073L139.604 394.32L138.376 397.306L142.364 398.945L141.973 399.895L137.986 398.255L136.751 401.259L141.084 403.04L140.693 403.989L135.291 401.768Z" fill="#10547E"/>
<path d="M147.323 396.344L148.641 396.757L149.366 405.297L149.473 405.331L154.945 398.734L156.263 399.148L153.403 408.265L152.37 407.941L154.543 401.014L154.454 400.986L149.432 407.02L148.435 406.707L147.758 398.886L147.669 398.858L145.496 405.785L144.464 405.461L147.323 396.344Z" fill="#10547E"/>
<path d="M157.532 409.279L159.597 399.949L165.227 401.195L165.006 402.197L160.505 401.201L159.807 404.354L164.016 405.285L163.795 406.287L159.585 405.356L158.884 408.527L163.458 409.539L163.236 410.541L157.532 409.279Z" fill="#10547E"/>
<path d="M175.98 402.852L174.66 412.316L173.551 412.162L169.43 404.012L169.337 403.999L168.301 411.429L167.155 411.27L168.475 401.806L169.584 401.96L173.721 410.131L173.813 410.144L174.852 402.695L175.98 402.852Z" fill="#10547E"/>
<path d="M178.764 404.157L178.824 403.132L185.978 403.549L185.918 404.574L182.919 404.399L182.422 412.913L181.267 412.846L181.764 404.331L178.764 404.157Z" fill="#10547E"/>
<path d="M194.145 403.52L197.445 411.385L197.557 411.379L199.921 403.184L201.132 403.113L198.185 412.857L196.993 412.926L192.934 403.591L194.145 403.52Z" fill="#10547E"/>
<path d="M205.054 402.649L206.175 412.139L205.026 412.274L203.905 402.785L205.054 402.649Z" fill="#10547E"/>
<path d="M216.828 403.742L215.69 403.948C215.563 403.633 215.393 403.366 215.18 403.149C214.969 402.931 214.73 402.76 214.46 402.635C214.194 402.506 213.909 402.425 213.605 402.391C213.302 402.358 212.994 402.369 212.682 402.426C212.113 402.529 211.623 402.766 211.213 403.138C210.806 403.509 210.517 403.999 210.347 404.608C210.179 405.217 210.169 405.929 210.316 406.743C210.464 407.557 210.723 408.22 211.094 408.731C211.468 409.242 211.91 409.599 212.422 409.804C212.936 410.008 213.478 410.058 214.047 409.955C214.359 409.898 214.651 409.801 214.924 409.663C215.196 409.525 215.434 409.351 215.64 409.14C215.847 408.925 216.011 408.679 216.132 408.401C216.254 408.12 216.32 407.811 216.329 407.474L217.467 407.268C217.469 407.764 217.39 408.222 217.233 408.643C217.075 409.063 216.852 409.437 216.564 409.764C216.275 410.089 215.933 410.358 215.539 410.571C215.147 410.785 214.715 410.934 214.24 411.02C213.438 411.165 212.69 411.099 211.994 410.82C211.299 410.542 210.707 410.074 210.218 409.416C209.729 408.759 209.394 407.934 209.214 406.943C209.035 405.951 209.058 405.062 209.286 404.274C209.513 403.487 209.903 402.841 210.456 402.336C211.01 401.831 211.687 401.506 212.489 401.361C212.964 401.275 213.421 401.263 213.863 401.325C214.307 401.387 214.721 401.52 215.106 401.726C215.491 401.928 215.831 402.198 216.126 402.537C216.421 402.872 216.655 403.274 216.828 403.742Z" fill="#10547E"/>
<path d="M218.92 401.262L218.658 400.269L225.587 398.437L225.849 399.43L222.944 400.198L225.125 408.443L224.006 408.739L221.825 400.494L218.92 401.262Z" fill="#10547E"/>
<path d="M237.413 399.456C237.748 400.406 237.866 401.288 237.767 402.101C237.667 402.915 237.385 403.614 236.919 404.201C236.452 404.787 235.835 405.216 235.067 405.487C234.298 405.758 233.548 405.811 232.817 405.646C232.087 405.482 231.428 405.114 230.84 404.543C230.253 403.971 229.792 403.21 229.457 402.26C229.122 401.309 229.004 400.427 229.103 399.614C229.202 398.801 229.485 398.101 229.951 397.514C230.417 396.928 231.035 396.499 231.803 396.228C232.572 395.957 233.322 395.904 234.052 396.069C234.783 396.233 235.442 396.601 236.029 397.173C236.617 397.744 237.078 398.505 237.413 399.456ZM236.357 399.828C236.082 399.047 235.719 398.435 235.269 397.99C234.821 397.544 234.328 397.261 233.787 397.142C233.25 397.021 232.709 397.057 232.163 397.249C231.617 397.442 231.172 397.754 230.826 398.186C230.483 398.616 230.276 399.146 230.204 399.775C230.135 400.403 230.238 401.107 230.513 401.887C230.788 402.668 231.149 403.281 231.597 403.727C232.047 404.172 232.541 404.454 233.078 404.575C233.618 404.695 234.161 404.658 234.707 404.466C235.252 404.274 235.697 403.962 236.039 403.531C236.385 403.099 236.593 402.569 236.662 401.942C236.733 401.313 236.632 400.608 236.357 399.828Z" fill="#10547E"/>
<path d="M242.388 402.583L238.498 393.855L241.447 392.541C242.129 392.237 242.741 392.104 243.282 392.142C243.822 392.177 244.287 392.349 244.677 392.659C245.067 392.969 245.377 393.381 245.606 393.895C245.835 394.409 245.933 394.912 245.9 395.404C245.867 395.895 245.684 396.351 245.351 396.773C245.016 397.191 244.511 397.55 243.834 397.852L241.448 398.915L241.022 397.961L243.375 396.912C243.841 396.705 244.185 396.469 244.409 396.206C244.635 395.942 244.756 395.656 244.773 395.349C244.791 395.038 244.722 394.708 244.566 394.359C244.41 394.009 244.209 393.733 243.962 393.53C243.715 393.327 243.416 393.218 243.066 393.204C242.714 393.187 242.303 393.283 241.831 393.493L239.973 394.321L243.444 402.112L242.388 402.583ZM244.749 396.831L248.644 399.795L247.416 400.342L243.555 397.363L244.749 396.831Z" fill="#10547E"/>
<path d="M246.33 390.309L247.496 389.68L251.947 392.346L252.045 392.293L252.259 387.109L253.425 386.48L253.055 393.063L254.925 396.529L253.907 397.078L252.036 393.613L246.33 390.309Z" fill="#10547E"/>
<path d="M265.288 390.28L259.813 382.449L262.459 380.599C263.073 380.169 263.653 379.929 264.198 379.878C264.744 379.823 265.242 379.917 265.693 380.159C266.143 380.402 266.53 380.754 266.853 381.216C267.175 381.677 267.374 382.162 267.449 382.672C267.527 383.179 267.449 383.681 267.216 384.178C266.981 384.673 266.559 385.133 265.95 385.559L264.053 386.885L263.465 386.044L265.331 384.739C265.752 384.445 266.039 384.136 266.192 383.813C266.345 383.489 266.393 383.164 266.335 382.836C266.277 382.504 266.139 382.182 265.92 381.868C265.7 381.555 265.446 381.315 265.156 381.15C264.868 380.983 264.546 380.919 264.191 380.959C263.834 380.996 263.442 381.164 263.016 381.461L261.349 382.627L266.237 389.617L265.288 390.28Z" fill="#10547E"/>
<path d="M273.517 384.377L267.473 376.975L269.974 374.933C270.552 374.461 271.108 374.172 271.64 374.067C272.17 373.959 272.665 374.004 273.122 374.2C273.58 374.397 273.987 374.713 274.343 375.149C274.699 375.585 274.925 376.045 275.023 376.528C275.12 377.011 275.063 377.499 274.851 377.993C274.638 378.484 274.245 378.964 273.671 379.432L271.647 381.084L270.986 380.275L272.981 378.646C273.377 378.323 273.647 378.006 273.794 377.693C273.943 377.379 273.985 377.072 273.92 376.771C273.856 376.466 273.703 376.166 273.461 375.869C273.219 375.573 272.952 375.359 272.66 375.228C272.368 375.097 272.052 375.07 271.71 375.148C271.366 375.224 270.994 375.425 270.594 375.752L269.019 377.039L274.413 383.645L273.517 384.377ZM274.286 378.207L278.822 380.045L277.781 380.895L273.274 379.034L274.286 378.207Z" fill="#10547E"/>
<path d="M275.619 370.015L282.075 377.06L281.222 377.842L274.766 370.797L275.619 370.015Z" fill="#10547E"/>
<path d="M278.606 367.23L286.357 370.79L286.435 370.709L282.632 363.075L283.476 362.204L287.897 371.373L287.066 372.231L277.762 368.101L278.606 367.23Z" fill="#10547E"/>
<path d="M292.585 366.292L285.239 360.181L288.928 355.747L289.717 356.404L286.769 359.948L289.251 362.013L292.008 358.698L292.797 359.355L290.04 362.669L292.536 364.746L295.532 361.145L296.321 361.801L292.585 366.292ZM286.009 357.738L285.073 355.478L285.897 354.488L286.63 356.992L286.009 357.738Z" fill="#10547E"/>
<path d="M298.757 358.647L290.989 353.081L294.348 348.394L295.183 348.991L292.498 352.739L295.122 354.619L297.633 351.115L298.468 351.713L295.957 355.217L298.596 357.108L301.325 353.301L302.159 353.899L298.757 358.647Z" fill="#10547E"/>
<path d="M162.623 208.907L197.977 304.903L234.75 215.402C235.923 212.545 234.199 209.326 231.171 208.721L223.511 207.189L221.946 205.624C219.892 203.57 220.061 200.191 222.309 198.352L223.511 197.368H271.956C274.811 197.368 276.929 200.015 276.302 202.8C275.699 205.481 273.608 207.577 270.928 208.186L263.853 209.794C260.864 210.473 258.364 212.508 257.093 215.296L199.451 341.731L195.031 354.006C190.967 359.341 183.039 359.623 178.606 354.591L178.091 354.006L127.21 219.162C124.805 212.788 119.27 208.116 112.583 206.815L109.637 206.243C107.33 205.794 105.664 203.773 105.664 201.423V201.051C105.664 198.339 107.862 196.141 110.574 196.141H172.377C174.598 196.141 176.552 197.609 177.169 199.743C178.065 202.836 176.145 206.039 172.995 206.707L162.623 208.907Z" fill="#9D2027"/>
<path d="M483.599 217.575V231.653H448.311V242.532H480.582V255.971H448.311V268.953H484.421V283.031H431.215V217.575H483.599ZM522.13 235.584V245.823H510.885V265.387C510.885 269.775 512.866 271.969 516.828 271.969C519.144 271.969 520.972 271.512 522.313 270.598L525.055 281.751C522.069 283.031 517.711 283.671 511.982 283.671C504.913 283.671 500.189 282.148 497.812 279.1C496.776 277.759 496.106 276.297 495.801 274.712C495.496 273.127 495.344 270.507 495.344 266.85V245.823H487.39V235.584H495.344V225.528L510.885 217.392V235.584H522.13ZM568.569 248.932H554.216C553.972 247.103 553.241 245.823 552.022 245.092C550.864 244.3 548.944 243.904 546.263 243.904C542.118 243.904 540.046 245.184 540.046 247.743C540.046 249.084 540.686 250.059 541.966 250.669C543.307 251.278 546.354 252.04 551.108 252.954C557.995 254.295 562.81 256.093 565.552 258.348C568.356 260.542 569.757 263.742 569.757 267.947C569.757 273.432 567.472 277.637 562.901 280.563C558.878 283.062 553.546 284.311 546.902 284.311C538.492 284.311 532.275 282.33 528.253 278.369C526.303 276.419 525.023 274.895 524.413 273.798C523.865 272.64 523.499 270.781 523.316 268.221H538.583C538.827 270.415 539.558 271.969 540.777 272.884C542.057 273.737 544.16 274.164 547.085 274.164C551.961 274.164 554.399 272.548 554.399 269.318C554.399 267.917 553.82 266.911 552.662 266.301C551.504 265.631 548.761 264.808 544.434 263.833C537.669 262.37 533.068 260.969 530.63 259.628C526.729 257.434 524.779 253.899 524.779 249.023C524.779 244.269 526.668 240.643 530.447 238.144C534.226 235.584 539.589 234.305 546.537 234.305C555.13 234.305 561.255 236.346 564.912 240.43C567.106 242.807 568.325 245.641 568.569 248.932ZM932.238 217.575H959.206C967.861 217.575 974.108 218.885 977.947 221.506C983.92 225.528 986.907 231.623 986.907 239.79C986.907 246.433 984.652 251.796 980.142 255.88C976.241 259.415 970.482 261.182 962.863 261.182H949.333V283.031H932.238V217.575ZM949.333 231.653V247.743H960.578C967.038 247.743 970.268 245.062 970.268 239.698C970.268 234.457 966.825 231.806 959.938 231.745L949.333 231.653ZM1028.63 235.31L1028.54 248.109C1026.29 247.439 1024.15 247.103 1022.14 247.103C1014.22 247.103 1010.26 252.192 1010.26 262.37V283.031H994.717V235.584H1009.71V243.721C1011.54 237.443 1016.63 234.305 1024.98 234.305C1025.95 234.305 1027.17 234.64 1028.63 235.31ZM1050.43 235.584V283.031H1034.89V235.584H1050.43ZM1042.66 215.838C1044.61 215.838 1046.29 216.539 1047.69 217.94C1049.09 219.281 1049.79 220.957 1049.79 222.969C1049.79 224.919 1049.09 226.595 1047.69 227.997C1046.29 229.398 1044.61 230.099 1042.66 230.099C1040.65 230.099 1038.94 229.398 1037.54 227.997C1036.2 226.595 1035.53 224.919 1035.53 222.969C1035.53 220.957 1036.2 219.281 1037.54 217.94C1038.94 216.539 1040.65 215.838 1042.66 215.838ZM1104.93 235.584L1089.2 283.031H1071.1L1055.01 235.584H1071.47L1076.31 252.04C1078.14 258.013 1079.45 263.711 1080.25 269.135C1080.92 264.808 1082.2 259.354 1084.08 252.771L1089.2 235.584H1104.93ZM1156.51 268.496C1155.78 271.299 1154.38 273.889 1152.31 276.266C1147.62 281.629 1141.13 284.311 1132.84 284.311C1125.34 284.311 1119.28 282.239 1114.64 278.095C1109.46 273.463 1106.87 267.338 1106.87 259.719C1106.87 251.735 1109.56 245.336 1114.92 240.521C1119.55 236.377 1125.31 234.305 1132.2 234.305C1140.55 234.305 1146.98 237.047 1151.49 242.532C1155.45 247.347 1157.43 253.655 1157.43 261.456C1157.43 262.005 1157.43 262.492 1157.43 262.919H1122.14C1122.26 266.332 1123.27 269.014 1125.16 270.964C1127.05 272.853 1129.61 273.798 1132.84 273.798C1136.8 273.798 1139.81 272.03 1141.89 268.496H1156.51ZM1142.16 254.051C1141.37 247.896 1138.11 244.818 1132.38 244.818C1126.59 244.818 1123.24 247.896 1122.32 254.051H1142.16ZM1149.84 215.838L1135.4 229.002H1125.52L1133.57 215.838H1149.84ZM1212.31 268.496C1211.58 271.299 1210.18 273.889 1208.11 276.266C1203.41 281.629 1196.92 284.311 1188.63 284.311C1181.14 284.311 1175.07 282.239 1170.44 278.095C1165.26 273.463 1162.67 267.338 1162.67 259.719C1162.67 251.735 1165.35 245.336 1170.72 240.521C1175.35 236.377 1181.11 234.305 1187.99 234.305C1196.34 234.305 1202.77 237.047 1207.28 242.532C1211.25 247.347 1213.23 253.655 1213.23 261.456C1213.23 262.005 1213.23 262.492 1213.23 262.919H1177.94C1178.06 266.332 1179.07 269.014 1180.96 270.964C1182.84 272.853 1185.4 273.798 1188.63 273.798C1192.6 273.798 1195.61 272.03 1197.69 268.496H1212.31ZM1197.96 254.051C1197.17 247.896 1193.91 244.818 1188.18 244.818C1182.39 244.818 1179.04 247.896 1178.12 254.051H1197.96Z" fill="#10547E"/>
<path d="M650.437 217.575L629.136 283.031H609.481L588.728 217.575H606.647L612.589 236.59C615.941 247.256 618.257 257.129 619.537 266.21C620.939 257.068 623.285 247.225 626.576 236.681L632.518 217.575H650.437ZM671.005 235.584V283.031H655.464V235.584H671.005ZM663.235 215.838C665.185 215.838 666.861 216.539 668.263 217.94C669.665 219.281 670.365 220.957 670.365 222.969C670.365 224.919 669.665 226.595 668.263 227.997C666.861 229.398 665.185 230.099 663.235 230.099C661.223 230.099 659.517 229.398 658.115 227.997C656.774 226.595 656.104 224.919 656.104 222.969C656.104 220.957 656.774 219.281 658.115 217.94C659.517 216.539 661.223 215.838 663.235 215.838ZM727.787 264.382C726.873 271.147 724.069 276.266 719.376 279.74C715.293 282.787 710.173 284.311 704.018 284.311C695.973 284.311 689.634 281.751 685.003 276.632C680.98 272.183 678.969 266.545 678.969 259.719C678.969 251.491 681.559 245.062 686.74 240.43C691.311 236.346 697.1 234.305 704.109 234.305C711.24 234.305 716.938 236.194 721.205 239.973C724.983 243.325 727.056 247.591 727.421 252.771H712.337C711.545 248.018 708.894 245.641 704.384 245.641C697.984 245.641 694.784 250.303 694.784 259.628C694.784 268.343 697.893 272.701 704.109 272.701C709.046 272.701 711.941 269.928 712.794 264.382H727.787ZM764.071 235.584V245.823H752.826V265.387C752.826 269.775 754.807 271.969 758.768 271.969C761.084 271.969 762.913 271.512 764.253 270.598L766.996 281.751C764.01 283.031 759.652 283.671 753.923 283.671C746.853 283.671 742.13 282.148 739.753 279.1C738.717 277.759 738.046 276.297 737.742 274.712C737.437 273.127 737.285 270.507 737.285 266.85V245.823H729.331V235.584H737.285V225.528L752.826 217.392V235.584H764.071ZM792.226 284.311C784.242 284.311 777.903 281.69 773.21 276.449C769.127 271.878 767.085 266.149 767.085 259.262C767.085 251.339 769.706 245.031 774.947 240.338C779.518 236.316 785.247 234.305 792.134 234.305C800.179 234.305 806.548 236.895 811.241 242.075C815.263 246.524 817.275 252.223 817.275 259.171C817.275 267.155 814.654 273.493 809.413 278.186C804.842 282.269 799.113 284.311 792.226 284.311ZM792.043 245.641C789.117 245.641 786.862 246.829 785.278 249.206C783.693 251.583 782.901 254.935 782.901 259.262C782.901 268.404 786.009 272.975 792.226 272.975C798.442 272.975 801.55 268.374 801.55 259.171C801.55 250.151 798.381 245.641 792.043 245.641ZM859.275 235.31L859.183 248.109C856.928 247.439 854.795 247.103 852.784 247.103C844.861 247.103 840.899 252.192 840.899 262.37V283.031H825.358V235.584H840.351V243.721C842.179 237.443 847.268 234.305 855.618 234.305C856.593 234.305 857.812 234.64 859.275 235.31ZM910.054 235.584L892.867 283.488C890.49 290.071 887.931 294.398 885.188 296.47C882.445 298.542 877.935 299.578 871.658 299.578C868.306 299.578 864.497 299.213 860.23 298.481L862.699 286.14C864.04 286.627 865.777 286.871 867.91 286.871C871.262 286.871 873.395 286.17 874.309 284.768C875.284 283.366 875.772 281.812 875.772 280.106C875.772 279.74 875.68 279.344 875.497 278.917L859.316 235.584H875.863L882.445 256.611C883.238 259.232 884.091 262.919 885.005 267.673C886.224 262.249 887.199 258.378 887.931 256.062L894.147 235.584H910.054Z" fill="#AB0303"/>
<circle cx="582.477" cy="277.071" r="5.08685" fill="#10547E"/>
<path d="M818.282 139.424C817.467 140.468 816.689 140.736 815.95 140.226C815.212 139.717 814.574 139.462 814.039 139.462C813.53 139.462 812.625 139.551 811.326 139.729C810.052 139.908 809.173 140.162 808.688 140.494C808.204 140.825 807.937 141.194 807.886 141.602C807.86 142.01 807.949 142.303 808.153 142.481C808.357 142.634 808.969 142.749 809.988 142.825C811.033 142.902 812.052 143.271 813.046 143.934C814.039 144.571 814.791 145.361 815.301 146.303C815.81 147.246 816.167 148.329 816.371 149.552C816.575 150.775 816.677 151.909 816.677 152.954C816.677 153.973 816.103 155.744 814.957 158.267C813.836 160.764 812.612 162.904 811.287 164.688C809.988 166.497 808.586 168.357 807.083 170.268C805.58 172.18 803.783 173.989 801.694 175.696C799.63 177.429 797.438 179.034 795.12 180.512C792.775 181.99 790.508 183.136 788.316 183.952C786.125 184.793 784.507 185.366 783.462 185.672C782.392 186.003 780.825 186.385 778.761 186.818C776.697 187.252 773.792 187.659 770.046 188.041C766.301 188.424 762.389 188.513 758.312 188.309C754.235 188.131 751.203 187.889 749.215 187.583C747.202 187.303 745.189 186.997 743.176 186.666C741.163 186.36 739.15 185.837 737.137 185.098C735.124 184.359 733.303 183.57 731.672 182.729C730.041 181.888 728.69 181.085 727.62 180.321C726.55 179.582 725.352 178.715 724.027 177.722C722.677 176.753 721.123 175.212 719.364 173.097C717.606 170.982 716.6 169.695 716.345 169.236C716.09 168.803 715.835 168.064 715.58 167.02C715.3 166 715.402 165.045 715.886 164.153C716.345 163.287 717.007 163.197 717.874 163.885C718.74 164.599 719.326 165.274 719.632 165.911C719.938 166.574 720.766 167.835 722.116 169.695C723.441 171.555 725.62 173.479 728.652 175.467C731.684 177.454 734.602 178.996 737.405 180.091C740.182 181.213 743.393 182.015 747.037 182.499C750.681 183.009 753.56 183.34 755.675 183.493C757.764 183.671 760.3 183.748 763.281 183.722C766.237 183.697 769.409 183.506 772.798 183.149C776.187 182.792 779.411 182.168 782.468 181.276C785.501 180.384 788.061 179.34 790.151 178.142C792.24 176.97 794.292 175.607 796.305 174.052C798.292 172.523 799.783 171.237 800.776 170.192C801.796 169.173 803.108 167.733 804.713 165.873C806.319 164.038 807.516 162.446 808.306 161.095C809.096 159.77 809.733 158.598 810.217 157.579C810.727 156.534 811.109 155.54 811.364 154.598C811.619 153.629 811.58 152.661 811.249 151.693C810.918 150.724 810.268 150.011 809.3 149.552C808.357 149.068 807.198 148.813 805.822 148.788C804.471 148.737 803.541 148.584 803.032 148.329C802.522 148.074 802.14 147.667 801.885 147.106C801.656 146.52 801.541 145.781 801.541 144.889C801.541 143.972 801.872 142.711 802.535 141.105C803.223 139.475 803.758 138.392 804.14 137.856C804.548 137.296 804.943 136.837 805.325 136.48C805.707 136.098 806.204 135.627 806.815 135.066C807.453 134.506 808.09 134.009 808.727 133.576C809.364 133.142 810.154 132.811 811.096 132.582C812.039 132.353 813.135 132.161 814.383 132.009C815.657 131.83 816.83 131.996 817.9 132.505C818.995 132.99 819.543 133.792 819.543 134.913C819.543 136.009 819.543 136.774 819.543 137.207C819.543 137.64 819.123 138.379 818.282 139.424ZM774.098 189.914C774.429 189.914 774.913 189.914 775.55 189.914C776.162 189.914 776.799 190.258 777.461 190.946C778.098 191.66 778.404 192.233 778.379 192.666C778.328 193.125 778.277 193.596 778.226 194.081C778.175 194.565 777.856 195.049 777.27 195.533C776.684 196.017 776.085 196.259 775.474 196.259C774.862 196.285 774.263 196.297 773.677 196.297C773.091 196.297 772.441 195.966 771.728 195.304C770.989 194.667 770.645 194.182 770.696 193.851C770.722 193.52 770.76 193.15 770.811 192.743C770.836 192.335 771.308 191.762 772.225 191.023C773.117 190.309 773.741 189.94 774.098 189.914ZM784.8 189.532C785.055 189.456 785.475 189.417 786.061 189.417C786.647 189.417 787.399 189.672 788.316 190.182C789.208 190.717 789.628 191.29 789.578 191.902C789.527 192.513 789.488 193.036 789.463 193.469C789.412 193.902 789.119 194.386 788.584 194.921C788.049 195.482 787.437 195.762 786.749 195.762C786.061 195.762 785.437 195.762 784.876 195.762C784.29 195.762 783.64 195.444 782.927 194.807C782.188 194.195 781.844 193.711 781.895 193.354C781.92 193.023 781.971 192.501 782.048 191.787C782.099 191.074 782.507 190.539 783.271 190.182C784.035 189.825 784.545 189.609 784.8 189.532ZM838.845 159.872C838.769 160.611 838.629 161.72 838.425 163.197C838.246 164.675 837.826 166.102 837.163 167.478C836.526 168.854 835.915 170.065 835.329 171.109C834.768 172.18 834.131 173.237 833.418 174.282C832.704 175.352 831.965 176.409 831.201 177.454C830.462 178.524 829.341 179.824 827.837 181.353C826.334 182.907 824.933 184.054 823.633 184.793C822.333 185.532 821.238 186.13 820.346 186.589C819.429 187.073 817.912 187.672 815.798 188.385C813.683 189.099 812.561 189.507 812.434 189.609C812.281 189.736 810.994 189.953 808.574 190.258C806.127 190.59 804.063 190.73 802.382 190.679C800.7 190.653 799.413 190.59 798.521 190.488C797.63 190.411 796.19 190.131 794.202 189.647C792.189 189.163 789.934 188.487 787.437 187.621C784.94 186.755 783.36 185.799 782.698 184.754C782.01 183.735 781.704 182.92 781.78 182.308C781.831 181.722 782.137 181.34 782.698 181.162C783.233 180.983 783.832 180.92 784.494 180.97C785.157 181.047 786.189 181.467 787.59 182.232C788.991 183.022 790.176 183.557 791.145 183.837C792.087 184.143 793.183 184.385 794.432 184.563C795.68 184.767 797.273 184.971 799.209 185.175C801.12 185.404 802.917 185.455 804.599 185.328C806.255 185.226 807.809 185.06 809.262 184.831C810.689 184.627 812.294 184.13 814.078 183.34C815.861 182.576 817.25 181.939 818.244 181.429C819.237 180.945 820.473 180.13 821.951 178.983C823.404 177.862 824.627 176.792 825.621 175.772C826.64 174.779 827.544 173.785 828.334 172.791C829.124 171.797 829.748 170.918 830.207 170.154C830.666 169.389 831.023 168.689 831.277 168.052C831.558 167.44 831.863 166.625 832.195 165.605C832.526 164.586 832.781 163.733 832.959 163.045C833.163 162.357 833.29 161.452 833.341 160.331C833.392 159.235 833.125 158.216 832.539 157.273C831.978 156.33 831.532 155.298 831.201 154.177C830.895 153.056 830.793 152.062 830.895 151.196C830.997 150.329 831.188 149.641 831.468 149.132C831.749 148.622 831.965 147.985 832.118 147.221C832.271 146.456 832.577 145.756 833.036 145.119C833.494 144.482 833.978 144.099 834.488 143.972C835.023 143.845 835.456 143.921 835.787 144.201C836.119 144.482 836.246 144.966 836.17 145.654C836.119 146.342 836.233 147.106 836.514 147.947C836.819 148.762 837.214 149.412 837.699 149.896C838.183 150.355 838.514 151.96 838.692 154.712C838.871 157.439 838.922 159.159 838.845 159.872ZM857.192 144.966C856.504 145.552 856.096 146.087 855.969 146.571C855.867 147.055 855.816 147.577 855.816 148.138C855.841 148.699 855.994 149.157 856.274 149.514C856.555 149.871 857.179 150.266 858.147 150.699C859.115 151.132 860.224 151.387 861.472 151.463C861.549 150.419 861.574 149.336 861.549 148.215C861.549 147.093 861.371 146.24 861.014 145.654C860.683 145.068 860.135 144.66 859.37 144.431C858.606 144.201 857.88 144.38 857.192 144.966ZM858.415 137.13C860.784 136.723 863.167 137.411 865.562 139.194C867.983 140.952 869.04 145.042 868.735 151.463C869.219 151.463 869.843 151.438 870.607 151.387V159.031C869.461 159.184 868.454 159.286 867.588 159.337C865.957 165.147 864.046 169.631 861.855 172.791C859.663 175.976 856.733 178.754 853.064 181.123C849.394 183.493 845.827 185.098 842.362 185.939C838.922 186.806 835.609 187.341 832.424 187.545C829.213 187.748 826.194 187.697 823.365 187.392C820.537 187.111 817.275 186.347 813.581 185.098C809.86 183.875 806.714 182.283 804.14 180.321C801.566 178.359 800.076 176.626 799.668 175.123C799.26 173.645 799.222 172.587 799.553 171.95C799.859 171.339 800.254 171.046 800.738 171.071C801.222 171.097 802.165 171.886 803.567 173.441C804.968 175.021 806.471 176.307 808.077 177.301C809.657 178.32 811.631 179.289 814.001 180.206C816.345 181.149 819.097 181.875 822.257 182.385C825.391 182.894 829.328 182.933 834.068 182.499C838.807 182.092 842.846 180.932 846.184 179.021C849.522 177.11 851.981 175.339 853.561 173.708C855.14 172.103 856.414 170.358 857.383 168.472C858.351 166.586 859.498 163.376 860.823 158.84C859.294 158.56 857.982 158.292 856.886 158.037C855.79 157.757 854.644 157.349 853.446 156.814C852.274 156.279 851.216 155.247 850.274 153.718C849.356 152.164 849.012 150.228 849.242 147.909C849.471 145.564 850.465 143.284 852.223 141.067C853.981 138.825 856.045 137.512 858.415 137.13ZM889.68 122.3C891.973 122.402 893.12 123.447 893.12 125.434V125.549C893.018 128.327 891.413 130.136 888.304 130.977C884.584 130.187 882.724 128.798 882.724 126.81V126.199C883.488 124.441 884.431 123.434 885.552 123.179H885.667C886.712 123.179 888.049 122.886 889.68 122.3ZM874.927 124.058C877.092 124.135 878.609 124.823 879.475 126.122L879.972 127.078V128.416C879.411 129.46 878.468 130.212 877.143 130.671L874.621 131.206H874.353C873.105 131.155 871.869 130.403 870.646 128.951L870.76 126.658C872.187 125.052 873.551 124.25 874.85 124.25H874.927V124.058ZM885.705 141.488H886.469C887.514 141.488 888.075 141.87 888.151 142.634C888.253 143.373 888.049 144.392 887.54 145.692C888.381 147.96 889.706 149.514 891.515 150.355C892.865 151.043 894.292 151.387 895.796 151.387V159.031L895.069 158.993C890.126 158.917 886.61 157.477 884.52 154.674C883.858 153.986 883.182 152.788 882.494 151.081H882.342C882.036 151.107 879.997 152.852 876.226 156.318C873.5 158.127 871.232 159.031 869.423 159.031V151.387C871.996 151.285 875.079 149.285 878.672 145.386C881.934 142.762 884.278 141.462 885.705 141.488ZM926.564 104.642C927.226 104.565 928.424 104.833 930.157 105.444C931.915 106.031 933.036 107.063 933.52 108.54C934.004 109.993 934.247 110.974 934.247 111.484C934.247 111.968 934.043 113.012 933.635 114.618C933.227 116.223 932.807 117.026 932.374 117.026C931.966 117.026 931.686 117.026 931.533 117.026C931.38 117.026 931.227 117.013 931.074 116.987C930.921 116.936 930.577 116.299 930.042 115.076C929.533 113.853 928.895 113.038 928.131 112.63C927.392 112.197 926.908 111.98 926.679 111.98C926.475 111.98 926.22 111.98 925.914 111.98C925.608 111.98 924.818 112.171 923.544 112.554C922.296 112.91 921.098 113.471 919.952 114.235C918.83 114.974 916.69 116.911 913.53 120.045C910.396 123.179 908.179 125.536 906.88 127.116C905.606 128.671 904.701 130.174 904.166 131.626C903.656 133.053 903.402 133.907 903.402 134.187C903.402 134.467 903.465 134.735 903.593 134.99C903.746 135.245 904.077 135.55 904.586 135.907C905.096 136.264 906.23 136.659 907.988 137.092C909.772 137.525 911.683 137.793 913.721 137.895C915.76 137.997 918.486 138.073 921.901 138.124C925.315 138.149 928.488 138.124 931.418 138.048C934.348 137.971 936.298 137.869 937.266 137.742C938.234 137.614 939.203 137.729 940.171 138.086C941.165 138.417 942.439 139.322 943.993 140.8C945.573 142.252 946.567 143.258 946.974 143.819C947.407 144.354 947.943 145.361 948.58 146.839C949.217 148.316 949.535 149.348 949.535 149.934C949.535 150.495 951.93 150.903 956.721 151.158V159.146C955.931 159.171 955.179 159.159 954.466 159.108C953.778 159.082 953.153 159.069 952.593 159.069C952.058 159.095 951.599 159.069 951.217 158.993C950.835 158.917 949.93 159.363 948.503 160.331C947.076 161.325 945.458 161.821 943.649 161.821C941.865 161.821 940.477 161.669 939.483 161.363C938.515 161.082 937.992 160.802 937.916 160.522C937.865 160.267 937.801 160.038 937.725 159.834C937.648 159.63 937.432 159.413 937.075 159.184C936.718 158.98 934.578 158.917 930.654 158.993C926.73 159.069 924.36 159.069 923.544 158.993C922.729 158.917 919.417 158.955 913.607 159.108C907.797 159.261 901.618 159.235 895.069 159.031V151.387C899.605 151.31 902.484 151.323 903.707 151.425C904.93 151.502 906.498 151.514 908.409 151.463C910.32 151.387 911.81 151.349 912.881 151.349C913.976 151.349 917.875 151.247 924.576 151.043C931.278 150.814 935.572 150.648 937.457 150.546C939.368 150.419 940.54 150.304 940.974 150.202C941.432 150.1 941.7 149.884 941.776 149.552C941.853 149.221 941.445 148.469 940.553 147.297C939.687 146.1 938.897 145.501 938.183 145.501C937.495 145.501 936.731 145.463 935.89 145.386C935.075 145.31 930.437 145.31 921.977 145.386C913.518 145.463 908.358 145.259 906.498 144.775C904.637 144.265 902.943 143.857 901.414 143.551C899.911 143.246 899.223 141.87 899.35 139.424C899.478 136.952 899.809 134.62 900.344 132.429C900.904 130.212 901.669 128.314 902.637 126.734C903.605 125.154 904.497 123.842 905.313 122.797C906.154 121.727 906.905 120.708 907.568 119.739C908.256 118.771 909.288 117.497 910.664 115.917C912.065 114.337 913.174 113.153 913.989 112.363C914.83 111.547 916.028 110.477 917.582 109.152C919.136 107.801 920.283 106.935 921.022 106.553C921.761 106.145 922.258 105.89 922.512 105.788C922.793 105.687 923.366 105.495 924.232 105.215C925.124 104.909 925.901 104.718 926.564 104.642ZM962.263 164.879C964.837 164.879 966.569 166.128 967.461 168.625V169.542C967.461 171.224 965.474 172.422 961.499 173.135H960.734C959.486 173.135 958.11 172.281 956.606 170.574V168.472C956.606 167.453 957.931 166.357 960.581 165.185L962.263 164.879ZM976.94 164.879H978.01C979.819 164.879 980.992 165.325 981.527 166.217L982.138 168.778C982.138 170.995 980.202 172.447 976.329 173.135C974.698 173.135 973.118 172.383 971.589 170.88L971.13 168.625C972.455 166.128 974.392 164.879 976.94 164.879ZM971.857 141.488H972.621C973.666 141.488 974.226 141.87 974.303 142.634C974.405 143.373 974.201 144.392 973.691 145.692C974.532 147.96 975.857 149.514 977.666 150.355C979.017 151.043 980.444 151.387 981.947 151.387V159.031L981.221 158.993C976.278 158.917 972.761 157.477 970.672 154.674C970.009 153.986 969.334 152.788 968.646 151.081H968.493C968.187 151.107 966.149 152.852 962.378 156.318C959.651 158.127 957.383 159.031 955.574 159.031V151.387C958.148 151.285 961.231 149.285 964.824 145.386C968.085 142.762 970.43 141.462 971.857 141.488ZM985.655 111.56C985.655 111.025 985.655 110.541 985.655 110.108C985.655 109.674 986.062 109.05 986.878 108.235C987.693 107.419 988.419 107.012 989.056 107.012C989.719 107.012 990.381 107.012 991.044 107.012C991.732 107.012 992.356 107.33 992.917 107.967C993.503 108.579 993.796 109.203 993.796 109.84C993.796 110.452 993.796 111.038 993.796 111.598C993.796 112.133 993.414 112.859 992.649 113.777C991.91 114.694 991.184 115.153 990.47 115.153C989.783 115.153 989.247 115.153 988.865 115.153C988.508 115.153 987.884 114.681 986.992 113.739C986.1 112.796 985.655 112.07 985.655 111.56ZM982.1 151.387L984.699 151.349C987.808 151.119 989.986 150.775 991.235 150.317C992.509 149.858 993.554 149.272 994.369 148.559C995.185 147.845 995.86 146.826 996.395 145.501C996.93 144.176 997.287 143.093 997.465 142.252C997.643 141.411 997.669 140.264 997.542 138.812C996.089 139.908 994.484 140.532 992.726 140.685C990.967 140.838 989.184 140.749 987.375 140.417C985.565 140.086 984.228 139.016 983.361 137.207C982.495 135.372 982.164 133.435 982.368 131.397C982.597 129.359 982.979 127.791 983.514 126.696C984.049 125.6 984.775 124.415 985.693 123.141C986.636 121.867 987.871 120.937 989.4 120.351C990.955 119.765 992.433 119.586 993.834 119.816C995.235 120.045 996.344 120.491 997.159 121.154C998 121.791 998.854 122.619 999.72 123.638C1000.61 124.657 1001.31 126.059 1001.82 127.842C1002.33 129.626 1002.77 131.575 1003.12 133.69C1003.48 135.805 1003.56 138.519 1003.35 141.832C1003.17 145.119 1002.6 147.705 1001.63 149.59C1000.66 151.451 999.274 153.132 997.465 154.636C995.681 156.114 994.025 157.069 992.496 157.502C990.967 157.91 989.426 158.254 987.871 158.534C986.343 158.789 984.419 158.968 982.1 159.069V151.387ZM989.591 129.218C989.388 129.575 989.196 129.97 989.018 130.403C988.865 130.836 988.751 131.219 988.674 131.55C988.598 131.881 988.572 132.391 988.598 133.079C988.649 133.741 988.801 134.162 989.056 134.34C989.337 134.518 990.165 134.646 991.541 134.722C992.917 134.773 993.974 134.544 994.713 134.034C995.452 133.499 995.72 132.798 995.516 131.932C995.337 131.04 995.095 130.289 994.79 129.677C994.509 129.065 994.165 128.543 993.758 128.11C993.375 127.677 992.84 127.447 992.152 127.422C991.464 127.396 990.916 127.6 990.509 128.033C990.127 128.441 989.821 128.836 989.591 129.218Z" fill="#10547E"/>
<path d="M482.015 117.094C484.207 117.12 486.143 117.426 487.825 118.012C489.507 118.572 491.532 119.566 493.902 120.993C496.272 122.394 498.68 124.369 501.126 126.917C503.572 129.44 505.241 131.504 506.133 133.109C507.025 134.689 507.662 135.899 508.044 136.74C508.426 137.556 509.038 139.084 509.879 141.327C510.72 143.544 511.229 145.213 511.408 146.334C511.586 147.43 511.675 148.653 511.675 150.003C511.675 151.354 511.471 152.653 511.064 153.902C510.681 155.15 510.095 156.08 509.305 156.692C508.516 157.278 507.751 157.788 507.012 158.221C506.299 158.628 505.114 158.871 503.458 158.947C501.801 159.023 500.591 158.705 499.826 157.991C499.062 157.253 497.622 156.959 495.507 157.112C493.418 157.265 489.328 157.596 483.238 158.106C477.148 158.59 472.957 158.832 470.663 158.832C468.37 158.832 466.523 158.883 465.121 158.985C464.255 161.38 463.414 163.368 462.599 164.948C461.783 166.553 460.802 168.095 459.656 169.573C458.534 171.051 457.502 172.376 456.56 173.548C455.642 174.745 454.547 175.968 453.272 177.217C452.024 178.466 450.788 179.612 449.565 180.657C448.342 181.702 446.291 183.141 443.411 184.976C440.532 186.811 438.073 188.161 436.035 189.027C433.996 189.919 432.263 190.684 430.836 191.321C429.384 191.958 427.881 192.518 426.326 193.002C424.772 193.487 422.823 194.034 420.478 194.646C418.134 195.283 415.739 195.793 413.293 196.175C410.846 196.557 408.923 196.799 407.521 196.901C406.12 197.003 403.877 197.003 400.794 196.901C397.711 196.799 395.685 196.659 394.717 196.481C393.723 196.302 392.411 196.086 390.78 195.831C389.124 195.602 387.2 195.105 385.009 194.34C382.792 193.576 380.97 192.811 379.543 192.047C378.09 191.308 376.396 190.429 374.459 189.41C372.497 188.39 369.962 186.53 366.853 183.829C363.719 181.154 361.26 178.631 359.477 176.261C357.693 173.892 356.126 171.598 354.775 169.382C353.425 167.19 352.609 165.687 352.329 164.871C352.049 164.081 351.896 163.279 351.87 162.463C351.819 161.648 352.151 161.151 352.864 160.973C353.578 160.82 353.947 160.743 353.973 160.743C353.998 160.743 354.215 160.807 354.622 160.935C355.03 161.087 355.705 161.979 356.648 163.61C357.591 165.266 358.253 166.387 358.636 166.974C359.018 167.56 359.68 168.502 360.623 169.802C361.566 171.127 362.394 172.312 363.108 173.357C363.821 174.427 364.369 175.115 364.751 175.421C365.108 175.752 365.86 176.478 367.006 177.599C368.153 178.72 369.886 180.173 372.204 181.956C374.523 183.766 377.199 185.371 380.231 186.772C383.263 188.199 385.709 189.155 387.569 189.639C389.404 190.149 390.78 190.48 391.697 190.633C392.589 190.786 394.322 190.989 396.896 191.244C399.444 191.525 401.355 191.665 402.629 191.665C403.903 191.665 405.279 191.614 406.757 191.512C408.209 191.41 410.069 191.193 412.337 190.862C414.579 190.556 417.179 189.983 420.134 189.142C423.09 188.301 425.422 187.588 427.129 187.002C428.811 186.416 430.798 185.575 433.091 184.479C435.385 183.383 438.557 181.523 442.609 178.899C446.66 176.274 449.896 173.509 452.317 170.605C454.763 167.7 456.101 165.203 456.33 163.113C456.585 161.024 456.458 159.673 455.948 159.062C455.464 158.45 454.559 157.928 453.234 157.495C451.909 157.036 450.686 156.437 449.565 155.698C448.469 154.934 447.807 153.914 447.577 152.64C447.348 151.341 447.374 149.863 447.654 148.207C447.934 146.525 448.597 144.69 449.641 142.703C450.712 140.69 451.986 138.817 453.464 137.084C454.967 135.326 456.916 133.237 459.312 130.816C461.732 128.395 463.936 126.369 465.924 124.739C467.937 123.082 469.746 121.757 471.351 120.764C472.957 119.77 474.587 118.903 476.244 118.164C477.9 117.4 479.824 117.043 482.015 117.094ZM453.12 146.219C452.89 148.054 453.451 148.971 454.801 148.971C456.152 148.971 458.114 148.856 460.687 148.627C463.261 148.372 464.854 148.946 465.465 150.347C479.505 149.939 488.385 149.29 492.106 148.398C495.851 147.506 498.642 147.149 500.476 147.328C502.311 147.506 503.19 147.022 503.114 145.875C503.063 144.729 502.438 142.626 501.241 139.569C500.043 136.485 497.903 133.657 494.819 131.083C491.736 128.484 489.073 126.803 486.831 126.038C484.614 125.274 482.741 124.879 481.213 124.853C479.709 124.802 478.053 125.108 476.244 125.771C474.46 126.433 472.523 127.389 470.434 128.637C468.345 129.86 464.994 132.638 460.382 136.97C455.77 141.276 453.349 144.359 453.12 146.219ZM514.121 104.71C514.58 104.558 515.204 104.723 515.994 105.207C516.81 105.691 517.319 106.099 517.523 106.43C517.752 106.736 517.969 107.055 518.173 107.386C518.402 107.717 518.568 108.163 518.67 108.724C518.772 109.284 518.861 109.603 518.937 109.679C519.039 109.756 519.358 110.507 519.893 111.934C520.428 113.336 520.912 115.362 521.345 118.012C521.804 120.662 522.071 122.534 522.148 123.63C522.25 124.7 522.339 125.618 522.415 126.382C522.517 127.121 522.607 128.038 522.683 129.134C522.785 130.204 522.785 132.205 522.683 135.135C522.607 138.04 522.594 139.913 522.645 140.753C522.721 141.594 522.785 142.422 522.836 143.238C522.912 144.028 523.282 144.945 523.944 145.99C524.607 147.035 525.257 147.914 525.894 148.627C526.531 149.341 527.996 149.99 530.289 150.576C532.608 151.163 534.302 151.456 535.373 151.456L535.411 159.062C534.697 159.062 533.512 159.062 531.856 159.062C530.2 159.062 528.149 158.284 525.703 156.73C523.256 155.15 521.842 154.36 521.46 154.36C521.103 154.36 520.39 154.743 519.32 155.507C518.275 156.246 517.523 156.654 517.064 156.73C516.631 156.781 516.032 156.807 515.268 156.807C514.529 156.807 514.045 156.539 513.816 156.004C513.586 155.469 513.51 154.488 513.586 153.061C513.688 151.634 513.867 150.513 514.121 149.697C514.402 148.882 515.166 147.697 516.415 146.143C517.663 144.563 518.288 143.671 518.288 143.467C518.288 143.263 518.237 142.958 518.135 142.55C518.058 142.142 518.109 141.238 518.288 139.836C518.466 138.409 518.377 135.823 518.02 132.077C517.663 128.331 517.459 126.229 517.408 125.771C517.357 125.312 517.039 124.204 516.453 122.445C515.892 120.662 515.293 119.222 514.656 118.126C514.045 117.031 513.242 116.037 512.248 115.145C511.28 114.228 510.796 113.374 510.796 112.584C510.796 111.794 510.796 111.004 510.796 110.214C510.796 109.399 511.242 108.316 512.134 106.966C513.026 105.59 513.688 104.838 514.121 104.71ZM548.98 113.96C549.973 114.954 550.47 116.139 550.47 117.515C550.47 118.865 549.973 120.037 548.98 121.031C547.986 122.025 546.788 122.522 545.387 122.522C543.934 122.522 542.711 122.025 541.717 121.031C540.724 120.037 540.227 118.865 540.227 117.515C540.227 116.139 540.724 114.954 541.717 113.96C542.711 112.966 543.934 112.469 545.387 112.469C546.788 112.469 547.986 112.966 548.98 113.96ZM566.867 105.704C567.3 105.424 568.014 105.284 569.008 105.284C570.027 105.284 571.161 106.035 572.409 107.539C573.683 109.042 574.575 110.265 575.085 111.208C575.595 112.125 576.053 113.196 576.461 114.419C576.869 115.616 577.072 116.763 577.072 117.859C577.072 118.929 576.869 120.878 576.461 123.707C576.079 126.535 575.786 128.306 575.582 129.019C575.403 129.707 575.11 130.548 574.703 131.542C574.295 132.51 573.9 133.313 573.518 133.95C573.136 134.587 572.078 135.81 570.345 137.619C568.613 139.403 567.084 140.652 565.759 141.365C564.459 142.079 563.402 142.435 562.586 142.435C561.797 142.435 560.077 142.435 557.427 142.435C554.776 142.435 552.967 141.441 551.999 139.454C551.056 137.441 550.483 136.154 550.279 135.594C550.101 135.007 549.795 134.714 549.362 134.714C548.929 134.714 548.419 134.714 547.833 134.714C547.272 134.714 546.495 134.982 545.501 135.517C544.533 136.027 544.049 136.345 544.049 136.473C544.049 136.6 543.934 136.778 543.705 137.008C543.501 137.212 543.221 137.849 542.864 138.919C542.507 139.989 542.329 140.741 542.329 141.174C542.329 141.607 542.507 142.486 542.864 143.811C543.246 145.111 543.743 145.964 544.355 146.372C544.992 146.78 545.794 147.34 546.763 148.054C547.756 148.742 549.629 149.277 552.381 149.659C555.159 150.016 556.611 150.156 556.739 150.08C556.891 150.003 557.108 150.003 557.388 150.08C557.669 150.156 558.013 150.194 558.42 150.194C558.853 150.194 559.809 150.194 561.287 150.194C562.765 150.194 564.204 150.194 565.606 150.194C567.033 150.194 567.785 150.194 567.861 150.194C567.937 150.194 568.281 150.156 568.893 150.08C569.53 150.003 570.524 149.965 571.874 149.965C573.225 149.965 574.04 150.003 574.32 150.08C574.601 150.156 575.2 150.118 576.117 149.965C577.034 149.812 577.786 149.736 578.372 149.736C578.984 149.736 579.659 150.678 580.398 152.564C581.137 154.424 581.506 155.418 581.506 155.545C581.506 155.673 581.315 156.679 580.933 158.565C580.551 160.425 579.952 161.355 579.136 161.355C578.321 161.355 577.557 161.355 576.843 161.355C576.13 161.355 575.454 161.062 574.817 160.476C574.206 159.915 573.046 159.559 571.339 159.406C569.657 159.278 568.18 159.215 566.905 159.215C565.631 159.215 564.74 159.189 564.23 159.138C563.746 159.087 563.083 159.087 562.242 159.138C561.402 159.189 559.223 159.176 555.707 159.1C552.216 159.023 548.444 158.985 544.393 158.985C540.341 158.985 538.277 158.985 538.201 158.985C538.15 158.985 537.284 159.023 535.602 159.1L534.302 158.985L534.417 151.379C535.385 151.43 536.277 151.468 537.093 151.494C537.933 151.519 538.583 151.481 539.042 151.379C539.526 151.252 539.73 150.946 539.653 150.462C539.602 149.978 539.437 149.239 539.157 148.245C538.876 147.251 538.736 146.321 538.736 145.455C538.736 144.588 538.774 144.13 538.851 144.079C538.927 144.002 538.927 143.926 538.851 143.849C538.774 143.773 538.736 143.416 538.736 142.779C538.736 142.142 538.876 141.289 539.157 140.218C539.437 139.123 539.679 138.295 539.883 137.734C540.112 137.148 540.647 135.823 541.488 133.759C542.329 131.695 543.425 130.268 544.775 129.478C546.126 128.663 547.158 128.013 547.871 127.529C548.61 127.019 549.209 126.764 549.668 126.764C550.152 126.764 550.534 126.764 550.814 126.764C551.094 126.764 551.54 126.764 552.152 126.764C552.763 126.764 553.426 127.631 554.139 129.363C554.878 131.071 555.643 132.396 556.433 133.338C557.248 134.256 558.522 134.714 560.255 134.714C562.013 134.714 563.491 134.714 564.689 134.714C565.912 134.714 567.046 134.218 568.09 133.224C569.135 132.205 570.218 131.058 571.339 129.784C572.486 128.51 573.136 127.478 573.288 126.688C573.467 125.898 573.543 125.108 573.518 124.318C573.492 123.503 573.187 121.923 572.601 119.579C572.04 117.234 571.339 115.807 570.498 115.298C569.657 114.763 569.02 114.291 568.587 113.884C568.154 113.45 567.479 113.234 566.561 113.234C565.67 113.234 565.147 113.017 564.994 112.584C564.842 112.151 564.765 111.692 564.765 111.208C564.765 110.699 564.765 110.125 564.765 109.488C564.765 108.851 565.007 108.138 565.491 107.348C566.001 106.532 566.46 105.985 566.867 105.704ZM587.354 105.207C588.195 105.207 589.354 105.717 590.832 106.736C592.31 107.755 593.049 109.144 593.049 110.902C593.049 112.635 593.049 113.794 593.049 114.381C593.049 114.941 593.087 115.578 593.164 116.292C593.266 117.005 593.317 117.973 593.317 119.196C593.317 120.42 593.317 121.286 593.317 121.796C593.317 122.305 593.329 122.815 593.355 123.324C593.406 123.809 593.444 124.318 593.47 124.853C593.52 125.388 593.559 126.497 593.584 128.179C593.61 129.835 593.61 132.179 593.584 135.211C593.559 138.218 593.584 140.244 593.661 141.289C593.763 142.308 593.813 143.11 593.813 143.697C593.813 144.283 593.928 145.162 594.157 146.334C594.412 147.506 595.037 148.895 596.03 150.5C597.024 152.08 597.559 153.163 597.636 153.749C597.712 154.309 597.75 154.781 597.75 155.163C597.75 155.545 597.636 156.284 597.406 157.38C597.177 158.476 596.514 159.023 595.419 159.023C594.349 159.023 592.985 158.628 591.329 157.839C589.673 157.049 588.845 156.373 588.845 155.813C588.845 155.252 588.845 154.653 588.845 154.016C588.845 153.379 588.845 152.806 588.845 152.296C588.845 151.761 589.01 151.01 589.342 150.041C589.673 149.073 589.775 146.843 589.647 143.353C589.545 139.862 589.482 137.505 589.456 136.282C589.456 135.033 589.456 134.052 589.456 133.338C589.482 132.625 589.469 131.873 589.418 131.083C589.367 130.293 589.342 128.484 589.342 125.656C589.342 122.828 589.227 120.649 588.998 119.12C588.794 117.566 588.348 116.559 587.66 116.101C586.972 115.642 586.258 114.826 585.519 113.654C584.78 112.482 584.411 111.718 584.411 111.361C584.411 110.979 584.691 109.858 585.252 107.998C585.812 106.137 586.513 105.207 587.354 105.207ZM630.506 148.78C630.022 149.392 629.742 149.965 629.665 150.5C629.614 151.01 629.767 151.57 630.124 152.182C630.481 152.793 630.978 153.29 631.615 153.672C632.252 154.055 633.297 154.042 634.749 153.634C636.201 153.226 636.953 152.87 637.004 152.564C637.055 152.258 637.068 151.838 637.042 151.303C637.042 150.768 636.928 150.181 636.698 149.544C636.494 148.907 636.15 148.232 635.666 147.519C635.182 146.805 634.316 146.691 633.067 147.175C631.844 147.633 630.99 148.168 630.506 148.78ZM614.109 169.038C614.109 167.662 614.071 165.598 613.995 162.846C613.893 160.119 614.096 157.673 614.606 155.507C615.09 153.316 615.766 151.608 616.632 150.385C617.473 149.137 618.403 148.079 619.422 147.213C620.467 146.321 621.652 145.557 622.977 144.92C624.302 144.257 625.448 143.837 626.417 143.658C627.385 143.454 628.659 142.932 630.239 142.091C631.844 141.25 633.029 140.664 633.793 140.333C634.558 140.002 635.704 140.104 637.233 140.639C638.788 141.174 639.769 142.053 640.176 143.276C640.61 144.499 641.247 145.735 642.087 146.984C642.928 148.207 643.362 149.404 643.387 150.576C644.228 151.137 645.999 151.405 648.7 151.379V159.062C644.903 159.138 642.317 158.654 640.941 157.609C638.342 159.342 636.087 160.221 634.176 160.247C632.265 160.297 631.233 160.323 631.08 160.323C630.952 160.323 630.252 160.03 628.977 159.444C627.729 158.883 626.659 157.915 625.767 156.539C624.9 155.138 624.416 153.876 624.314 152.755C624.238 151.608 623.856 151.15 623.168 151.379C622.505 151.608 621.817 152.347 621.104 153.596C620.39 154.845 619.932 156.259 619.728 157.839C619.524 159.418 619.435 161.482 619.46 164.03C619.511 166.604 619.422 169.891 619.193 173.892C618.963 177.918 618.517 181.396 617.855 184.326C617.192 187.282 615.078 190.403 611.51 193.69C607.917 196.978 603.968 198.545 599.661 198.392C595.355 198.264 592.157 197.653 590.068 196.557C587.978 195.487 586.997 194.391 587.125 193.27C587.227 192.149 589.163 191.958 592.934 192.697C596.68 193.461 599.904 193.474 602.605 192.735C605.28 192.021 607.612 190.544 609.599 188.301C611.561 186.084 612.746 183.74 613.154 181.268C613.536 178.797 613.791 176.491 613.918 174.35C614.02 172.21 614.084 170.439 614.109 169.038ZM654.165 164.871C656.739 164.871 658.472 166.12 659.364 168.617V169.534C659.364 171.216 657.376 172.414 653.401 173.127H652.637C651.388 173.127 650.012 172.274 648.509 170.566V168.464C648.509 167.445 649.834 166.349 652.484 165.177L654.165 164.871ZM668.843 164.871H669.913C671.722 164.871 672.894 165.317 673.429 166.209L674.041 168.77C674.041 170.987 672.104 172.439 668.231 173.127C666.6 173.127 665.02 172.376 663.492 170.872L663.033 168.617C664.358 166.12 666.295 164.871 668.843 164.871ZM663.759 141.48H664.524C665.568 141.48 666.129 141.862 666.205 142.626C666.307 143.365 666.103 144.385 665.594 145.684C666.435 147.952 667.76 149.506 669.569 150.347C670.919 151.035 672.346 151.379 673.85 151.379V159.023L673.123 158.985C668.18 158.909 664.664 157.469 662.574 154.666C661.912 153.978 661.237 152.781 660.549 151.073H660.396C660.09 151.099 658.051 152.844 654.28 156.31C651.554 158.119 649.286 159.023 647.477 159.023V151.379C650.05 151.277 653.134 149.277 656.726 145.378C659.988 142.754 662.332 141.454 663.759 141.48ZM695.024 159.023C692.833 159.049 691.19 159.036 690.094 158.985C688.998 158.909 688.246 158.501 687.839 157.762C687.431 156.998 686.896 156.08 686.233 155.01C685.571 153.94 685.138 153.379 684.934 153.328C684.756 153.252 684.539 153.328 684.284 153.558C684.029 153.787 683.558 154.297 682.87 155.087C682.207 155.877 681.494 156.603 680.73 157.265C679.991 157.928 679.213 158.348 678.398 158.527C677.608 158.679 676.958 158.794 676.449 158.871C675.965 158.922 675.098 158.985 673.85 159.062V151.341C674.996 151.366 675.888 151.354 676.525 151.303C677.188 151.226 677.965 151.061 678.857 150.806C679.749 150.551 680.462 150.207 680.997 149.774C681.532 149.341 681.965 148.882 682.297 148.398C682.653 147.888 682.997 147.124 683.329 146.105C683.66 145.06 683.826 144.385 683.826 144.079C683.826 143.748 683.813 143.365 683.787 142.932C683.787 142.473 683.736 141.964 683.634 141.403C683.558 140.843 683.303 138.613 682.87 134.714C682.462 130.79 681.647 126.79 680.424 122.713C679.226 118.636 678.347 116.177 677.786 115.336C677.226 114.47 676.78 113.616 676.449 112.775C676.143 111.909 676.003 111.31 676.028 110.979C676.054 110.622 676.156 110.176 676.334 109.641C676.512 109.106 676.767 108.571 677.098 108.036C677.43 107.475 677.71 106.991 677.939 106.583C678.169 106.176 678.462 105.972 678.818 105.972C679.175 105.972 679.799 106.354 680.691 107.118C681.583 107.883 682.246 109.055 682.679 110.635C683.112 112.189 683.469 113.387 683.749 114.228C684.055 115.043 684.692 119.579 685.66 127.835C686.654 136.065 687.24 140.881 687.418 142.282C687.597 143.658 687.724 144.754 687.801 145.569C687.877 146.385 688.081 147.175 688.412 147.939C688.769 148.678 689.291 149.328 689.979 149.888C690.693 150.449 691.304 150.857 691.814 151.112C692.349 151.341 693.419 151.43 695.024 151.379V159.023ZM710.16 126.879C710.339 126.879 710.95 126.879 711.995 126.879C713.065 126.879 714.263 127.274 715.588 128.064C716.938 128.854 717.957 129.389 718.645 129.669C719.333 129.949 720.2 130.408 721.244 131.045C722.289 131.657 723.028 132.128 723.461 132.459C723.895 132.791 724.302 133.033 724.684 133.186C725.092 133.338 725.449 133.848 725.755 134.714C726.06 135.581 726.252 136.473 726.328 137.39C726.43 138.282 726.302 139.683 725.946 141.594C725.615 143.48 725.079 144.461 724.34 144.537C723.627 144.614 723.003 144.423 722.468 143.964C721.932 143.505 721.385 143.2 720.824 143.047C720.289 142.868 719.295 142.945 717.843 143.276C716.416 143.607 715.46 144.053 714.976 144.614C714.492 145.174 714.084 145.799 713.753 146.487C717.524 149.366 719.996 150.959 721.168 151.264C722.34 151.545 723.232 151.659 723.844 151.608C724.455 151.557 725.169 151.519 725.984 151.494C726.799 151.443 727.436 151.417 727.895 151.417C728.354 151.392 728.902 151.379 729.539 151.379V159.023H728.201C726.035 159.074 724.825 159.1 724.57 159.1C724.315 159.1 723.665 159.1 722.62 159.1C721.576 159.1 720.697 159.011 719.983 158.832C719.295 158.654 718.556 158.437 717.766 158.183C716.976 157.902 715.333 156.845 712.836 155.01C710.364 153.176 709.115 152.284 709.09 152.335C709.09 152.36 708.173 153.328 706.338 155.239C704.529 157.125 702.898 158.157 701.446 158.335C699.993 158.488 698.91 158.603 698.197 158.679C697.483 158.756 696.77 158.832 696.056 158.909C695.343 158.985 694.579 159.023 693.763 159.023H692.769L692.808 151.379H695.292C697.101 151.43 698.643 151.328 699.917 151.073C701.191 150.793 702.146 150.424 702.783 149.965C703.446 149.481 704.045 148.933 704.58 148.321C703.255 146.945 701.637 146.143 699.726 145.913C697.84 145.684 696.681 145.467 696.248 145.264C695.814 145.06 695.521 144.754 695.368 144.346C695.241 143.913 695.126 143.378 695.024 142.741C694.948 142.079 695.088 141.021 695.445 139.569C695.827 138.116 696.706 136.817 698.082 135.67C699.458 134.498 700.579 133.581 701.446 132.918C702.312 132.256 703.255 131.542 704.274 130.778C705.319 130.013 705.981 129.363 706.262 128.828C706.542 128.293 707.217 127.835 708.287 127.452C709.358 127.07 709.982 126.879 710.16 126.879ZM705.421 139.492C706.236 139.849 707.561 140.932 709.396 142.741C710.644 141.034 711.893 139.747 713.141 138.881C714.416 137.989 715.269 137.479 715.702 137.352C716.161 137.224 715.868 136.791 714.823 136.052C713.804 135.288 712.848 134.702 711.957 134.294C711.09 133.886 710.441 133.874 710.007 134.256C709.6 134.613 709.128 135.007 708.593 135.441C708.058 135.848 707.396 136.358 706.606 136.97C705.816 137.556 705.217 138.04 704.809 138.422C704.427 138.779 704.631 139.135 705.421 139.492ZM748.917 122.292C751.21 122.394 752.357 123.439 752.357 125.427V125.541C752.255 128.319 750.65 130.128 747.541 130.969C743.821 130.179 741.961 128.79 741.961 126.803V126.191C742.725 124.433 743.668 123.426 744.789 123.172H744.904C745.948 123.172 747.286 122.878 748.917 122.292ZM734.163 124.051C736.329 124.127 737.845 124.815 738.712 126.115L739.209 127.07V128.408C738.648 129.453 737.705 130.204 736.38 130.663L733.858 131.198H733.59C732.342 131.147 731.106 130.395 729.883 128.943L729.997 126.65C731.424 125.044 732.787 124.242 734.087 124.242H734.163V124.051ZM744.942 141.48H745.706C746.751 141.48 747.312 141.862 747.388 142.626C747.49 143.365 747.286 144.385 746.777 145.684C747.617 147.952 748.942 149.506 750.752 150.347C752.102 151.035 753.529 151.379 755.032 151.379V159.023L754.306 158.985C749.363 158.909 745.847 157.469 743.757 154.666C743.095 153.978 742.419 152.781 741.731 151.073H741.578C741.273 151.099 739.234 152.844 735.463 156.31C732.736 158.119 730.469 159.023 728.66 159.023V151.379C731.233 151.277 734.316 149.277 737.909 145.378C741.171 142.754 743.515 141.454 744.942 141.48ZM775.443 159.023C773.251 159.049 771.608 159.036 770.512 158.985C769.417 158.909 768.665 158.501 768.257 157.762C767.849 156.998 767.314 156.08 766.652 155.01C765.989 153.94 765.556 153.379 765.352 153.328C765.174 153.252 764.957 153.328 764.703 153.558C764.448 153.787 763.976 154.297 763.288 155.087C762.626 155.877 761.912 156.603 761.148 157.265C760.409 157.928 759.632 158.348 758.816 158.527C758.026 158.679 757.377 158.794 756.867 158.871C756.383 158.922 755.517 158.985 754.268 159.062V151.341C755.415 151.366 756.306 151.354 756.944 151.303C757.606 151.226 758.383 151.061 759.275 150.806C760.167 150.551 760.88 150.207 761.415 149.774C761.951 149.341 762.384 148.882 762.715 148.398C763.072 147.888 763.416 147.124 763.747 146.105C764.078 145.06 764.244 144.385 764.244 144.079C764.244 143.748 764.231 143.365 764.206 142.932C764.206 142.473 764.155 141.964 764.053 141.403C763.976 140.843 763.721 138.613 763.288 134.714C762.881 130.79 762.065 126.79 760.842 122.713C759.645 118.636 758.765 116.177 758.205 115.336C757.644 114.47 757.198 113.616 756.867 112.775C756.561 111.909 756.421 111.31 756.447 110.979C756.472 110.622 756.574 110.176 756.752 109.641C756.931 109.106 757.186 108.571 757.517 108.036C757.848 107.475 758.128 106.991 758.358 106.583C758.587 106.176 758.88 105.972 759.237 105.972C759.594 105.972 760.218 106.354 761.11 107.118C762.002 107.883 762.664 109.055 763.097 110.635C763.53 112.189 763.887 113.387 764.167 114.228C764.473 115.043 765.11 119.579 766.078 127.835C767.072 136.065 767.658 140.881 767.837 142.282C768.015 143.658 768.142 144.754 768.219 145.569C768.295 146.385 768.499 147.175 768.83 147.939C769.187 148.678 769.71 149.328 770.398 149.888C771.111 150.449 771.723 150.857 772.232 151.112C772.767 151.341 773.837 151.43 775.443 151.379V159.023ZM777.125 106.774C778.526 105.985 779.571 105.704 780.259 105.934C780.972 106.137 781.66 106.673 782.323 107.539C783.011 108.405 783.66 109.768 784.272 111.629C784.884 113.463 785.279 115.209 785.457 116.865C785.635 118.496 785.916 122.777 786.298 129.707C786.68 136.638 787.011 141.314 787.292 143.735C787.597 146.13 787.75 148.054 787.75 149.506C787.776 150.933 787.546 152.22 787.062 153.367C786.604 154.513 785.623 155.596 784.119 156.615C782.616 157.609 780.934 158.272 779.074 158.603C777.239 158.934 775.557 159.074 774.029 159.023V151.379C774.844 151.379 775.456 151.392 775.863 151.417C776.271 151.417 777.188 151.354 778.615 151.226C780.068 151.099 781.01 150.627 781.444 149.812C781.877 148.997 782.042 147.85 781.941 146.372C781.864 144.869 781.762 143.136 781.635 141.174C781.507 139.186 781.418 135.708 781.367 130.739C781.316 125.771 781.036 122.331 780.526 120.42C780.017 118.508 779.061 117.145 777.66 116.33C776.284 115.514 775.507 114.61 775.328 113.616C775.15 112.622 775.061 111.425 775.061 110.023C775.061 108.622 775.749 107.539 777.125 106.774Z" fill="#AB0303"/>
<path d="M1031.57 110.397C1031.57 109.709 1031.57 108.97 1031.57 108.18C1031.57 107.39 1031.99 106.766 1032.83 106.307C1033.69 105.849 1034.42 105.619 1035.01 105.619C1035.62 105.619 1036.24 105.619 1036.88 105.619C1037.54 105.619 1038.13 105.811 1038.64 106.193C1039.17 106.575 1039.58 107.097 1039.86 107.76C1040.17 108.397 1040.48 108.32 1040.81 107.531C1041.15 106.715 1041.67 105.989 1042.38 105.352C1043.1 104.689 1043.86 104.358 1044.68 104.358C1045.52 104.358 1046.2 104.358 1046.74 104.358C1047.3 104.358 1047.95 104.893 1048.69 105.963C1049.43 107.034 1049.8 107.76 1049.8 108.142C1049.8 108.524 1049.8 108.996 1049.8 109.556C1049.8 110.091 1049.26 110.716 1048.19 111.429C1047.12 112.143 1046.27 112.499 1045.63 112.499C1044.99 112.499 1044.38 112.499 1043.8 112.499C1043.24 112.499 1042.83 112.372 1042.57 112.117C1042.32 111.837 1042.05 111.518 1041.77 111.162C1041.52 110.805 1041.31 110.525 1041.16 110.321C1041.01 110.091 1040.56 110.435 1039.82 111.353C1039.11 112.27 1038.39 112.907 1037.68 113.264C1036.99 113.595 1036.42 113.761 1035.96 113.761C1035.53 113.761 1035.07 113.761 1034.58 113.761C1034.13 113.761 1033.5 113.366 1032.71 112.576C1031.95 111.786 1031.57 111.06 1031.57 110.397ZM1040.2 116.551C1041.12 116.551 1042.31 116.806 1043.76 117.315C1045.21 117.799 1045.97 119.405 1046.05 122.131C1046.13 124.858 1046.13 126.539 1046.05 127.176C1045.97 127.814 1045.97 128.132 1046.05 128.132C1046.13 128.132 1045.94 129.253 1045.48 131.496C1045.02 133.738 1044.79 134.948 1044.79 135.127C1044.79 135.279 1045.33 135.7 1046.4 136.388C1047.47 137.076 1048 138.286 1048 140.019C1048 141.726 1048.54 143.803 1049.61 146.249C1050.7 148.695 1051.39 150.033 1051.67 150.262C1051.98 150.466 1052.63 150.797 1053.62 151.256C1054.64 151.689 1055.47 151.957 1056.1 152.059C1056.74 152.135 1057.62 152.135 1058.74 152.059L1058.82 159.627C1055.12 159.805 1052.45 159.588 1050.79 158.977C1049.16 158.365 1047.99 157.524 1047.27 156.454C1046.59 155.384 1045.96 154.25 1045.4 153.053C1044.87 151.855 1044.55 151.103 1044.45 150.797C1044.37 150.466 1044.18 150.301 1043.87 150.301C1043.57 150.301 1042.83 151.791 1041.66 154.773C1040.51 157.728 1039.09 159.206 1037.41 159.206C1035.73 159.206 1034.72 159.372 1034.39 159.703C1034.09 160.009 1033.67 160.162 1033.13 160.162C1032.6 160.162 1032.1 160.162 1031.64 160.162C1031.18 160.162 1029.99 159.869 1028.05 159.283C1026.14 158.697 1025.12 158.174 1024.99 157.716C1024.86 157.231 1024.6 156.645 1024.19 155.957C1023.78 155.244 1023.58 154.479 1023.58 153.664C1023.58 152.849 1023.79 151.205 1024.23 148.734C1024.66 146.262 1025.2 144.86 1025.83 144.529C1026.47 144.198 1027.13 143.765 1027.82 143.23C1028.53 142.694 1030.27 141.726 1033.02 140.325C1035.8 138.923 1037.83 137.382 1039.13 135.7C1040.43 134.018 1041.08 132.413 1041.08 130.884C1041.08 129.355 1040.62 128.158 1039.71 127.291C1038.79 126.399 1038.18 125.737 1037.87 125.304C1037.57 124.87 1037.41 124.514 1037.41 124.233C1037.41 123.928 1037.66 122.577 1038.14 120.182C1038.62 117.761 1039.31 116.551 1040.2 116.551ZM1040.85 142.809C1040.7 142.656 1039.62 143.676 1037.6 145.867C1035.59 148.033 1034.05 149.23 1032.98 149.46C1031.93 149.689 1031.41 149.855 1031.41 149.957C1031.41 150.033 1031.44 150.186 1031.49 150.415C1031.54 150.645 1031.85 150.759 1032.41 150.759C1032.97 150.759 1034.1 150.759 1035.81 150.759C1037.52 150.759 1038.59 150.122 1039.02 148.848C1039.48 147.574 1039.94 146.377 1040.39 145.255C1040.85 144.109 1041.08 143.459 1041.08 143.306C1041.08 143.128 1041.01 142.962 1040.85 142.809ZM1090.46 135.165C1090.54 135.165 1091.03 135.165 1091.92 135.165C1092.83 135.165 1093.75 135.815 1094.67 137.114C1095.59 138.414 1096.27 139.79 1096.73 141.242C1097.19 142.694 1097.42 143.561 1097.42 143.841C1097.42 144.121 1097.42 144.86 1097.42 146.058C1097.42 147.256 1097.29 148.542 1097.04 149.918C1097.63 150.53 1098.44 151.04 1099.49 151.447C1100.56 151.829 1102.07 152.033 1104.03 152.059V159.703C1101.82 159.703 1099.8 159.359 1097.99 158.671C1096.21 157.983 1094.73 157.219 1093.56 156.378C1093.33 156.505 1092.52 156.989 1091.11 157.83C1089.74 158.646 1088.85 159.13 1088.44 159.283C1088.06 159.436 1087.51 159.436 1086.8 159.283C1086.11 159.13 1085.37 158.76 1084.58 158.174C1083.79 157.563 1082.68 156.76 1081.25 155.766C1080.16 156.786 1078.99 157.639 1077.74 158.327C1076.49 158.99 1075.48 159.372 1074.72 159.474C1073.98 159.576 1072.65 159.41 1070.74 158.977C1068.86 158.544 1067.52 157.945 1066.73 157.18C1065.94 156.391 1065.4 155.817 1065.12 155.461C1062.58 158.034 1060.14 159.436 1057.82 159.665L1055.42 159.703L1055.45 152.021C1057.11 152.097 1058.42 151.893 1059.39 151.409C1060.38 150.899 1061.28 150.186 1062.07 149.269C1062.86 148.351 1063.4 147.472 1063.71 146.631C1064.04 145.79 1064.46 145.102 1064.97 144.567C1065.48 144.007 1065.81 143.726 1065.96 143.726C1066.14 143.726 1066.49 143.726 1067 143.726C1067.53 143.726 1068.13 144.376 1068.79 145.676C1069.46 146.95 1070.05 147.791 1070.59 148.198C1071.12 148.606 1071.94 149.039 1073.04 149.498C1074.16 149.957 1075 150.16 1075.56 150.109C1076.12 150.059 1076.76 149.651 1077.47 148.886C1078.18 148.122 1078.6 147.434 1078.73 146.822C1078.86 146.211 1079.25 145.446 1079.92 144.529C1080.6 143.612 1081.11 143.102 1081.44 143C1081.8 142.898 1082.16 142.898 1082.51 143C1082.9 143.102 1083.15 143.816 1083.28 145.141C1083.41 146.466 1084.02 147.459 1085.11 148.122C1086.24 148.759 1087.17 149.218 1087.9 149.498C1088.64 149.753 1089.39 149.638 1090.16 149.154C1090.95 148.644 1091.33 148.211 1091.31 147.854C1091.31 147.498 1091.17 146.886 1090.89 146.02C1090.61 145.128 1090.06 144.567 1089.24 144.338C1088.45 144.109 1087.97 143.676 1087.79 143.038C1087.64 142.376 1087.56 141.369 1087.56 140.019C1087.56 138.668 1088.02 137.522 1088.94 136.579C1089.88 135.636 1090.39 135.165 1090.46 135.165ZM1128.08 160.085C1126.72 160.136 1125.69 159.665 1124.98 158.671C1124.04 157.423 1123.32 156.62 1122.84 156.263C1122.53 156.518 1121.99 157.18 1121.2 158.251C1120.41 159.295 1119.28 159.869 1117.83 159.971C1116.84 159.792 1115.86 159.117 1114.89 157.945C1113.95 156.747 1113.42 156.085 1113.32 155.957C1112.38 156.798 1111.59 157.474 1110.95 157.983C1110.34 158.493 1109.21 158.913 1107.55 159.244C1105.92 159.55 1104.21 159.703 1102.43 159.703V152.059C1103.65 152.059 1105.13 151.97 1106.86 151.791C1108.62 151.587 1109.92 150.747 1110.76 149.269C1111.86 147.077 1112.74 145.854 1113.4 145.599H1113.78C1114.29 145.701 1114.94 146.695 1115.73 148.581C1116.52 150.466 1117.31 151.664 1118.1 152.173C1118.79 152.352 1119.53 151.409 1120.32 149.345C1121.11 147.281 1121.84 146.249 1122.53 146.249C1123.58 148.186 1124.6 149.816 1125.59 151.141C1126.43 152.263 1127.16 152.9 1127.77 153.053C1128.41 153.18 1128.89 153.104 1129.22 152.823C1129.71 152.288 1130.02 151.205 1130.18 149.574C1130.15 148.453 1129.96 147.727 1129.6 147.396C1129.27 147.039 1128.48 146.861 1127.23 146.861C1126.57 146.555 1125.9 146.045 1125.21 145.332C1124.55 144.593 1124.24 143.637 1124.29 142.465C1124.27 141.089 1124.65 139.955 1125.44 139.063C1126.25 138.172 1127.45 137.726 1129.03 137.726C1130 138.031 1131.35 139.395 1133.08 141.815C1134.81 144.236 1135.68 146.542 1135.68 148.734C1135.73 149.167 1135.76 149.536 1135.76 149.842C1135.76 152.033 1135.18 154.186 1134.04 156.301C1132.89 158.416 1130.9 159.678 1128.08 160.085ZM1151.73 122.781C1150.97 123.24 1150.59 123.762 1150.59 124.348C1150.59 124.501 1150.61 124.654 1150.66 124.807C1150.77 125.367 1151.06 125.801 1151.54 126.106C1152.05 126.387 1152.61 126.527 1153.22 126.527H1153.42C1153.82 126.527 1154.72 126.399 1156.09 126.145C1157.67 125.864 1158.6 125.724 1158.88 125.724C1159.8 125.724 1160.26 126.246 1160.26 127.291C1160.26 128.081 1159.48 128.603 1157.93 128.858C1156.37 129.088 1154.8 129.623 1153.22 130.464C1151.67 131.279 1150.27 132.145 1149.02 133.063C1147.82 133.929 1147.13 134.362 1146.96 134.362C1145.71 134.209 1145.08 133.789 1145.08 133.101L1145.24 132.489C1145.54 131.75 1146.12 130.986 1146.96 130.196C1147.8 129.406 1148.42 128.909 1148.83 128.705C1147.84 127.992 1147.22 127.202 1146.99 126.336C1146.77 125.469 1146.65 124.807 1146.65 124.348C1146.65 123.125 1147.03 122.029 1147.8 121.061C1148.59 120.067 1149.4 119.443 1150.24 119.188C1151.08 118.908 1151.77 118.768 1152.31 118.768C1153.4 118.768 1154.36 118.972 1155.17 119.379C1156.02 119.761 1156.44 120.233 1156.44 120.793C1156.44 121.532 1156.21 122.093 1155.75 122.475C1155.42 122.756 1155.05 122.896 1154.64 122.896C1154.44 122.896 1154.21 122.857 1153.95 122.781C1153.31 122.603 1152.89 122.513 1152.69 122.513C1152.36 122.513 1152.04 122.603 1151.73 122.781ZM1154.98 145.638C1154.3 146.224 1153.89 146.759 1153.76 147.243C1153.66 147.727 1153.61 148.249 1153.61 148.81C1153.63 149.371 1153.79 149.829 1154.07 150.186C1154.35 150.543 1154.97 150.938 1155.94 151.371C1156.91 151.804 1158.02 152.059 1159.26 152.135C1159.34 151.091 1159.37 150.008 1159.34 148.886C1159.34 147.765 1159.16 146.912 1158.81 146.326C1158.47 145.739 1157.93 145.332 1157.16 145.102C1156.4 144.873 1155.67 145.051 1154.98 145.638ZM1156.21 137.802C1158.58 137.394 1160.96 138.082 1163.35 139.866C1165.77 141.624 1166.83 145.714 1166.53 152.135C1167.01 152.135 1167.63 152.11 1168.4 152.059L1168.36 159.665C1167.24 159.843 1166.25 159.958 1165.38 160.009C1163.49 165.513 1161.48 169.921 1159.34 173.234C1157.2 176.572 1154.33 179.426 1150.74 181.795C1147.15 184.165 1143.62 185.77 1140.15 186.611C1136.71 187.478 1133.4 188.013 1130.22 188.216C1127 188.42 1123.99 188.369 1121.16 188.064C1118.33 187.783 1115.33 187.184 1112.17 186.267C1108.99 185.375 1105.84 183.783 1102.73 181.489C1099.63 179.196 1097.87 177.298 1097.46 175.794C1097.05 174.317 1097.01 173.259 1097.34 172.622C1097.65 172.01 1098.05 171.717 1098.53 171.743C1099.01 171.768 1100.13 172.66 1101.89 174.418C1103.63 176.177 1105.12 177.463 1106.37 178.279C1107.61 179.094 1109.09 179.846 1110.8 180.534C1112.51 181.247 1115.17 181.974 1118.79 182.713C1122.38 183.477 1126.65 183.643 1131.59 183.209C1136.51 182.776 1140.64 181.604 1143.98 179.693C1147.31 177.782 1149.71 176.037 1151.16 174.457C1152.61 172.877 1153.79 171.297 1154.68 169.717C1155.57 168.137 1156.88 164.736 1158.61 159.512C1157.09 159.232 1155.77 158.964 1154.68 158.709C1153.58 158.429 1152.43 158.021 1151.24 157.486C1150.07 156.951 1149.01 155.919 1148.06 154.39C1147.15 152.836 1146.8 150.899 1147.03 148.581C1147.26 146.236 1148.26 143.956 1150.01 141.739C1151.77 139.497 1153.84 138.184 1156.21 137.802ZM1185.41 137.649C1186.53 137.343 1187.85 137.356 1189.38 137.687C1190.91 137.993 1192.31 139.688 1193.59 142.771C1194.86 145.829 1195.54 148.122 1195.61 149.651C1195.71 151.154 1195.52 152.632 1195.04 154.085C1194.56 155.537 1193.84 157.002 1192.9 158.48C1191.98 159.958 1190.68 160.875 1189 161.232C1187.34 161.589 1185.34 161.729 1183 161.652C1180.68 161.576 1178.43 160.06 1176.23 157.104C1175.34 157.818 1174.31 158.442 1173.14 158.977C1171.99 159.512 1170.5 159.767 1168.67 159.741L1167.33 159.703V152.059H1168.7C1171.05 151.626 1172.68 151.091 1173.6 150.453C1174.51 149.791 1175.41 148.644 1176.27 147.014C1177.16 145.357 1178.63 143.459 1180.67 141.319C1182.71 139.153 1184.29 137.93 1185.41 137.649ZM1181.01 149.383C1180.83 149.816 1180.76 150.301 1180.78 150.836C1180.83 151.345 1181.25 151.893 1182.04 152.479C1182.86 153.065 1183.87 153.422 1185.06 153.549C1186.29 153.677 1187.42 153.562 1188.47 153.205C1189.51 152.849 1190.1 152.301 1190.22 151.562C1190.35 150.823 1190.16 149.982 1189.65 149.039C1189.14 148.071 1188.77 147.434 1188.54 147.128C1188.31 146.797 1187.89 146.491 1187.28 146.211C1186.67 145.931 1185.73 145.982 1184.45 146.364C1183.2 146.746 1182.36 147.243 1181.93 147.854C1181.52 148.44 1181.22 148.95 1181.01 149.383Z" fill="#AB0303"/>
<circle cx="978.666" cy="113.394" r="4.23211" transform="rotate(-4.12181 978.666 113.394)" fill="#10547E"/>
<circle cx="983.463" cy="101.698" r="4.23211" transform="rotate(-4.12181 983.463 101.698)" fill="#10547E"/>
<path d="M432.435 324.03H444.799C448.767 324.03 451.631 324.631 453.391 325.833C456.129 327.677 457.498 330.471 457.498 334.215C457.498 337.261 456.464 339.719 454.397 341.591C452.609 343.212 449.968 344.022 446.476 344.022H440.273V354.039H432.435V324.03ZM440.273 330.485V337.861H445.428C448.389 337.861 449.87 336.632 449.87 334.173C449.87 331.77 448.292 330.555 445.134 330.527L440.273 330.485ZM476.628 332.161L476.586 338.029C475.552 337.722 474.574 337.568 473.652 337.568C470.02 337.568 468.204 339.901 468.204 344.567V354.039H461.079V332.287H467.952V336.017C468.79 333.139 471.123 331.7 474.951 331.7C475.398 331.7 475.957 331.854 476.628 332.161ZM500.997 347.375C500.662 348.66 500.019 349.848 499.069 350.938C496.918 353.396 493.942 354.626 490.142 354.626C486.706 354.626 483.925 353.676 481.802 351.776C479.427 349.652 478.239 346.844 478.239 343.352C478.239 339.691 479.469 336.758 481.928 334.55C484.051 332.65 486.692 331.7 489.849 331.7C493.677 331.7 496.625 332.958 498.692 335.472C500.508 337.68 501.417 340.572 501.417 344.148C501.417 344.399 501.417 344.623 501.417 344.819H485.239C485.295 346.383 485.756 347.613 486.622 348.507C487.488 349.373 488.661 349.806 490.142 349.806C491.958 349.806 493.342 348.996 494.292 347.375H500.997ZM494.417 340.753C494.054 337.931 492.559 336.52 489.933 336.52C487.278 336.52 485.742 337.931 485.323 340.753H494.417ZM497.938 323.234L491.316 329.269H486.789L490.478 323.234H497.938ZM523.728 338.406H517.148C517.036 337.568 516.701 336.981 516.142 336.646C515.611 336.283 514.731 336.101 513.502 336.101C511.602 336.101 510.652 336.688 510.652 337.861C510.652 338.476 510.945 338.923 511.532 339.202C512.147 339.482 513.544 339.831 515.723 340.25C518.88 340.865 521.088 341.689 522.345 342.723C523.63 343.729 524.273 345.196 524.273 347.124C524.273 349.638 523.225 351.566 521.13 352.907C519.286 354.053 516.841 354.626 513.795 354.626C509.939 354.626 507.089 353.718 505.245 351.902C504.351 351.007 503.764 350.309 503.485 349.806C503.233 349.275 503.066 348.423 502.982 347.249H509.981C510.093 348.255 510.428 348.968 510.987 349.387C511.574 349.778 512.538 349.974 513.879 349.974C516.114 349.974 517.232 349.233 517.232 347.752C517.232 347.11 516.966 346.649 516.436 346.369C515.905 346.062 514.647 345.685 512.664 345.238C509.562 344.567 507.453 343.924 506.335 343.31C504.547 342.304 503.653 340.683 503.653 338.448C503.653 336.269 504.519 334.606 506.251 333.461C507.983 332.287 510.442 331.7 513.627 331.7C517.567 331.7 520.375 332.636 522.052 334.508C523.058 335.598 523.616 336.897 523.728 338.406ZM549.039 345.489C548.62 348.591 547.335 350.938 545.184 352.53C543.311 353.927 540.964 354.626 538.142 354.626C534.454 354.626 531.548 353.452 529.425 351.105C527.581 349.066 526.659 346.481 526.659 343.352C526.659 339.58 527.846 336.632 530.221 334.508C532.317 332.636 534.971 331.7 538.184 331.7C541.453 331.7 544.066 332.566 546.022 334.299C547.754 335.836 548.704 337.791 548.872 340.166H541.956C541.593 337.987 540.378 336.897 538.31 336.897C535.376 336.897 533.909 339.035 533.909 343.31C533.909 347.305 535.334 349.303 538.184 349.303C540.448 349.303 541.775 348.032 542.166 345.489H549.039ZM562.824 354.626C559.163 354.626 556.258 353.424 554.106 351.021C552.234 348.926 551.298 346.299 551.298 343.142C551.298 339.51 552.499 336.618 554.902 334.466C556.998 332.622 559.624 331.7 562.782 331.7C566.47 331.7 569.39 332.888 571.541 335.263C573.385 337.302 574.307 339.915 574.307 343.1C574.307 346.76 573.106 349.666 570.703 351.818C568.607 353.69 565.981 354.626 562.824 354.626ZM562.74 336.897C561.399 336.897 560.365 337.442 559.638 338.532C558.912 339.622 558.549 341.158 558.549 343.142C558.549 347.333 559.974 349.429 562.824 349.429C565.674 349.429 567.099 347.319 567.099 343.1C567.099 338.965 565.646 336.897 562.74 336.897ZM585.138 324.03V354.039H578.013V324.03H585.138ZM611.002 354.039H603.752C603.528 353.341 603.402 352.656 603.374 351.985C602.033 353.746 599.658 354.626 596.249 354.626C593.707 354.626 591.751 353.955 590.382 352.614C589.18 351.441 588.58 349.89 588.58 347.962C588.58 345.308 589.753 343.435 592.1 342.346C593.106 341.899 595.174 341.382 598.303 340.795L603.249 339.873V338.574C603.193 336.981 602.089 336.185 599.938 336.185C598.764 336.185 597.898 336.394 597.339 336.813C596.808 337.205 596.459 337.917 596.291 338.951H589.544C589.795 334.117 593.288 331.7 600.021 331.7C603.598 331.7 606.28 332.343 608.068 333.628C608.907 334.271 609.479 334.997 609.787 335.808C610.094 336.59 610.248 337.791 610.248 339.412C610.248 339.691 610.234 340.558 610.206 342.01V342.471L610.164 346.076C610.164 347.054 610.164 347.71 610.164 348.046C610.164 348.381 610.15 348.912 610.122 349.638C610.122 350.03 610.122 350.337 610.122 350.56C610.122 352.125 610.415 353.285 611.002 354.039ZM603.332 344.106L600.063 344.819C598.359 345.21 597.227 345.601 596.668 345.992C596.11 346.383 595.83 346.97 595.83 347.752C595.83 349.457 596.794 350.309 598.722 350.309C600.343 350.309 601.6 349.736 602.494 348.591C602.997 347.976 603.263 346.998 603.29 345.657L603.332 344.106ZM621.77 332.287V354.039H614.645V332.287H621.77ZM618.207 323.234C619.101 323.234 619.87 323.555 620.512 324.198C621.155 324.813 621.476 325.581 621.476 326.503C621.476 327.397 621.155 328.166 620.512 328.808C619.87 329.451 619.101 329.772 618.207 329.772C617.285 329.772 616.503 329.451 615.86 328.808C615.246 328.166 614.938 327.397 614.938 326.503C614.938 325.581 615.246 324.813 615.86 324.198C616.503 323.555 617.285 323.234 618.207 323.234ZM642.227 332.161L642.185 338.029C641.151 337.722 640.174 337.568 639.252 337.568C635.619 337.568 633.803 339.901 633.803 344.567V354.039H626.678V332.287H633.552V336.017C634.39 333.139 636.723 331.7 640.551 331.7C640.998 331.7 641.557 331.854 642.227 332.161ZM666.597 347.375C666.261 348.66 665.619 349.848 664.669 350.938C662.517 353.396 659.542 354.626 655.742 354.626C652.305 354.626 649.525 353.676 647.401 351.776C645.026 349.652 643.839 346.844 643.839 343.352C643.839 339.691 645.068 336.758 647.527 334.55C649.651 332.65 652.291 331.7 655.448 331.7C659.276 331.7 662.224 332.958 664.292 335.472C666.108 337.68 667.016 340.572 667.016 344.148C667.016 344.399 667.016 344.623 667.016 344.819H650.838C650.894 346.383 651.355 347.613 652.221 348.507C653.087 349.373 654.261 349.806 655.742 349.806C657.558 349.806 658.941 348.996 659.891 347.375H666.597ZM660.017 340.753C659.653 337.931 658.159 336.52 655.532 336.52C652.878 336.52 651.341 337.931 650.922 340.753H660.017ZM935.117 342.346C934.921 345.475 933.845 348.171 931.889 350.435C929.403 353.341 925.854 354.793 921.244 354.793C916.326 354.793 912.512 353.089 909.802 349.68C907.483 346.802 906.323 343.24 906.323 338.993C906.323 334.606 907.651 330.918 910.305 327.928C913.071 324.827 916.801 323.276 921.495 323.276C925.407 323.276 928.662 324.491 931.261 326.922C933.496 329.018 934.711 331.588 934.907 334.634H927.279C926.972 333.265 926.497 332.231 925.854 331.533C924.764 330.331 923.27 329.73 921.37 329.73C919.023 329.73 917.206 330.666 915.921 332.538C914.831 334.187 914.287 336.352 914.287 339.035C914.287 342.136 914.985 344.511 916.382 346.16C917.612 347.613 919.246 348.339 921.286 348.339C923.381 348.339 924.974 347.571 926.064 346.034C926.65 345.196 927.056 343.966 927.279 342.346H935.117ZM948.867 354.626C945.207 354.626 942.301 353.424 940.15 351.021C938.278 348.926 937.342 346.299 937.342 343.142C937.342 339.51 938.543 336.618 940.946 334.466C943.042 332.622 945.668 331.7 948.826 331.7C952.514 331.7 955.434 332.888 957.585 335.263C959.429 337.302 960.351 339.915 960.351 343.1C960.351 346.76 959.15 349.666 956.747 351.818C954.651 353.69 952.025 354.626 948.867 354.626ZM948.784 336.897C947.442 336.897 946.409 337.442 945.682 338.532C944.956 339.622 944.593 341.158 944.593 343.142C944.593 347.333 946.018 349.429 948.867 349.429C951.717 349.429 953.142 347.319 953.142 343.1C953.142 338.965 951.69 336.897 948.784 336.897ZM971.182 324.03V354.039H964.057V324.03H971.182ZM983.215 324.03V354.039H976.09V324.03H983.215ZM1009.62 347.375C1009.29 348.66 1008.65 349.848 1007.7 350.938C1005.54 353.396 1002.57 354.626 998.769 354.626C995.332 354.626 992.552 353.676 990.429 351.776C988.054 349.652 986.866 346.844 986.866 343.352C986.866 339.691 988.096 336.758 990.554 334.55C992.678 332.65 995.318 331.7 998.476 331.7C1002.3 331.7 1005.25 332.958 1007.32 335.472C1009.14 337.68 1010.04 340.572 1010.04 344.148C1010.04 344.399 1010.04 344.623 1010.04 344.819H993.865C993.921 346.383 994.382 347.613 995.248 348.507C996.115 349.373 997.288 349.806 998.769 349.806C1000.59 349.806 1001.97 348.996 1002.92 347.375H1009.62ZM1003.04 340.753C1002.68 337.931 1001.19 336.52 998.559 336.52C995.905 336.52 994.368 337.931 993.949 340.753H1003.04ZM991.225 323.234H998.685L1002.33 329.269H997.847L991.225 323.234ZM1034.87 332.287V351.147C1034.87 354.081 1034.38 356.288 1033.4 357.769C1031.61 360.424 1028.44 361.751 1023.89 361.751C1017.38 361.751 1013.83 359.418 1013.24 354.752H1020.37C1020.82 356.344 1022.02 357.141 1023.97 357.141C1025.45 357.141 1026.49 356.777 1027.07 356.051C1027.69 355.324 1028 354.067 1028 352.279V349.89C1026.49 351.93 1024.39 352.949 1021.71 352.949C1018.69 352.949 1016.36 351.874 1014.71 349.722C1013.26 347.85 1012.53 345.419 1012.53 342.43C1012.53 338.965 1013.49 336.241 1015.42 334.257C1017.1 332.552 1019.25 331.7 1021.88 331.7C1024.48 331.7 1026.52 332.818 1028 335.053V332.287H1034.87ZM1023.8 337.107C1022.49 337.107 1021.44 337.582 1020.66 338.532C1019.91 339.454 1019.53 340.725 1019.53 342.346C1019.53 343.994 1019.91 345.308 1020.66 346.285C1021.44 347.235 1022.51 347.71 1023.85 347.71C1025.16 347.71 1026.19 347.235 1026.95 346.285C1027.73 345.335 1028.12 344.036 1028.12 342.388C1028.12 340.739 1027.73 339.454 1026.95 338.532C1026.19 337.582 1025.15 337.107 1023.8 337.107ZM1061.28 347.375C1060.94 348.66 1060.3 349.848 1059.35 350.938C1057.2 353.396 1054.22 354.626 1050.42 354.626C1046.98 354.626 1044.2 353.676 1042.08 351.776C1039.71 349.652 1038.52 346.844 1038.52 343.352C1038.52 339.691 1039.75 336.758 1042.21 334.55C1044.33 332.65 1046.97 331.7 1050.13 331.7C1053.96 331.7 1056.9 332.958 1058.97 335.472C1060.79 337.68 1061.7 340.572 1061.7 344.148C1061.7 344.399 1061.7 344.623 1061.7 344.819H1045.52C1045.57 346.383 1046.03 347.613 1046.9 348.507C1047.77 349.373 1048.94 349.806 1050.42 349.806C1052.24 349.806 1053.62 348.996 1054.57 347.375H1061.28ZM1054.7 340.753C1054.33 337.931 1052.84 336.52 1050.21 336.52C1047.56 336.52 1046.02 337.931 1045.6 340.753H1054.7Z" fill="#AB0303"/>
<path d="M687.802 340.627V346.034H677.45V340.627H687.802ZM699.825 324.03H712.189C716.157 324.03 719.021 324.631 720.781 325.833C723.519 327.677 724.888 330.471 724.888 334.215C724.888 337.261 723.855 339.719 721.787 341.591C719.999 343.212 717.358 344.022 713.866 344.022H707.663V354.039H699.825V324.03ZM707.663 330.485V337.861H712.818C715.78 337.861 717.261 336.632 717.261 334.173C717.261 331.77 715.682 330.555 712.525 330.527L707.663 330.485ZM744.018 332.161L743.976 338.029C742.942 337.722 741.964 337.568 741.042 337.568C737.41 337.568 735.594 339.901 735.594 344.567V354.039H728.469V332.287H735.342V336.017C736.181 333.139 738.514 331.7 742.342 331.7C742.789 331.7 743.347 331.854 744.018 332.161ZM754.012 332.287V354.039H746.887V332.287H754.012ZM750.449 323.234C751.344 323.234 752.112 323.555 752.755 324.198C753.397 324.813 753.719 325.581 753.719 326.503C753.719 327.397 753.397 328.166 752.755 328.808C752.112 329.451 751.344 329.772 750.449 329.772C749.527 329.772 748.745 329.451 748.102 328.808C747.488 328.166 747.18 327.397 747.18 326.503C747.18 325.581 747.488 324.813 748.102 324.198C748.745 323.555 749.527 323.234 750.449 323.234ZM765.794 332.287V335.179C767.414 332.86 769.649 331.7 772.499 331.7C775.377 331.7 777.417 332.86 778.619 335.179C780.379 332.86 782.684 331.7 785.534 331.7C788.049 331.7 789.991 332.483 791.36 334.047C792.533 335.444 793.12 337.288 793.12 339.58V354.039H785.995V341.424C785.995 338.825 784.989 337.526 782.977 337.526C781.608 337.526 780.63 338.085 780.044 339.202C779.736 339.789 779.583 340.753 779.583 342.094V354.039H772.458V341.13C772.458 338.727 771.494 337.526 769.566 337.526C767.219 337.526 766.045 339.049 766.045 342.094V354.039H758.92V332.287H765.794ZM818.8 354.039H811.549C811.325 353.341 811.2 352.656 811.172 351.985C809.83 353.746 807.456 354.626 804.047 354.626C801.504 354.626 799.548 353.955 798.179 352.614C796.978 351.441 796.377 349.89 796.377 347.962C796.377 345.308 797.55 343.435 799.897 342.346C800.903 341.899 802.971 341.382 806.1 340.795L811.046 339.873V338.574C810.99 336.981 809.886 336.185 807.735 336.185C806.561 336.185 805.695 336.394 805.136 336.813C804.606 337.205 804.256 337.917 804.089 338.951H797.341C797.592 334.117 801.085 331.7 807.819 331.7C811.395 331.7 814.078 332.343 815.866 333.628C816.704 334.271 817.277 334.997 817.584 335.808C817.891 336.59 818.045 337.791 818.045 339.412C818.045 339.691 818.031 340.558 818.003 342.01V342.471L817.961 346.076C817.961 347.054 817.961 347.71 817.961 348.046C817.961 348.381 817.947 348.912 817.919 349.638C817.919 350.03 817.919 350.337 817.919 350.56C817.919 352.125 818.213 353.285 818.8 354.039ZM811.13 344.106L807.861 344.819C806.156 345.21 805.025 345.601 804.466 345.992C803.907 346.383 803.628 346.97 803.628 347.752C803.628 349.457 804.592 350.309 806.519 350.309C808.14 350.309 809.397 349.736 810.292 348.591C810.794 347.976 811.06 346.998 811.088 345.657L811.13 344.106ZM829.567 332.287V354.039H822.442V332.287H829.567ZM826.005 323.234C826.899 323.234 827.667 323.555 828.31 324.198C828.952 324.813 829.274 325.581 829.274 326.503C829.274 327.397 828.952 328.166 828.31 328.808C827.667 329.451 826.899 329.772 826.005 329.772C825.083 329.772 824.3 329.451 823.658 328.808C823.043 328.166 822.736 327.397 822.736 326.503C822.736 325.581 823.043 324.813 823.658 324.198C824.3 323.555 825.083 323.234 826.005 323.234ZM850.025 332.161L849.983 338.029C848.949 337.722 847.971 337.568 847.049 337.568C843.417 337.568 841.6 339.901 841.6 344.567V354.039H834.475V332.287H841.349V336.017C842.187 333.139 844.52 331.7 848.348 331.7C848.795 331.7 849.354 331.854 850.025 332.161ZM874.394 347.375C874.059 348.66 873.416 349.848 872.466 350.938C870.315 353.396 867.339 354.626 863.539 354.626C860.102 354.626 857.322 353.676 855.199 351.776C852.824 349.652 851.636 346.844 851.636 343.352C851.636 339.691 852.866 336.758 855.324 334.55C857.448 332.65 860.088 331.7 863.246 331.7C867.074 331.7 870.021 332.958 872.089 335.472C873.905 337.68 874.813 340.572 874.813 344.148C874.813 344.399 874.813 344.623 874.813 344.819H858.635C858.691 346.383 859.152 347.613 860.018 348.507C860.885 349.373 862.058 349.806 863.539 349.806C865.355 349.806 866.738 348.996 867.688 347.375H874.394ZM867.814 340.753C867.451 337.931 865.956 336.52 863.329 336.52C860.675 336.52 859.138 337.931 858.719 340.753H867.814ZM895.599 340.627V346.034H885.247V340.627H895.599ZM1082.48 340.627V346.034H1072.13V340.627H1082.48ZM1116.42 347.291V354.039H1094.51V324.03H1102.34V347.291H1116.42ZM1140.49 332.287L1132.61 354.249C1131.52 357.266 1130.35 359.25 1129.09 360.2C1127.83 361.15 1125.77 361.625 1122.89 361.625C1121.35 361.625 1119.6 361.457 1117.65 361.122L1118.78 355.464C1119.39 355.688 1120.19 355.799 1121.17 355.799C1122.71 355.799 1123.68 355.478 1124.1 354.835C1124.55 354.193 1124.77 353.48 1124.77 352.698C1124.77 352.53 1124.73 352.349 1124.65 352.153L1117.23 332.287H1124.82L1127.83 341.927C1128.2 343.128 1128.59 344.819 1129.01 346.998C1129.56 344.511 1130.01 342.737 1130.35 341.675L1133.2 332.287H1140.49ZM1163.8 345.489C1163.38 348.591 1162.09 350.938 1159.94 352.53C1158.07 353.927 1155.72 354.626 1152.9 354.626C1149.21 354.626 1146.3 353.452 1144.18 351.105C1142.34 349.066 1141.41 346.481 1141.41 343.352C1141.41 339.58 1142.6 336.632 1144.98 334.508C1147.07 332.636 1149.73 331.7 1152.94 331.7C1156.21 331.7 1158.82 332.566 1160.78 334.299C1162.51 335.836 1163.46 337.791 1163.63 340.166H1156.71C1156.35 337.987 1155.13 336.897 1153.07 336.897C1150.13 336.897 1148.67 339.035 1148.67 343.31C1148.67 347.305 1150.09 349.303 1152.94 349.303C1155.2 349.303 1156.53 348.032 1156.92 345.489H1163.8ZM1188.81 347.375C1188.48 348.66 1187.83 349.848 1186.88 350.938C1184.73 353.396 1181.76 354.626 1177.96 354.626C1174.52 354.626 1171.74 353.676 1169.62 351.776C1167.24 349.652 1166.05 346.844 1166.05 343.352C1166.05 339.691 1167.28 336.758 1169.74 334.55C1171.87 332.65 1174.51 331.7 1177.66 331.7C1181.49 331.7 1184.44 332.958 1186.51 335.472C1188.32 337.68 1189.23 340.572 1189.23 344.148C1189.23 344.399 1189.23 344.623 1189.23 344.819H1173.05C1173.11 346.383 1173.57 347.613 1174.44 348.507C1175.3 349.373 1176.48 349.806 1177.96 349.806C1179.77 349.806 1181.16 348.996 1182.11 347.375H1188.81ZM1182.23 340.753C1181.87 337.931 1180.37 336.52 1177.75 336.52C1175.09 336.52 1173.56 337.931 1173.14 340.753H1182.23ZM1185.75 323.234L1179.13 329.269H1174.6L1178.29 323.234H1185.75ZM1214.39 347.375C1214.06 348.66 1213.41 349.848 1212.46 350.938C1210.31 353.396 1207.34 354.626 1203.54 354.626C1200.1 354.626 1197.32 353.676 1195.2 351.776C1192.82 349.652 1191.63 346.844 1191.63 343.352C1191.63 339.691 1192.86 336.758 1195.32 334.55C1197.45 332.65 1200.09 331.7 1203.24 331.7C1207.07 331.7 1210.02 332.958 1212.09 335.472C1213.9 337.68 1214.81 340.572 1214.81 344.148C1214.81 344.399 1214.81 344.623 1214.81 344.819H1198.63C1198.69 346.383 1199.15 347.613 1200.02 348.507C1200.88 349.373 1202.06 349.806 1203.54 349.806C1205.35 349.806 1206.74 348.996 1207.69 347.375H1214.39ZM1207.81 340.753C1207.45 337.931 1205.95 336.52 1203.33 336.52C1200.67 336.52 1199.14 337.931 1198.72 340.753H1207.81Z" fill="#10547E"/>
</svg>
