<svg width="1365" height="448" viewBox="0 0 1365 448" fill="none" xmlns="http://www.w3.org/2000/svg">
<path d="M303.586 339.084C320.66 312.381 328.111 280.651 324.706 249.139C321.302 217.627 307.245 188.221 284.861 165.781C262.477 143.341 233.106 129.212 201.603 125.729C170.099 122.246 138.351 129.618 111.606 146.626C84.8602 163.634 64.7196 189.259 54.5134 219.266C44.3072 249.273 44.6465 281.865 55.4752 311.653C59.4986 322.72 64.8805 333.155 71.4457 342.742" stroke="white" stroke-width="18.1681"/>
<path d="M261.266 95.0192C263.038 98.2566 262.974 100.127 263.004 104.617C263.048 110.39 263.592 127.393 261.418 131.534C261.286 131.784 261.134 131.987 260.991 132.215C257.84 130.859 254.861 129.477 251.848 127.232C206.458 104.898 158.703 106.14 113.657 130.833C113.505 130.464 113.353 130.09 113.196 129.726C110.856 124.384 111.517 106.581 111.429 99.3427C142.963 64.1463 235.389 70.2674 261.266 95.0192Z" fill="white"/>
<path d="M70.5156 68.4075C75.3049 64.7336 80.686 62.6186 85.6692 59.8385L116.569 42.4203L158.498 18.3713C167.725 12.9826 176.962 6.93919 186.327 2.53264C189.537 1.02568 193.223 -0.465679 196.531 0.137104C205.046 1.69083 223.638 15.3989 232.615 20.8915C258.411 36.673 284.227 52.6831 310.166 67.6228C313.936 69.2805 319.251 71.6396 322.431 75.6045C319.997 78.9821 295.04 90.0505 290.426 91.1885C286.092 94.3167 278.544 98.8428 273.876 98.0633C272.306 95.7509 271.005 92.3161 269.238 90.6897C266.401 88.0811 262.367 87.1509 259.25 85.6647C236.674 74.9134 212.683 68.0177 189.35 67.9813C178.219 67.9657 166.847 70.273 155.809 72.7984C148.216 74.5392 111.769 84.5007 107.803 93.0955L107.642 95.7145C107.69 99.1234 107.719 99.9184 106.623 102.527C102.151 104.689 94.43 97.0812 90.078 94.1608C85.331 91.547 80.5766 88.9904 75.8143 86.4805L75.615 82.1259C74.232 82.0532 73.4339 79.5122 72.4769 77.6934C72.8793 74.3937 73.6077 76.5658 74.4592 74.2118L73.0089 73.7701L73.191 72.7257L75.9537 71.9981L75.9282 70.6575C74.0244 68.5633 72.7468 70.9225 70.5156 68.4075Z" fill="white"/>
<path d="M70.5267 68.375C72.7579 70.8901 74.0354 68.5309 75.9392 70.625L75.9648 71.9657L73.2021 72.6932L73.02 73.7377L74.4703 74.1793C73.6187 76.5333 72.8904 74.3613 72.4879 77.661C73.445 79.4797 74.243 82.0207 75.6261 82.0935L75.8254 86.4481C73.6492 85.045 71.522 83.5745 69.4106 81.8492C66.5198 98.6856 69.8518 115.595 68.2086 132.644C70.6567 134.936 72.4845 138.329 74.488 141.759C72.7387 144.902 68.9497 149.553 68.9011 154.656C68.8638 158.611 72.2538 169.746 72.9949 174.74C70.2656 180.83 67.2545 182.582 63.117 183.205C62.1948 183.34 61.2716 183.455 60.3479 183.538C57.9513 182.104 54.1295 179.848 52.6556 175.753C50.3606 169.377 56.9555 160.866 56.6488 153.341C56.5221 150.239 55.8006 149.896 54.6104 148.275C53.2175 146.383 52.4175 145.682 52.125 142.377C52.9152 137.908 54.6016 136.443 56.207 133.231C58.9604 127.723 58.1378 117.689 58.0667 110.804C58.236 101.965 56.6851 86.1155 59.0242 78.7314C61.2078 71.841 66.7681 70.3496 70.5267 68.375Z" fill="white"/>
<path d="M77.3723 353.911L85.1397 348.345L88.4987 353.033L87.6643 353.631L84.9793 349.884L82.3548 351.764L84.8658 355.269L84.0315 355.867L81.5204 352.362L78.8807 354.254L81.6092 358.061L80.7748 358.659L77.3723 353.911Z" fill="white"/>
<path d="M89.4572 355.913L90.2455 355.256L94.8355 360.76L94.0472 361.417L92.1227 359.11L85.5725 364.572L84.8314 363.684L91.3816 358.221L89.4572 355.913Z" fill="white"/>
<path d="M90.1248 369.795L89.2786 368.926L98.5731 364.775L99.4062 365.631L95.0067 374.81L94.1605 373.941L97.9325 366.284L97.8804 366.23L90.1248 369.795ZM93.1119 367.512L96.5227 371.016L95.7872 371.732L92.3763 368.228L93.1119 367.512Z" fill="white"/>
<path d="M97.4768 377.132L103.783 369.953L106.293 372.158C106.793 372.597 107.13 373.046 107.303 373.504C107.478 373.96 107.517 374.403 107.422 374.832C107.328 375.259 107.127 375.648 106.819 375.999C106.548 376.307 106.27 376.513 105.983 376.618C105.699 376.725 105.417 376.758 105.137 376.719C104.859 376.682 104.593 376.601 104.338 376.476L104.276 376.547C104.483 376.754 104.636 377.025 104.735 377.36C104.834 377.695 104.843 378.059 104.763 378.452C104.683 378.846 104.476 379.231 104.144 379.61C103.827 379.97 103.461 380.222 103.045 380.365C102.629 380.509 102.171 380.51 101.67 380.368C101.169 380.227 100.636 379.907 100.071 379.411L97.4768 377.132ZM99.0236 377.124L100.748 378.639C101.316 379.138 101.816 379.383 102.247 379.372C102.683 379.362 103.039 379.199 103.316 378.883C103.53 378.64 103.665 378.361 103.722 378.047C103.781 377.73 103.75 377.409 103.63 377.084C103.512 376.757 103.296 376.456 102.983 376.181L101.216 374.629L99.0236 377.124ZM101.881 373.871L103.494 375.288C103.755 375.518 104.037 375.674 104.337 375.756C104.64 375.84 104.936 375.843 105.224 375.765C105.514 375.688 105.77 375.524 105.992 375.272C106.269 374.956 106.394 374.592 106.368 374.18C106.343 373.765 106.092 373.348 105.616 372.929L103.975 371.488L101.881 373.871Z" fill="white"/>
<path d="M105.444 383.911L111.216 376.296L112.139 376.995L106.986 383.791L110.526 386.475L109.906 387.293L105.444 383.911Z" fill="white"/>
<path d="M119.15 382.056L113.793 389.969L112.835 389.32L118.192 381.407L119.15 382.056Z" fill="white"/>
<path d="M125.516 388.827C125.71 388.392 125.703 387.961 125.495 387.532C125.287 387.104 124.934 386.741 124.438 386.445C124.074 386.228 123.721 386.097 123.379 386.052C123.039 386.009 122.731 386.044 122.456 386.159C122.184 386.276 121.97 386.465 121.814 386.727C121.683 386.946 121.623 387.165 121.633 387.385C121.647 387.603 121.706 387.814 121.81 388.017C121.915 388.218 122.038 388.405 122.18 388.58C122.323 388.753 122.459 388.905 122.587 389.036L123.287 389.757C123.467 389.941 123.659 390.16 123.861 390.415C124.067 390.672 124.239 390.957 124.377 391.272C124.52 391.585 124.591 391.921 124.591 392.279C124.591 392.638 124.476 393.009 124.246 393.394C123.982 393.838 123.626 394.169 123.181 394.388C122.737 394.609 122.231 394.693 121.662 394.639C121.095 394.587 120.496 394.373 119.866 393.997C119.278 393.646 118.826 393.248 118.509 392.802C118.195 392.357 118.016 391.892 117.973 391.406C117.932 390.921 118.03 390.445 118.266 389.977L119.291 390.59C119.133 390.915 119.084 391.234 119.145 391.545C119.209 391.856 119.353 392.144 119.574 392.41C119.8 392.675 120.076 392.905 120.402 393.099C120.781 393.326 121.158 393.468 121.533 393.525C121.91 393.579 122.253 393.548 122.561 393.432C122.871 393.313 123.116 393.103 123.294 392.804C123.457 392.532 123.513 392.265 123.463 392.003C123.413 391.741 123.295 391.483 123.11 391.228C122.926 390.973 122.713 390.719 122.472 390.467L121.635 389.576C121.104 389.009 120.753 388.443 120.583 387.878C120.413 387.313 120.493 386.754 120.823 386.201C121.097 385.741 121.461 385.415 121.913 385.221C122.37 385.026 122.866 384.96 123.401 385.022C123.94 385.083 124.472 385.27 124.996 385.583C125.524 385.898 125.938 386.273 126.236 386.709C126.536 387.141 126.709 387.592 126.755 388.061C126.803 388.532 126.711 388.979 126.477 389.401L125.516 388.827Z" fill="white"/>
<path d="M134.024 393.306C134.185 392.858 134.146 392.428 133.906 392.016C133.667 391.605 133.289 391.269 132.771 391.011C132.393 390.822 132.031 390.717 131.686 390.698C131.344 390.68 131.04 390.738 130.774 390.873C130.511 391.01 130.312 391.214 130.176 391.487C130.061 391.715 130.018 391.938 130.044 392.157C130.075 392.374 130.149 392.58 130.268 392.774C130.387 392.966 130.524 393.144 130.679 393.308C130.835 393.47 130.981 393.611 131.119 393.732L131.87 394.4C132.064 394.569 132.271 394.774 132.492 395.013C132.716 395.254 132.909 395.525 133.07 395.829C133.236 396.13 133.332 396.46 133.359 396.818C133.385 397.175 133.298 397.554 133.098 397.955C132.867 398.417 132.538 398.774 132.109 399.026C131.683 399.279 131.185 399.4 130.613 399.389C130.044 399.379 129.431 399.21 128.775 398.882C128.163 398.576 127.682 398.213 127.333 397.791C126.986 397.371 126.773 396.92 126.694 396.439C126.617 395.959 126.679 395.477 126.879 394.993L127.948 395.527C127.814 395.864 127.789 396.185 127.873 396.491C127.961 396.796 128.125 397.072 128.365 397.321C128.61 397.569 128.902 397.778 129.242 397.947C129.637 398.145 130.024 398.258 130.402 398.287C130.782 398.314 131.121 398.257 131.42 398.118C131.721 397.976 131.949 397.749 132.105 397.438C132.246 397.154 132.283 396.883 132.213 396.626C132.143 396.369 132.007 396.12 131.804 395.879C131.601 395.638 131.37 395.401 131.111 395.168L130.209 394.341C129.638 393.816 129.246 393.277 129.034 392.727C128.823 392.176 128.861 391.612 129.149 391.036C129.388 390.558 129.726 390.205 130.163 389.978C130.604 389.75 131.093 389.647 131.632 389.669C132.174 389.69 132.718 389.837 133.263 390.109C133.814 390.385 134.255 390.728 134.584 391.14C134.916 391.549 135.122 391.985 135.202 392.45C135.286 392.916 135.227 393.368 135.025 393.806L134.024 393.306Z" fill="white"/>
<path d="M135.275 401.768L138.909 392.93L144.242 395.123L143.852 396.073L139.589 394.32L138.361 397.306L142.348 398.945L141.958 399.895L137.97 398.255L136.735 401.259L141.068 403.04L140.678 403.989L135.275 401.768Z" fill="white"/>
<path d="M147.315 396.344L148.633 396.757L149.358 405.297L149.465 405.331L154.937 398.734L156.255 399.148L153.395 408.265L152.362 407.941L154.535 401.014L154.446 400.986L149.424 407.02L148.427 406.707L147.75 398.886L147.661 398.858L145.489 405.785L144.456 405.461L147.315 396.344Z" fill="white"/>
<path d="M157.524 409.279L159.589 399.949L165.22 401.195L164.998 402.197L160.497 401.201L159.799 404.354L164.009 405.285L163.787 406.287L159.578 405.356L158.876 408.527L163.45 409.539L163.228 410.541L157.524 409.279Z" fill="white"/>
<path d="M175.964 402.852L174.644 412.316L173.535 412.162L169.414 404.012L169.322 403.999L168.285 411.429L167.139 411.27L168.459 401.806L169.568 401.96L173.705 410.131L173.797 410.144L174.836 402.695L175.964 402.852Z" fill="white"/>
<path d="M178.756 404.157L178.816 403.132L185.97 403.549L185.911 404.574L182.911 404.399L182.415 412.913L181.259 412.846L181.756 404.331L178.756 404.157Z" fill="white"/>
<path d="M194.137 403.52L197.438 411.385L197.549 411.379L199.913 403.184L201.124 403.113L198.178 412.857L196.985 412.926L192.926 403.591L194.137 403.52Z" fill="white"/>
<path d="M205.046 402.649L206.167 412.139L205.018 412.274L203.897 402.785L205.046 402.649Z" fill="white"/>
<path d="M216.82 403.742L215.682 403.948C215.555 403.633 215.385 403.366 215.172 403.149C214.962 402.931 214.722 402.76 214.453 402.635C214.186 402.506 213.901 402.425 213.598 402.391C213.294 402.358 212.987 402.369 212.674 402.426C212.105 402.529 211.616 402.766 211.206 403.138C210.799 403.509 210.51 403.999 210.339 404.608C210.171 405.217 210.161 405.929 210.308 406.743C210.456 407.557 210.715 408.22 211.086 408.731C211.46 409.242 211.903 409.599 212.414 409.804C212.928 410.008 213.47 410.058 214.039 409.955C214.351 409.898 214.644 409.801 214.916 409.663C215.188 409.525 215.427 409.351 215.632 409.14C215.839 408.925 216.003 408.679 216.124 408.401C216.247 408.12 216.312 407.811 216.321 407.474L217.459 407.268C217.461 407.764 217.383 408.222 217.225 408.643C217.067 409.063 216.844 409.437 216.556 409.764C216.267 410.089 215.925 410.358 215.531 410.571C215.14 410.785 214.707 410.934 214.232 411.02C213.431 411.165 212.682 411.099 211.986 410.82C211.291 410.542 210.699 410.074 210.21 409.416C209.721 408.759 209.386 407.934 209.207 406.943C209.027 405.951 209.051 405.062 209.278 404.274C209.505 403.487 209.895 402.841 210.448 402.336C211.002 401.831 211.679 401.506 212.481 401.361C212.956 401.275 213.414 401.263 213.855 401.325C214.299 401.387 214.714 401.52 215.099 401.726C215.483 401.928 215.823 402.198 216.118 402.537C216.413 402.872 216.647 403.274 216.82 403.742Z" fill="white"/>
<path d="M218.913 401.262L218.65 400.269L225.579 398.437L225.841 399.43L222.936 400.198L225.117 408.443L223.998 408.739L221.818 400.494L218.913 401.262Z" fill="white"/>
<path d="M237.405 399.456C237.74 400.406 237.858 401.288 237.759 402.101C237.66 402.915 237.377 403.614 236.911 404.201C236.445 404.787 235.827 405.216 235.059 405.487C234.29 405.758 233.54 405.811 232.81 405.646C232.079 405.482 231.42 405.114 230.832 404.543C230.245 403.971 229.784 403.21 229.449 402.26C229.114 401.309 228.996 400.427 229.095 399.614C229.195 398.801 229.477 398.101 229.943 397.514C230.409 396.928 231.027 396.499 231.795 396.228C232.564 395.957 233.314 395.904 234.045 396.069C234.775 396.233 235.434 396.601 236.022 397.173C236.609 397.744 237.07 398.505 237.405 399.456ZM236.349 399.828C236.074 399.047 235.711 398.435 235.261 397.99C234.814 397.544 234.32 397.261 233.78 397.142C233.242 397.021 232.701 397.057 232.155 397.249C231.61 397.442 231.164 397.754 230.818 398.186C230.475 398.616 230.268 399.146 230.196 399.775C230.127 400.403 230.23 401.107 230.505 401.887C230.78 402.668 231.141 403.281 231.589 403.727C232.039 404.172 232.533 404.454 233.07 404.575C233.61 404.695 234.153 404.658 234.699 404.466C235.245 404.274 235.689 403.962 236.032 403.531C236.377 403.099 236.585 402.569 236.654 401.942C236.726 401.313 236.624 400.608 236.349 399.828Z" fill="white"/>
<path d="M242.38 402.583L238.49 393.855L241.439 392.541C242.121 392.237 242.733 392.104 243.274 392.142C243.814 392.177 244.279 392.349 244.669 392.659C245.059 392.969 245.369 393.381 245.598 393.895C245.827 394.409 245.925 394.912 245.893 395.404C245.86 395.895 245.676 396.351 245.343 396.773C245.008 397.191 244.503 397.55 243.827 397.852L241.44 398.915L241.015 397.961L243.367 396.912C243.833 396.705 244.178 396.469 244.401 396.206C244.627 395.942 244.749 395.656 244.765 395.349C244.783 395.038 244.714 394.708 244.558 394.359C244.403 394.009 244.201 393.733 243.954 393.53C243.707 393.327 243.408 393.218 243.058 393.204C242.706 393.187 242.295 393.283 241.823 393.493L239.965 394.321L243.437 402.112L242.38 402.583ZM244.741 396.831L248.636 399.795L247.409 400.342L243.548 397.363L244.741 396.831Z" fill="white"/>
<path d="M246.322 390.309L247.488 389.68L251.939 392.346L252.038 392.293L252.251 387.109L253.417 386.48L253.047 393.063L254.917 396.529L253.899 397.078L252.029 393.613L246.322 390.309Z" fill="white"/>
<path d="M265.28 390.28L259.805 382.449L262.451 380.599C263.065 380.169 263.645 379.929 264.19 379.878C264.736 379.823 265.234 379.917 265.685 380.159C266.136 380.402 266.522 380.754 266.845 381.216C267.167 381.677 267.366 382.162 267.441 382.672C267.519 383.179 267.441 383.681 267.208 384.178C266.973 384.673 266.551 385.133 265.942 385.559L264.045 386.885L263.457 386.044L265.323 384.739C265.744 384.445 266.031 384.136 266.184 383.813C266.337 383.489 266.385 383.164 266.327 382.836C266.269 382.504 266.131 382.182 265.912 381.868C265.693 381.555 265.438 381.315 265.148 381.15C264.86 380.983 264.539 380.919 264.183 380.959C263.826 380.996 263.434 381.164 263.009 381.461L261.341 382.627L266.229 389.617L265.28 390.28Z" fill="white"/>
<path d="M273.509 384.377L267.465 376.975L269.966 374.933C270.545 374.461 271.1 374.172 271.632 374.067C272.163 373.959 272.657 374.004 273.114 374.2C273.572 374.397 273.979 374.713 274.335 375.149C274.691 375.585 274.918 376.045 275.015 376.528C275.112 377.011 275.055 377.499 274.844 377.993C274.63 378.484 274.237 378.964 273.664 379.432L271.64 381.084L270.979 380.275L272.974 378.646C273.369 378.323 273.64 378.006 273.786 377.693C273.935 377.379 273.977 377.072 273.912 376.771C273.848 376.466 273.695 376.166 273.453 375.869C273.211 375.573 272.944 375.359 272.652 375.228C272.361 375.097 272.044 375.07 271.702 375.148C271.358 375.224 270.987 375.425 270.587 375.752L269.011 377.039L274.405 383.645L273.509 384.377ZM274.278 378.207L278.814 380.045L277.773 380.895L273.266 379.034L274.278 378.207Z" fill="white"/>
<path d="M275.611 370.015L282.067 377.06L281.214 377.842L274.758 370.797L275.611 370.015Z" fill="white"/>
<path d="M278.599 367.23L286.349 370.79L286.427 370.709L282.625 363.075L283.469 362.204L287.89 371.373L287.058 372.231L277.754 368.101L278.599 367.23Z" fill="white"/>
<path d="M292.57 366.292L285.224 360.181L288.912 355.747L289.701 356.404L286.753 359.948L289.235 362.013L291.992 358.698L292.781 359.355L290.024 362.669L292.52 364.746L295.517 361.145L296.306 361.801L292.57 366.292ZM285.994 357.738L285.058 355.478L285.881 354.488L286.614 356.992L285.994 357.738Z" fill="white"/>
<path d="M298.749 358.647L290.982 353.081L294.341 348.394L295.175 348.991L292.49 352.739L295.115 354.619L297.626 351.115L298.46 351.713L295.949 355.217L298.589 357.108L301.317 353.301L302.151 353.899L298.749 358.647Z" fill="white"/>
<path d="M162.623 208.907L197.977 304.903L234.75 215.402C235.923 212.545 234.199 209.326 231.171 208.721L223.511 207.189L221.946 205.624C219.892 203.57 220.061 200.191 222.309 198.352L223.511 197.368H271.956C274.811 197.368 276.929 200.015 276.302 202.8C275.699 205.481 273.608 207.577 270.928 208.186L263.853 209.794C260.864 210.473 258.364 212.508 257.093 215.296L199.451 341.731L195.031 354.006C190.967 359.341 183.039 359.623 178.606 354.591L178.091 354.006L127.21 219.162C124.805 212.788 119.27 208.116 112.583 206.815L109.637 206.243C107.33 205.794 105.664 203.773 105.664 201.423V201.051C105.664 198.339 107.862 196.141 110.574 196.141H172.377C174.598 196.141 176.552 197.609 177.169 199.743C178.065 202.836 176.145 206.039 172.995 206.707L162.623 208.907Z" fill="white"/>
<path d="M483.591 217.575V231.653H448.303V242.532H480.574V255.971H448.303V268.953H484.414V283.031H431.207V217.575H483.591ZM522.122 235.584V245.823H510.877V265.387C510.877 269.775 512.858 271.969 516.82 271.969C519.136 271.969 520.964 271.512 522.305 270.598L525.048 281.751C522.061 283.031 517.703 283.671 511.975 283.671C504.905 283.671 500.181 282.148 497.804 279.1C496.768 277.759 496.098 276.297 495.793 274.712C495.489 273.127 495.336 270.507 495.336 266.85V245.823H487.383V235.584H495.336V225.528L510.877 217.392V235.584H522.122ZM568.561 248.932H554.208C553.964 247.103 553.233 245.823 552.014 245.092C550.856 244.3 548.936 243.904 546.255 243.904C542.11 243.904 540.038 245.184 540.038 247.743C540.038 249.084 540.678 250.059 541.958 250.669C543.299 251.278 546.346 252.04 551.1 252.954C557.987 254.295 562.802 256.093 565.544 258.348C568.348 260.542 569.75 263.742 569.75 267.947C569.75 273.432 567.464 277.637 562.893 280.563C558.871 283.062 553.538 284.311 546.895 284.311C538.484 284.311 532.268 282.33 528.245 278.369C526.295 276.419 525.015 274.895 524.405 273.798C523.857 272.64 523.491 270.781 523.308 268.221H538.575C538.819 270.415 539.551 271.969 540.77 272.884C542.049 273.737 544.152 274.164 547.078 274.164C551.953 274.164 554.391 272.548 554.391 269.318C554.391 267.917 553.812 266.911 552.654 266.301C551.496 265.631 548.754 264.808 544.426 263.833C537.661 262.37 533.06 260.969 530.622 259.628C526.721 257.434 524.771 253.899 524.771 249.023C524.771 244.269 526.66 240.643 530.439 238.144C534.218 235.584 539.581 234.305 546.529 234.305C555.122 234.305 561.248 236.346 564.904 240.43C567.098 242.807 568.317 245.641 568.561 248.932ZM650.429 217.575L629.128 283.031H609.473L588.721 217.575H606.639L612.581 236.59C615.933 247.256 618.249 257.129 619.529 266.21C620.931 257.068 623.277 247.225 626.568 236.681L632.511 217.575H650.429ZM670.998 235.584V283.031H655.456V235.584H670.998ZM663.227 215.838C665.177 215.838 666.853 216.539 668.255 217.94C669.657 219.281 670.358 220.957 670.358 222.969C670.358 224.919 669.657 226.595 668.255 227.997C666.853 229.398 665.177 230.099 663.227 230.099C661.216 230.099 659.509 229.398 658.107 227.997C656.767 226.595 656.096 224.919 656.096 222.969C656.096 220.957 656.767 219.281 658.107 217.94C659.509 216.539 661.216 215.838 663.227 215.838ZM727.779 264.382C726.865 271.147 724.061 276.266 719.369 279.74C715.285 282.787 710.166 284.311 704.01 284.311C695.965 284.311 689.627 281.751 684.995 276.632C680.972 272.183 678.961 266.545 678.961 259.719C678.961 251.491 681.551 245.062 686.732 240.43C691.303 236.346 697.093 234.305 704.101 234.305C711.232 234.305 716.931 236.194 721.197 239.973C724.976 243.325 727.048 247.591 727.413 252.771H712.329C711.537 248.018 708.886 245.641 704.376 245.641C697.976 245.641 694.777 250.303 694.777 259.628C694.777 268.343 697.885 272.701 704.101 272.701C709.038 272.701 711.933 269.928 712.786 264.382H727.779ZM764.063 235.584V245.823H752.818V265.387C752.818 269.775 754.799 271.969 758.76 271.969C761.076 271.969 762.905 271.512 764.246 270.598L766.988 281.751C764.002 283.031 759.644 283.671 753.915 283.671C746.845 283.671 742.122 282.148 739.745 279.1C738.709 277.759 738.039 276.297 737.734 274.712C737.429 273.127 737.277 270.507 737.277 266.85V245.823H729.323V235.584H737.277V225.528L752.818 217.392V235.584H764.063ZM792.218 284.311C784.234 284.311 777.895 281.69 773.203 276.449C769.119 271.878 767.077 266.149 767.077 259.262C767.077 251.339 769.698 245.031 774.939 240.338C779.51 236.316 785.239 234.305 792.126 234.305C800.171 234.305 806.54 236.895 811.233 242.075C815.256 246.524 817.267 252.223 817.267 259.171C817.267 267.155 814.646 273.493 809.405 278.186C804.834 282.269 799.105 284.311 792.218 284.311ZM792.035 245.641C789.11 245.641 786.855 246.829 785.27 249.206C783.685 251.583 782.893 254.935 782.893 259.262C782.893 268.404 786.001 272.975 792.218 272.975C798.434 272.975 801.543 268.374 801.543 259.171C801.543 250.151 798.373 245.641 792.035 245.641ZM859.267 235.31L859.176 248.109C856.921 247.439 854.787 247.103 852.776 247.103C844.853 247.103 840.892 252.192 840.892 262.37V283.031H825.35V235.584H840.343V243.721C842.171 237.443 847.261 234.305 855.61 234.305C856.585 234.305 857.804 234.64 859.267 235.31ZM910.046 235.584L892.859 283.488C890.482 290.071 887.923 294.398 885.18 296.47C882.438 298.542 877.928 299.578 871.65 299.578C868.298 299.578 864.489 299.213 860.223 298.481L862.691 286.14C864.032 286.627 865.769 286.871 867.902 286.871C871.254 286.871 873.387 286.17 874.301 284.768C875.276 283.366 875.764 281.812 875.764 280.106C875.764 279.74 875.673 279.344 875.49 278.917L859.308 235.584H875.855L882.438 256.611C883.23 259.232 884.083 262.919 884.997 267.673C886.216 262.249 887.191 258.378 887.923 256.062L894.139 235.584H910.046ZM932.23 217.575H959.199C967.853 217.575 974.1 218.885 977.94 221.506C983.912 225.528 986.899 231.623 986.899 239.79C986.899 246.433 984.644 251.796 980.134 255.88C976.233 259.415 970.474 261.182 962.855 261.182H949.325V283.031H932.23V217.575ZM949.325 231.653V247.743H960.57C967.03 247.743 970.26 245.062 970.26 239.698C970.26 234.457 966.817 231.806 959.93 231.745L949.325 231.653ZM1028.63 235.31L1028.53 248.109C1026.28 247.439 1024.15 247.103 1022.13 247.103C1014.21 247.103 1010.25 252.192 1010.25 262.37V283.031H994.709V235.584H1009.7V243.721C1011.53 237.443 1016.62 234.305 1024.97 234.305C1025.94 234.305 1027.16 234.64 1028.63 235.31ZM1050.42 235.584V283.031H1034.88V235.584H1050.42ZM1042.65 215.838C1044.6 215.838 1046.28 216.539 1047.68 217.94C1049.08 219.281 1049.78 220.957 1049.78 222.969C1049.78 224.919 1049.08 226.595 1047.68 227.997C1046.28 229.398 1044.6 230.099 1042.65 230.099C1040.64 230.099 1038.94 229.398 1037.53 227.997C1036.19 226.595 1035.52 224.919 1035.52 222.969C1035.52 220.957 1036.19 219.281 1037.53 217.94C1038.94 216.539 1040.64 215.838 1042.65 215.838ZM1104.92 235.584L1089.2 283.031H1071.1L1055.01 235.584H1071.46L1076.31 252.04C1078.13 258.013 1079.45 263.711 1080.24 269.135C1080.91 264.808 1082.19 259.354 1084.08 252.771L1089.2 235.584H1104.92ZM1156.51 268.496C1155.78 271.299 1154.37 273.889 1152.3 276.266C1147.61 281.629 1141.12 284.311 1132.83 284.311C1125.33 284.311 1119.27 282.239 1114.64 278.095C1109.46 273.463 1106.87 267.338 1106.87 259.719C1106.87 251.735 1109.55 245.336 1114.91 240.521C1119.54 236.377 1125.3 234.305 1132.19 234.305C1140.54 234.305 1146.97 237.047 1151.48 242.532C1155.44 247.347 1157.42 253.655 1157.42 261.456C1157.42 262.005 1157.42 262.492 1157.42 262.919H1122.13C1122.25 266.332 1123.26 269.014 1125.15 270.964C1127.04 272.853 1129.6 273.798 1132.83 273.798C1136.79 273.798 1139.81 272.03 1141.88 268.496H1156.51ZM1142.15 254.051C1141.36 247.896 1138.1 244.818 1132.37 244.818C1126.58 244.818 1123.23 247.896 1122.32 254.051H1142.15ZM1149.83 215.838L1135.39 229.002H1125.52L1133.56 215.838H1149.83ZM1212.3 268.496C1211.57 271.299 1210.17 273.889 1208.1 276.266C1203.41 281.629 1196.92 284.311 1188.63 284.311C1181.13 284.311 1175.07 282.239 1170.43 278.095C1165.25 273.463 1162.66 267.338 1162.66 259.719C1162.66 251.735 1165.35 245.336 1170.71 240.521C1175.34 236.377 1181.1 234.305 1187.99 234.305C1196.34 234.305 1202.77 237.047 1207.28 242.532C1211.24 247.347 1213.22 253.655 1213.22 261.456C1213.22 262.005 1213.22 262.492 1213.22 262.919H1177.93C1178.05 266.332 1179.06 269.014 1180.95 270.964C1182.84 272.853 1185.4 273.798 1188.63 273.798C1192.59 273.798 1195.61 272.03 1197.68 268.496H1212.3ZM1197.95 254.051C1197.16 247.896 1193.9 244.818 1188.17 244.818C1182.38 244.818 1179.03 247.896 1178.11 254.051H1197.95Z" fill="white"/>
<circle cx="583.47" cy="279.071" r="5.08685" fill="white"/>
<path d="M818.274 139.424C817.459 140.468 816.682 140.736 815.943 140.226C815.204 139.717 814.567 139.462 814.032 139.462C813.522 139.462 812.617 139.551 811.318 139.729C810.044 139.908 809.165 140.162 808.681 140.494C808.196 140.825 807.929 141.194 807.878 141.602C807.852 142.01 807.942 142.303 808.145 142.481C808.349 142.634 808.961 142.749 809.98 142.825C811.025 142.902 812.044 143.271 813.038 143.934C814.032 144.571 814.783 145.361 815.293 146.303C815.803 147.246 816.159 148.329 816.363 149.552C816.567 150.775 816.669 151.909 816.669 152.954C816.669 153.973 816.096 155.744 814.949 158.267C813.828 160.764 812.605 162.904 811.28 164.688C809.98 166.497 808.579 168.357 807.075 170.268C805.572 172.18 803.775 173.989 801.686 175.696C799.622 177.429 797.431 179.034 795.112 180.512C792.768 181.99 790.5 183.136 788.308 183.952C786.117 184.793 784.499 185.366 783.454 185.672C782.384 186.003 780.817 186.385 778.753 186.818C776.689 187.252 773.784 187.659 770.038 188.041C766.293 188.424 762.381 188.513 758.304 188.309C754.227 188.131 751.195 187.889 749.208 187.583C747.195 187.303 745.182 186.997 743.169 186.666C741.156 186.36 739.143 185.837 737.13 185.098C735.117 184.359 733.295 183.57 731.664 182.729C730.033 181.888 728.683 181.085 727.612 180.321C726.542 179.582 725.345 178.715 724.02 177.722C722.669 176.753 721.115 175.212 719.357 173.097C717.598 170.982 716.592 169.695 716.337 169.236C716.082 168.803 715.827 168.064 715.573 167.02C715.292 166 715.394 165.045 715.878 164.153C716.337 163.287 717 163.197 717.866 163.885C718.732 164.599 719.318 165.274 719.624 165.911C719.93 166.574 720.758 167.835 722.108 169.695C723.434 171.555 725.612 173.479 728.644 175.467C731.677 177.454 734.594 178.996 737.397 180.091C740.175 181.213 743.385 182.015 747.029 182.499C750.673 183.009 753.552 183.34 755.667 183.493C757.757 183.671 760.292 183.748 763.273 183.722C766.229 183.697 769.401 183.506 772.79 183.149C776.179 182.792 779.403 182.168 782.46 181.276C785.493 180.384 788.054 179.34 790.143 178.142C792.232 176.97 794.284 175.607 796.297 174.052C798.284 172.523 799.775 171.237 800.769 170.192C801.788 169.173 803.1 167.733 804.705 165.873C806.311 164.038 807.508 162.446 808.298 161.095C809.088 159.77 809.725 158.598 810.209 157.579C810.719 156.534 811.101 155.54 811.356 154.598C811.611 153.629 811.573 152.661 811.241 151.693C810.91 150.724 810.26 150.011 809.292 149.552C808.349 149.068 807.19 148.813 805.814 148.788C804.463 148.737 803.533 148.584 803.024 148.329C802.514 148.074 802.132 147.667 801.877 147.106C801.648 146.52 801.533 145.781 801.533 144.889C801.533 143.972 801.864 142.711 802.527 141.105C803.215 139.475 803.75 138.392 804.132 137.856C804.54 137.296 804.935 136.837 805.317 136.48C805.699 136.098 806.196 135.627 806.808 135.066C807.445 134.506 808.082 134.009 808.719 133.576C809.356 133.142 810.146 132.811 811.089 132.582C812.031 132.353 813.127 132.161 814.376 132.009C815.65 131.83 816.822 131.996 817.892 132.505C818.988 132.99 819.536 133.792 819.536 134.913C819.536 136.009 819.536 136.774 819.536 137.207C819.536 137.64 819.115 138.379 818.274 139.424ZM774.09 189.914C774.421 189.914 774.905 189.914 775.542 189.914C776.154 189.914 776.791 190.258 777.453 190.946C778.09 191.66 778.396 192.233 778.371 192.666C778.32 193.125 778.269 193.596 778.218 194.081C778.167 194.565 777.848 195.049 777.262 195.533C776.676 196.017 776.077 196.259 775.466 196.259C774.854 196.285 774.256 196.297 773.67 196.297C773.083 196.297 772.434 195.966 771.72 195.304C770.981 194.667 770.637 194.182 770.688 193.851C770.714 193.52 770.752 193.15 770.803 192.743C770.828 192.335 771.3 191.762 772.217 191.023C773.109 190.309 773.733 189.94 774.09 189.914ZM784.792 189.532C785.047 189.456 785.467 189.417 786.053 189.417C786.639 189.417 787.391 189.672 788.308 190.182C789.2 190.717 789.621 191.29 789.57 191.902C789.519 192.513 789.481 193.036 789.455 193.469C789.404 193.902 789.111 194.386 788.576 194.921C788.041 195.482 787.429 195.762 786.741 195.762C786.053 195.762 785.429 195.762 784.868 195.762C784.282 195.762 783.633 195.444 782.919 194.807C782.18 194.195 781.836 193.711 781.887 193.354C781.913 193.023 781.964 192.501 782.04 191.787C782.091 191.074 782.499 190.539 783.263 190.182C784.028 189.825 784.537 189.609 784.792 189.532ZM838.837 159.872C838.761 160.611 838.621 161.72 838.417 163.197C838.239 164.675 837.818 166.102 837.156 167.478C836.519 168.854 835.907 170.065 835.321 171.109C834.76 172.18 834.123 173.237 833.41 174.282C832.696 175.352 831.957 176.409 831.193 177.454C830.454 178.524 829.333 179.824 827.83 181.353C826.326 182.907 824.925 184.054 823.625 184.793C822.326 185.532 821.23 186.13 820.338 186.589C819.421 187.073 817.905 187.672 815.79 188.385C813.675 189.099 812.554 189.507 812.426 189.609C812.273 189.736 810.987 189.953 808.566 190.258C806.12 190.59 804.056 190.73 802.374 190.679C800.692 190.653 799.405 190.59 798.514 190.488C797.622 190.411 796.182 190.131 794.194 189.647C792.181 189.163 789.926 188.487 787.429 187.621C784.932 186.755 783.352 185.799 782.69 184.754C782.002 183.735 781.696 182.92 781.772 182.308C781.823 181.722 782.129 181.34 782.69 181.162C783.225 180.983 783.824 180.92 784.486 180.97C785.149 181.047 786.181 181.467 787.582 182.232C788.984 183.022 790.168 183.557 791.137 183.837C792.08 184.143 793.175 184.385 794.424 184.563C795.672 184.767 797.265 184.971 799.202 185.175C801.113 185.404 802.909 185.455 804.591 185.328C806.247 185.226 807.801 185.06 809.254 184.831C810.681 184.627 812.286 184.13 814.07 183.34C815.853 182.576 817.242 181.939 818.236 181.429C819.23 180.945 820.466 180.13 821.943 178.983C823.396 177.862 824.619 176.792 825.613 175.772C826.632 174.779 827.537 173.785 828.326 172.791C829.116 171.797 829.741 170.918 830.199 170.154C830.658 169.389 831.015 168.689 831.27 168.052C831.55 167.44 831.856 166.625 832.187 165.605C832.518 164.586 832.773 163.733 832.951 163.045C833.155 162.357 833.283 161.452 833.333 160.331C833.384 159.235 833.117 158.216 832.531 157.273C831.97 156.33 831.524 155.298 831.193 154.177C830.887 153.056 830.785 152.062 830.887 151.196C830.989 150.329 831.18 149.641 831.461 149.132C831.741 148.622 831.957 147.985 832.11 147.221C832.263 146.456 832.569 145.756 833.028 145.119C833.486 144.482 833.971 144.099 834.48 143.972C835.015 143.845 835.448 143.921 835.78 144.201C836.111 144.482 836.238 144.966 836.162 145.654C836.111 146.342 836.226 147.106 836.506 147.947C836.812 148.762 837.207 149.412 837.691 149.896C838.175 150.355 838.506 151.96 838.685 154.712C838.863 157.439 838.914 159.159 838.837 159.872ZM857.184 144.966C856.496 145.552 856.088 146.087 855.961 146.571C855.859 147.055 855.808 147.577 855.808 148.138C855.833 148.699 855.986 149.157 856.267 149.514C856.547 149.871 857.171 150.266 858.139 150.699C859.108 151.132 860.216 151.387 861.465 151.463C861.541 150.419 861.567 149.336 861.541 148.215C861.541 147.093 861.363 146.24 861.006 145.654C860.675 145.068 860.127 144.66 859.362 144.431C858.598 144.201 857.872 144.38 857.184 144.966ZM858.407 137.13C860.777 136.723 863.159 137.411 865.554 139.194C867.975 140.952 869.033 145.042 868.727 151.463C869.211 151.463 869.835 151.438 870.6 151.387V159.031C869.453 159.184 868.446 159.286 867.58 159.337C865.949 165.147 864.038 169.631 861.847 172.791C859.655 175.976 856.725 178.754 853.056 181.123C849.387 183.493 845.819 185.098 842.354 185.939C838.914 186.806 835.601 187.341 832.416 187.545C829.206 187.748 826.186 187.697 823.358 187.392C820.529 187.111 817.268 186.347 813.573 185.098C809.853 183.875 806.706 182.283 804.132 180.321C801.559 178.359 800.068 176.626 799.66 175.123C799.253 173.645 799.214 172.587 799.546 171.95C799.851 171.339 800.246 171.046 800.73 171.071C801.215 171.097 802.157 171.886 803.559 173.441C804.96 175.021 806.464 176.307 808.069 177.301C809.649 178.32 811.624 179.289 813.993 180.206C816.338 181.149 819.09 181.875 822.249 182.385C825.383 182.894 829.32 182.933 834.06 182.499C838.799 182.092 842.838 180.932 846.176 179.021C849.514 177.11 851.973 175.339 853.553 173.708C855.133 172.103 856.407 170.358 857.375 168.472C858.343 166.586 859.49 163.376 860.815 158.84C859.286 158.56 857.974 158.292 856.878 158.037C855.782 157.757 854.636 157.349 853.438 156.814C852.266 156.279 851.209 155.247 850.266 153.718C849.348 152.164 849.004 150.228 849.234 147.909C849.463 145.564 850.457 143.284 852.215 141.067C853.973 138.825 856.037 137.512 858.407 137.13ZM889.672 122.3C891.966 122.402 893.112 123.447 893.112 125.434V125.549C893.01 128.327 891.405 130.136 888.296 130.977C884.576 130.187 882.716 128.798 882.716 126.81V126.199C883.48 124.441 884.423 123.434 885.544 123.179H885.659C886.704 123.179 888.041 122.886 889.672 122.3ZM874.919 124.058C877.085 124.135 878.601 124.823 879.467 126.122L879.964 127.078V128.416C879.403 129.46 878.461 130.212 877.136 130.671L874.613 131.206H874.345C873.097 131.155 871.861 130.403 870.638 128.951L870.753 126.658C872.179 125.052 873.543 124.25 874.842 124.25H874.919V124.058ZM885.697 141.488H886.462C887.506 141.488 888.067 141.87 888.143 142.634C888.245 143.373 888.041 144.392 887.532 145.692C888.373 147.96 889.698 149.514 891.507 150.355C892.857 151.043 894.284 151.387 895.788 151.387V159.031L895.062 158.993C890.118 158.917 886.602 157.477 884.512 154.674C883.85 153.986 883.175 152.788 882.487 151.081H882.334C882.028 151.107 879.989 152.852 876.218 156.318C873.492 158.127 871.224 159.031 869.415 159.031V151.387C871.988 151.285 875.072 149.285 878.664 145.386C881.926 142.762 884.27 141.462 885.697 141.488ZM926.556 104.642C927.219 104.565 928.416 104.833 930.149 105.444C931.907 106.031 933.028 107.063 933.512 108.54C933.997 109.993 934.239 110.974 934.239 111.484C934.239 111.968 934.035 113.012 933.627 114.618C933.219 116.223 932.799 117.026 932.366 117.026C931.958 117.026 931.678 117.026 931.525 117.026C931.372 117.026 931.219 117.013 931.066 116.987C930.913 116.936 930.569 116.299 930.034 115.076C929.525 113.853 928.888 113.038 928.123 112.63C927.384 112.197 926.9 111.98 926.671 111.98C926.467 111.98 926.212 111.98 925.906 111.98C925.601 111.98 924.811 112.171 923.537 112.554C922.288 112.91 921.09 113.471 919.944 114.235C918.823 114.974 916.682 116.911 913.523 120.045C910.388 123.179 908.172 125.536 906.872 127.116C905.598 128.671 904.693 130.174 904.158 131.626C903.649 133.053 903.394 133.907 903.394 134.187C903.394 134.467 903.458 134.735 903.585 134.99C903.738 135.245 904.069 135.55 904.579 135.907C905.088 136.264 906.222 136.659 907.98 137.092C909.764 137.525 911.675 137.793 913.714 137.895C915.752 137.997 918.479 138.073 921.893 138.124C925.308 138.149 928.48 138.124 931.41 138.048C934.341 137.971 936.29 137.869 937.258 137.742C938.226 137.614 939.195 137.729 940.163 138.086C941.157 138.417 942.431 139.322 943.985 140.8C945.565 142.252 946.559 143.258 946.967 143.819C947.4 144.354 947.935 145.361 948.572 146.839C949.209 148.316 949.527 149.348 949.527 149.934C949.527 150.495 951.923 150.903 956.713 151.158V159.146C955.923 159.171 955.171 159.159 954.458 159.108C953.77 159.082 953.146 159.069 952.585 159.069C952.05 159.095 951.591 159.069 951.209 158.993C950.827 158.917 949.922 159.363 948.495 160.331C947.068 161.325 945.45 161.821 943.641 161.821C941.858 161.821 940.469 161.669 939.475 161.363C938.507 161.082 937.984 160.802 937.908 160.522C937.857 160.267 937.793 160.038 937.717 159.834C937.64 159.63 937.424 159.413 937.067 159.184C936.71 158.98 934.57 158.917 930.646 158.993C926.722 159.069 924.352 159.069 923.537 158.993C922.721 158.917 919.409 158.955 913.599 159.108C907.789 159.261 901.61 159.235 895.061 159.031V151.387C899.597 151.31 902.476 151.323 903.7 151.425C904.923 151.502 906.49 151.514 908.401 151.463C910.312 151.387 911.803 151.349 912.873 151.349C913.968 151.349 917.867 151.247 924.569 151.043C931.27 150.814 935.564 150.648 937.449 150.546C939.36 150.419 940.533 150.304 940.966 150.202C941.424 150.1 941.692 149.884 941.768 149.552C941.845 149.221 941.437 148.469 940.545 147.297C939.679 146.1 938.889 145.501 938.176 145.501C937.488 145.501 936.723 145.463 935.882 145.386C935.067 145.31 930.429 145.31 921.97 145.386C913.51 145.463 908.35 145.259 906.49 144.775C904.63 144.265 902.935 143.857 901.406 143.551C899.903 143.246 899.215 141.87 899.342 139.424C899.47 136.952 899.801 134.62 900.336 132.429C900.897 130.212 901.661 128.314 902.629 126.734C903.598 125.154 904.49 123.842 905.305 122.797C906.146 121.727 906.897 120.708 907.56 119.739C908.248 118.771 909.28 117.497 910.656 115.917C912.057 114.337 913.166 113.153 913.981 112.363C914.822 111.547 916.02 110.477 917.574 109.152C919.128 107.801 920.275 106.935 921.014 106.553C921.753 106.145 922.25 105.89 922.505 105.788C922.785 105.687 923.358 105.495 924.225 105.215C925.116 104.909 925.894 104.718 926.556 104.642ZM962.255 164.879C964.829 164.879 966.561 166.128 967.453 168.625V169.542C967.453 171.224 965.466 172.422 961.491 173.135H960.726C959.478 173.135 958.102 172.281 956.598 170.574V168.472C956.598 167.453 957.923 166.357 960.573 165.185L962.255 164.879ZM976.932 164.879H978.003C979.812 164.879 980.984 165.325 981.519 166.217L982.13 168.778C982.13 170.995 980.194 172.447 976.321 173.135C974.69 173.135 973.11 172.383 971.581 170.88L971.123 168.625C972.448 166.128 974.384 164.879 976.932 164.879ZM971.849 141.488H972.613C973.658 141.488 974.219 141.87 974.295 142.634C974.397 143.373 974.193 144.392 973.683 145.692C974.524 147.96 975.849 149.514 977.659 150.355C979.009 151.043 980.436 151.387 981.939 151.387V159.031L981.213 158.993C976.27 158.917 972.753 157.477 970.664 154.674C970.001 153.986 969.326 152.788 968.638 151.081H968.485C968.18 151.107 966.141 152.852 962.37 156.318C959.643 158.127 957.376 159.031 955.566 159.031V151.387C958.14 151.285 961.223 149.285 964.816 145.386C968.078 142.762 970.422 141.462 971.849 141.488ZM985.647 111.56C985.647 111.025 985.647 110.541 985.647 110.108C985.647 109.674 986.054 109.05 986.87 108.235C987.685 107.419 988.411 107.012 989.048 107.012C989.711 107.012 990.374 107.012 991.036 107.012C991.724 107.012 992.348 107.33 992.909 107.967C993.495 108.579 993.788 109.203 993.788 109.84C993.788 110.452 993.788 111.038 993.788 111.598C993.788 112.133 993.406 112.859 992.641 113.777C991.902 114.694 991.176 115.153 990.463 115.153C989.775 115.153 989.24 115.153 988.857 115.153C988.501 115.153 987.876 114.681 986.985 113.739C986.093 112.796 985.647 112.07 985.647 111.56ZM982.092 151.387L984.691 151.349C987.8 151.119 989.979 150.775 991.227 150.317C992.501 149.858 993.546 149.272 994.361 148.559C995.177 147.845 995.852 146.826 996.387 145.501C996.922 144.176 997.279 143.093 997.457 142.252C997.636 141.411 997.661 140.264 997.534 138.812C996.081 139.908 994.476 140.532 992.718 140.685C990.96 140.838 989.176 140.749 987.367 140.417C985.558 140.086 984.22 139.016 983.353 137.207C982.487 135.372 982.156 133.435 982.36 131.397C982.589 129.359 982.971 127.791 983.506 126.696C984.041 125.6 984.768 124.415 985.685 123.141C986.628 121.867 987.864 120.937 989.392 120.351C990.947 119.765 992.425 119.586 993.826 119.816C995.228 120.045 996.336 120.491 997.151 121.154C997.992 121.791 998.846 122.619 999.712 123.638C1000.6 124.657 1001.3 126.059 1001.81 127.842C1002.32 129.626 1002.76 131.575 1003.11 133.69C1003.47 135.805 1003.55 138.519 1003.34 141.832C1003.17 145.119 1002.59 147.705 1001.62 149.59C1000.66 151.451 999.266 153.132 997.457 154.636C995.674 156.114 994.017 157.069 992.488 157.502C990.96 157.91 989.418 158.254 987.864 158.534C986.335 158.789 984.411 158.968 982.092 159.069V151.387ZM989.584 129.218C989.38 129.575 989.189 129.97 989.01 130.403C988.857 130.836 988.743 131.219 988.666 131.55C988.59 131.881 988.564 132.391 988.59 133.079C988.641 133.741 988.794 134.162 989.048 134.34C989.329 134.518 990.157 134.646 991.533 134.722C992.909 134.773 993.966 134.544 994.705 134.034C995.444 133.499 995.712 132.798 995.508 131.932C995.33 131.04 995.088 130.289 994.782 129.677C994.501 129.065 994.157 128.543 993.75 128.11C993.368 127.677 992.832 127.447 992.144 127.422C991.456 127.396 990.909 127.6 990.501 128.033C990.119 128.441 989.813 128.836 989.584 129.218Z" fill="white"/>
<path d="M482.007 117.094C484.199 117.12 486.135 117.426 487.817 118.012C489.499 118.572 491.525 119.566 493.894 120.993C496.264 122.394 498.672 124.369 501.118 126.917C503.564 129.44 505.233 131.504 506.125 133.109C507.017 134.689 507.654 135.899 508.036 136.74C508.419 137.556 509.03 139.084 509.871 141.327C510.712 143.544 511.221 145.213 511.4 146.334C511.578 147.43 511.667 148.653 511.667 150.003C511.667 151.354 511.464 152.653 511.056 153.902C510.674 155.15 510.088 156.08 509.298 156.692C508.508 157.278 507.743 157.788 507.004 158.221C506.291 158.628 505.106 158.871 503.45 158.947C501.793 159.023 500.583 158.705 499.819 157.991C499.054 157.253 497.615 156.959 495.5 157.112C493.41 157.265 489.32 157.596 483.23 158.106C477.14 158.59 472.949 158.832 470.656 158.832C468.362 158.832 466.515 158.883 465.113 158.985C464.247 161.38 463.406 163.368 462.591 164.948C461.775 166.553 460.794 168.095 459.648 169.573C458.527 171.051 457.495 172.376 456.552 173.548C455.634 174.745 454.539 175.968 453.265 177.217C452.016 178.466 450.78 179.612 449.557 180.657C448.334 181.702 446.283 183.141 443.403 184.976C440.524 186.811 438.065 188.161 436.027 189.027C433.988 189.919 432.256 190.684 430.829 191.321C429.376 191.958 427.873 192.518 426.318 193.002C424.764 193.487 422.815 194.034 420.47 194.646C418.126 195.283 415.731 195.793 413.285 196.175C410.839 196.557 408.915 196.799 407.513 196.901C406.112 197.003 403.87 197.003 400.786 196.901C397.703 196.799 395.677 196.659 394.709 196.481C393.715 196.302 392.403 196.086 390.772 195.831C389.116 195.602 387.192 195.105 385.001 194.34C382.784 193.576 380.962 192.811 379.535 192.047C378.083 191.308 376.388 190.429 374.452 189.41C372.49 188.39 369.954 186.53 366.846 183.829C363.711 181.154 361.252 178.631 359.469 176.261C357.685 173.892 356.118 171.598 354.767 169.382C353.417 167.19 352.602 165.687 352.321 164.871C352.041 164.081 351.888 163.279 351.863 162.463C351.812 161.648 352.143 161.151 352.856 160.973C353.57 160.82 353.939 160.743 353.965 160.743C353.99 160.743 354.207 160.807 354.615 160.935C355.022 161.087 355.698 161.979 356.64 163.61C357.583 165.266 358.246 166.387 358.628 166.974C359.01 167.56 359.673 168.502 360.615 169.802C361.558 171.127 362.386 172.312 363.1 173.357C363.813 174.427 364.361 175.115 364.743 175.421C365.1 175.752 365.852 176.478 366.998 177.599C368.145 178.72 369.878 180.173 372.197 181.956C374.515 183.766 377.191 185.371 380.223 186.772C383.255 188.199 385.702 189.155 387.562 189.639C389.396 190.149 390.772 190.48 391.69 190.633C392.581 190.786 394.314 190.989 396.888 191.244C399.436 191.525 401.347 191.665 402.621 191.665C403.895 191.665 405.271 191.614 406.749 191.512C408.201 191.41 410.061 191.193 412.329 190.862C414.572 190.556 417.171 189.983 420.127 189.142C423.082 188.301 425.414 187.588 427.121 187.002C428.803 186.416 430.79 185.575 433.084 184.479C435.377 183.383 438.549 181.523 442.601 178.899C446.652 176.274 449.888 173.509 452.309 170.605C454.755 167.7 456.093 165.203 456.322 163.113C456.577 161.024 456.45 159.673 455.94 159.062C455.456 158.45 454.551 157.928 453.226 157.495C451.901 157.036 450.678 156.437 449.557 155.698C448.461 154.934 447.799 153.914 447.57 152.64C447.34 151.341 447.366 149.863 447.646 148.207C447.926 146.525 448.589 144.69 449.634 142.703C450.704 140.69 451.978 138.817 453.456 137.084C454.959 135.326 456.908 133.237 459.304 130.816C461.724 128.395 463.929 126.369 465.916 124.739C467.929 123.082 469.738 121.757 471.344 120.764C472.949 119.77 474.58 118.903 476.236 118.164C477.892 117.4 479.816 117.043 482.007 117.094ZM453.112 146.219C452.882 148.054 453.443 148.971 454.794 148.971C456.144 148.971 458.106 148.856 460.68 148.627C463.253 148.372 464.846 148.946 465.457 150.347C479.497 149.939 488.378 149.29 492.098 148.398C495.844 147.506 498.634 147.149 500.468 147.328C502.303 147.506 503.182 147.022 503.106 145.875C503.055 144.729 502.43 142.626 501.233 139.569C500.035 136.485 497.895 133.657 494.812 131.083C491.728 128.484 489.066 126.803 486.823 126.038C484.606 125.274 482.734 124.879 481.205 124.853C479.701 124.802 478.045 125.108 476.236 125.771C474.452 126.433 472.516 127.389 470.426 128.637C468.337 129.86 464.986 132.638 460.374 136.97C455.762 141.276 453.341 144.359 453.112 146.219ZM514.114 104.71C514.572 104.558 515.196 104.723 515.986 105.207C516.802 105.691 517.311 106.099 517.515 106.43C517.745 106.736 517.961 107.055 518.165 107.386C518.394 107.717 518.56 108.163 518.662 108.724C518.764 109.284 518.853 109.603 518.929 109.679C519.031 109.756 519.35 110.507 519.885 111.934C520.42 113.336 520.904 115.362 521.337 118.012C521.796 120.662 522.064 122.534 522.14 123.63C522.242 124.7 522.331 125.618 522.408 126.382C522.51 127.121 522.599 128.038 522.675 129.134C522.777 130.204 522.777 132.205 522.675 135.135C522.599 138.04 522.586 139.913 522.637 140.753C522.713 141.594 522.777 142.422 522.828 143.238C522.905 144.028 523.274 144.945 523.937 145.99C524.599 147.035 525.249 147.914 525.886 148.627C526.523 149.341 527.988 149.99 530.281 150.576C532.6 151.163 534.295 151.456 535.365 151.456L535.403 159.062C534.69 159.062 533.505 159.062 531.848 159.062C530.192 159.062 528.141 158.284 525.695 156.73C523.249 155.15 521.834 154.36 521.452 154.36C521.095 154.36 520.382 154.743 519.312 155.507C518.267 156.246 517.515 156.654 517.057 156.73C516.623 156.781 516.025 156.807 515.26 156.807C514.521 156.807 514.037 156.539 513.808 156.004C513.578 155.469 513.502 154.488 513.578 153.061C513.68 151.634 513.859 150.513 514.114 149.697C514.394 148.882 515.158 147.697 516.407 146.143C517.655 144.563 518.28 143.671 518.28 143.467C518.28 143.263 518.229 142.958 518.127 142.55C518.05 142.142 518.101 141.238 518.28 139.836C518.458 138.409 518.369 135.823 518.012 132.077C517.655 128.331 517.452 126.229 517.401 125.771C517.35 125.312 517.031 124.204 516.445 122.445C515.884 120.662 515.286 119.222 514.649 118.126C514.037 117.031 513.234 116.037 512.241 115.145C511.272 114.228 510.788 113.374 510.788 112.584C510.788 111.794 510.788 111.004 510.788 110.214C510.788 109.399 511.234 108.316 512.126 106.966C513.018 105.59 513.68 104.838 514.114 104.71ZM548.972 113.96C549.965 114.954 550.462 116.139 550.462 117.515C550.462 118.865 549.965 120.037 548.972 121.031C547.978 122.025 546.78 122.522 545.379 122.522C543.926 122.522 542.703 122.025 541.71 121.031C540.716 120.037 540.219 118.865 540.219 117.515C540.219 116.139 540.716 114.954 541.71 113.96C542.703 112.966 543.926 112.469 545.379 112.469C546.78 112.469 547.978 112.966 548.972 113.96ZM566.859 105.704C567.293 105.424 568.006 105.284 569 105.284C570.019 105.284 571.153 106.035 572.402 107.539C573.676 109.042 574.567 110.265 575.077 111.208C575.587 112.125 576.045 113.196 576.453 114.419C576.861 115.616 577.065 116.763 577.065 117.859C577.065 118.929 576.861 120.878 576.453 123.707C576.071 126.535 575.778 128.306 575.574 129.019C575.396 129.707 575.103 130.548 574.695 131.542C574.287 132.51 573.892 133.313 573.51 133.95C573.128 134.587 572.07 135.81 570.338 137.619C568.605 139.403 567.076 140.652 565.751 141.365C564.451 142.079 563.394 142.435 562.579 142.435C561.789 142.435 560.069 142.435 557.419 142.435C554.769 142.435 552.96 141.441 551.991 139.454C551.048 137.441 550.475 136.154 550.271 135.594C550.093 135.007 549.787 134.714 549.354 134.714C548.921 134.714 548.411 134.714 547.825 134.714C547.264 134.714 546.487 134.982 545.494 135.517C544.525 136.027 544.041 136.345 544.041 136.473C544.041 136.6 543.926 136.778 543.697 137.008C543.493 137.212 543.213 137.849 542.856 138.919C542.5 139.989 542.321 140.741 542.321 141.174C542.321 141.607 542.5 142.486 542.856 143.811C543.238 145.111 543.735 145.964 544.347 146.372C544.984 146.78 545.787 147.34 546.755 148.054C547.749 148.742 549.621 149.277 552.373 149.659C555.151 150.016 556.603 150.156 556.731 150.08C556.884 150.003 557.1 150.003 557.38 150.08C557.661 150.156 558.005 150.194 558.412 150.194C558.846 150.194 559.801 150.194 561.279 150.194C562.757 150.194 564.197 150.194 565.598 150.194C567.025 150.194 567.777 150.194 567.853 150.194C567.93 150.194 568.274 150.156 568.885 150.08C569.522 150.003 570.516 149.965 571.866 149.965C573.217 149.965 574.032 150.003 574.313 150.08C574.593 150.156 575.192 150.118 576.109 149.965C577.026 149.812 577.778 149.736 578.364 149.736C578.976 149.736 579.651 150.678 580.39 152.564C581.129 154.424 581.498 155.418 581.498 155.545C581.498 155.673 581.307 156.679 580.925 158.565C580.543 160.425 579.944 161.355 579.129 161.355C578.313 161.355 577.549 161.355 576.835 161.355C576.122 161.355 575.447 161.062 574.81 160.476C574.198 159.915 573.039 159.559 571.331 159.406C569.65 159.278 568.172 159.215 566.898 159.215C565.624 159.215 564.732 159.189 564.222 159.138C563.738 159.087 563.076 159.087 562.235 159.138C561.394 159.189 559.215 159.176 555.699 159.1C552.208 159.023 548.437 158.985 544.385 158.985C540.334 158.985 538.27 158.985 538.193 158.985C538.142 158.985 537.276 159.023 535.594 159.1L534.295 158.985L534.409 151.379C535.378 151.43 536.269 151.468 537.085 151.494C537.926 151.519 538.575 151.481 539.034 151.379C539.518 151.252 539.722 150.946 539.646 150.462C539.595 149.978 539.429 149.239 539.149 148.245C538.868 147.251 538.728 146.321 538.728 145.455C538.728 144.588 538.767 144.13 538.843 144.079C538.919 144.002 538.919 143.926 538.843 143.849C538.767 143.773 538.728 143.416 538.728 142.779C538.728 142.142 538.868 141.289 539.149 140.218C539.429 139.123 539.671 138.295 539.875 137.734C540.104 137.148 540.639 135.823 541.48 133.759C542.321 131.695 543.417 130.268 544.767 129.478C546.118 128.663 547.15 128.013 547.863 127.529C548.602 127.019 549.201 126.764 549.66 126.764C550.144 126.764 550.526 126.764 550.806 126.764C551.087 126.764 551.533 126.764 552.144 126.764C552.756 126.764 553.418 127.631 554.132 129.363C554.871 131.071 555.635 132.396 556.425 133.338C557.24 134.256 558.514 134.714 560.247 134.714C562.005 134.714 563.483 134.714 564.681 134.714C565.904 134.714 567.038 134.218 568.083 133.224C569.127 132.205 570.21 131.058 571.331 129.784C572.478 128.51 573.128 127.478 573.281 126.688C573.459 125.898 573.535 125.108 573.51 124.318C573.485 123.503 573.179 121.923 572.593 119.579C572.032 117.234 571.331 115.807 570.491 115.298C569.65 114.763 569.013 114.291 568.579 113.884C568.146 113.45 567.471 113.234 566.554 113.234C565.662 113.234 565.139 113.017 564.987 112.584C564.834 112.151 564.757 111.692 564.757 111.208C564.757 110.699 564.757 110.125 564.757 109.488C564.757 108.851 564.999 108.138 565.483 107.348C565.993 106.532 566.452 105.985 566.859 105.704ZM587.346 105.207C588.187 105.207 589.346 105.717 590.824 106.736C592.302 107.755 593.041 109.144 593.041 110.902C593.041 112.635 593.041 113.794 593.041 114.381C593.041 114.941 593.079 115.578 593.156 116.292C593.258 117.005 593.309 117.973 593.309 119.196C593.309 120.42 593.309 121.286 593.309 121.796C593.309 122.305 593.322 122.815 593.347 123.324C593.398 123.809 593.436 124.318 593.462 124.853C593.513 125.388 593.551 126.497 593.576 128.179C593.602 129.835 593.602 132.179 593.576 135.211C593.551 138.218 593.576 140.244 593.653 141.289C593.755 142.308 593.806 143.11 593.806 143.697C593.806 144.283 593.92 145.162 594.15 146.334C594.404 147.506 595.029 148.895 596.023 150.5C597.016 152.08 597.551 153.163 597.628 153.749C597.704 154.309 597.743 154.781 597.743 155.163C597.743 155.545 597.628 156.284 597.399 157.38C597.169 158.476 596.507 159.023 595.411 159.023C594.341 159.023 592.978 158.628 591.321 157.839C589.665 157.049 588.837 156.373 588.837 155.813C588.837 155.252 588.837 154.653 588.837 154.016C588.837 153.379 588.837 152.806 588.837 152.296C588.837 151.761 589.002 151.01 589.334 150.041C589.665 149.073 589.767 146.843 589.64 143.353C589.538 139.862 589.474 137.505 589.448 136.282C589.448 135.033 589.448 134.052 589.448 133.338C589.474 132.625 589.461 131.873 589.41 131.083C589.359 130.293 589.334 128.484 589.334 125.656C589.334 122.828 589.219 120.649 588.99 119.12C588.786 117.566 588.34 116.559 587.652 116.101C586.964 115.642 586.251 114.826 585.512 113.654C584.773 112.482 584.403 111.718 584.403 111.361C584.403 110.979 584.683 109.858 585.244 107.998C585.805 106.137 586.505 105.207 587.346 105.207ZM630.499 148.78C630.014 149.392 629.734 149.965 629.658 150.5C629.607 151.01 629.76 151.57 630.116 152.182C630.473 152.793 630.97 153.29 631.607 153.672C632.244 154.055 633.289 154.042 634.741 153.634C636.194 153.226 636.945 152.87 636.996 152.564C637.047 152.258 637.06 151.838 637.034 151.303C637.034 150.768 636.92 150.181 636.69 149.544C636.487 148.907 636.143 148.232 635.658 147.519C635.174 146.805 634.308 146.691 633.059 147.175C631.836 147.633 630.983 148.168 630.499 148.78ZM614.101 169.038C614.101 167.662 614.063 165.598 613.987 162.846C613.885 160.119 614.089 157.673 614.598 155.507C615.082 153.316 615.758 151.608 616.624 150.385C617.465 149.137 618.395 148.079 619.414 147.213C620.459 146.321 621.644 145.557 622.969 144.92C624.294 144.257 625.441 143.837 626.409 143.658C627.377 143.454 628.651 142.932 630.231 142.091C631.836 141.25 633.021 140.664 633.786 140.333C634.55 140.002 635.697 140.104 637.226 140.639C638.78 141.174 639.761 142.053 640.169 143.276C640.602 144.499 641.239 145.735 642.08 146.984C642.921 148.207 643.354 149.404 643.379 150.576C644.22 151.137 645.991 151.405 648.692 151.379V159.062C644.895 159.138 642.309 158.654 640.933 157.609C638.334 159.342 636.079 160.221 634.168 160.247C632.257 160.297 631.225 160.323 631.072 160.323C630.944 160.323 630.244 160.03 628.97 159.444C627.721 158.883 626.651 157.915 625.759 156.539C624.893 155.138 624.409 153.876 624.307 152.755C624.23 151.608 623.848 151.15 623.16 151.379C622.497 151.608 621.809 152.347 621.096 153.596C620.383 154.845 619.924 156.259 619.72 157.839C619.516 159.418 619.427 161.482 619.452 164.03C619.503 166.604 619.414 169.891 619.185 173.892C618.956 177.918 618.51 181.396 617.847 184.326C617.185 187.282 615.07 190.403 611.502 193.69C607.91 196.978 603.96 198.545 599.654 198.392C595.347 198.264 592.149 197.653 590.06 196.557C587.971 195.487 586.99 194.391 587.117 193.27C587.219 192.149 589.155 191.958 592.927 192.697C596.672 193.461 599.896 193.474 602.597 192.735C605.272 192.021 607.604 190.544 609.591 188.301C611.553 186.084 612.738 183.74 613.146 181.268C613.528 178.797 613.783 176.491 613.91 174.35C614.012 172.21 614.076 170.439 614.101 169.038ZM654.158 164.871C656.731 164.871 658.464 166.12 659.356 168.617V169.534C659.356 171.216 657.368 172.414 653.393 173.127H652.629C651.38 173.127 650.004 172.274 648.501 170.566V168.464C648.501 167.445 649.826 166.349 652.476 165.177L654.158 164.871ZM668.835 164.871H669.905C671.714 164.871 672.886 165.317 673.421 166.209L674.033 168.77C674.033 170.987 672.096 172.439 668.223 173.127C666.592 173.127 665.013 172.376 663.484 170.872L663.025 168.617C664.35 166.12 666.287 164.871 668.835 164.871ZM663.751 141.48H664.516C665.56 141.48 666.121 141.862 666.198 142.626C666.299 143.365 666.096 144.385 665.586 145.684C666.427 147.952 667.752 149.506 669.561 150.347C670.912 151.035 672.338 151.379 673.842 151.379V159.023L673.116 158.985C668.172 158.909 664.656 157.469 662.566 154.666C661.904 153.978 661.229 152.781 660.541 151.073H660.388C660.082 151.099 658.044 152.844 654.272 156.31C651.546 158.119 649.278 159.023 647.469 159.023V151.379C650.042 151.277 653.126 149.277 656.719 145.378C659.98 142.754 662.324 141.454 663.751 141.48ZM695.017 159.023C692.825 159.049 691.182 159.036 690.086 158.985C688.99 158.909 688.239 158.501 687.831 157.762C687.423 156.998 686.888 156.08 686.226 155.01C685.563 153.94 685.13 153.379 684.926 153.328C684.748 153.252 684.531 153.328 684.276 153.558C684.022 153.787 683.55 154.297 682.862 155.087C682.2 155.877 681.486 156.603 680.722 157.265C679.983 157.928 679.206 158.348 678.39 158.527C677.6 158.679 676.951 158.794 676.441 158.871C675.957 158.922 675.09 158.985 673.842 159.062V151.341C674.988 151.366 675.88 151.354 676.517 151.303C677.18 151.226 677.957 151.061 678.849 150.806C679.741 150.551 680.454 150.207 680.989 149.774C681.524 149.341 681.958 148.882 682.289 148.398C682.646 147.888 682.99 147.124 683.321 146.105C683.652 145.06 683.818 144.385 683.818 144.079C683.818 143.748 683.805 143.365 683.779 142.932C683.779 142.473 683.729 141.964 683.627 141.403C683.55 140.843 683.295 138.613 682.862 134.714C682.454 130.79 681.639 126.79 680.416 122.713C679.218 118.636 678.339 116.177 677.779 115.336C677.218 114.47 676.772 113.616 676.441 112.775C676.135 111.909 675.995 111.31 676.02 110.979C676.046 110.622 676.148 110.176 676.326 109.641C676.505 109.106 676.759 108.571 677.091 108.036C677.422 107.475 677.702 106.991 677.932 106.583C678.161 106.176 678.454 105.972 678.811 105.972C679.167 105.972 679.792 106.354 680.684 107.118C681.575 107.883 682.238 109.055 682.671 110.635C683.104 112.189 683.461 113.387 683.741 114.228C684.047 115.043 684.684 119.579 685.652 127.835C686.646 136.065 687.232 140.881 687.411 142.282C687.589 143.658 687.716 144.754 687.793 145.569C687.869 146.385 688.073 147.175 688.404 147.939C688.761 148.678 689.283 149.328 689.971 149.888C690.685 150.449 691.296 150.857 691.806 151.112C692.341 151.341 693.411 151.43 695.017 151.379V159.023ZM710.152 126.879C710.331 126.879 710.942 126.879 711.987 126.879C713.057 126.879 714.255 127.274 715.58 128.064C716.93 128.854 717.95 129.389 718.638 129.669C719.326 129.949 720.192 130.408 721.237 131.045C722.281 131.657 723.02 132.128 723.454 132.459C723.887 132.791 724.294 133.033 724.677 133.186C725.084 133.338 725.441 133.848 725.747 134.714C726.053 135.581 726.244 136.473 726.32 137.39C726.422 138.282 726.295 139.683 725.938 141.594C725.607 143.48 725.072 144.461 724.333 144.537C723.619 144.614 722.995 144.423 722.46 143.964C721.925 143.505 721.377 143.2 720.816 143.047C720.281 142.868 719.287 142.945 717.835 143.276C716.408 143.607 715.452 144.053 714.968 144.614C714.484 145.174 714.076 145.799 713.745 146.487C717.516 149.366 719.988 150.959 721.16 151.264C722.332 151.545 723.224 151.659 723.836 151.608C724.447 151.557 725.161 151.519 725.976 151.494C726.792 151.443 727.429 151.417 727.887 151.417C728.346 151.392 728.894 151.379 729.531 151.379V159.023H728.193C726.027 159.074 724.817 159.1 724.562 159.1C724.307 159.1 723.657 159.1 722.613 159.1C721.568 159.1 720.689 159.011 719.975 158.832C719.287 158.654 718.548 158.437 717.759 158.183C716.969 157.902 715.325 156.845 712.828 155.01C710.356 153.176 709.108 152.284 709.082 152.335C709.082 152.36 708.165 153.328 706.33 155.239C704.521 157.125 702.89 158.157 701.438 158.335C699.985 158.488 698.902 158.603 698.189 158.679C697.476 158.756 696.762 158.832 696.049 158.909C695.335 158.985 694.571 159.023 693.755 159.023H692.762L692.8 151.379H695.284C697.093 151.43 698.635 151.328 699.909 151.073C701.183 150.793 702.139 150.424 702.776 149.965C703.438 149.481 704.037 148.933 704.572 148.321C703.247 146.945 701.629 146.143 699.718 145.913C697.832 145.684 696.673 145.467 696.24 145.264C695.807 145.06 695.514 144.754 695.361 144.346C695.233 143.913 695.119 143.378 695.017 142.741C694.94 142.079 695.08 141.021 695.437 139.569C695.819 138.116 696.698 136.817 698.074 135.67C699.45 134.498 700.571 133.581 701.438 132.918C702.304 132.256 703.247 131.542 704.266 130.778C705.311 130.013 705.973 129.363 706.254 128.828C706.534 128.293 707.209 127.835 708.28 127.452C709.35 127.07 709.974 126.879 710.152 126.879ZM705.413 139.492C706.228 139.849 707.553 140.932 709.388 142.741C710.637 141.034 711.885 139.747 713.134 138.881C714.408 137.989 715.261 137.479 715.695 137.352C716.153 137.224 715.86 136.791 714.815 136.052C713.796 135.288 712.841 134.702 711.949 134.294C711.082 133.886 710.433 133.874 710 134.256C709.592 134.613 709.12 135.007 708.585 135.441C708.05 135.848 707.388 136.358 706.598 136.97C705.808 137.556 705.209 138.04 704.801 138.422C704.419 138.779 704.623 139.135 705.413 139.492ZM748.909 122.292C751.202 122.394 752.349 123.439 752.349 125.427V125.541C752.247 128.319 750.642 130.128 747.533 130.969C743.813 130.179 741.953 128.79 741.953 126.803V126.191C742.717 124.433 743.66 123.426 744.781 123.172H744.896C745.941 123.172 747.278 122.878 748.909 122.292ZM734.156 124.051C736.322 124.127 737.838 124.815 738.704 126.115L739.201 127.07V128.408C738.64 129.453 737.697 130.204 736.372 130.663L733.85 131.198H733.582C732.334 131.147 731.098 130.395 729.875 128.943L729.989 126.65C731.416 125.044 732.78 124.242 734.079 124.242H734.156V124.051ZM744.934 141.48H745.699C746.743 141.48 747.304 141.862 747.38 142.626C747.482 143.365 747.278 144.385 746.769 145.684C747.61 147.952 748.935 149.506 750.744 150.347C752.094 151.035 753.521 151.379 755.025 151.379V159.023L754.298 158.985C749.355 158.909 745.839 157.469 743.749 154.666C743.087 153.978 742.411 152.781 741.724 151.073H741.571C741.265 151.099 739.226 152.844 735.455 156.31C732.729 158.119 730.461 159.023 728.652 159.023V151.379C731.225 151.277 734.308 149.277 737.901 145.378C741.163 142.754 743.507 141.454 744.934 141.48ZM775.435 159.023C773.244 159.049 771.6 159.036 770.504 158.985C769.409 158.909 768.657 158.501 768.249 157.762C767.842 156.998 767.307 156.08 766.644 155.01C765.981 153.94 765.548 153.379 765.344 153.328C765.166 153.252 764.95 153.328 764.695 153.558C764.44 153.787 763.968 154.297 763.28 155.087C762.618 155.877 761.905 156.603 761.14 157.265C760.401 157.928 759.624 158.348 758.809 158.527C758.019 158.679 757.369 158.794 756.859 158.871C756.375 158.922 755.509 158.985 754.26 159.062V151.341C755.407 151.366 756.299 151.354 756.936 151.303C757.598 151.226 758.375 151.061 759.267 150.806C760.159 150.551 760.873 150.207 761.408 149.774C761.943 149.341 762.376 148.882 762.707 148.398C763.064 147.888 763.408 147.124 763.739 146.105C764.07 145.06 764.236 144.385 764.236 144.079C764.236 143.748 764.223 143.365 764.198 142.932C764.198 142.473 764.147 141.964 764.045 141.403C763.968 140.843 763.714 138.613 763.28 134.714C762.873 130.79 762.057 126.79 760.834 122.713C759.637 118.636 758.758 116.177 758.197 115.336C757.636 114.47 757.191 113.616 756.859 112.775C756.553 111.909 756.413 111.31 756.439 110.979C756.464 110.622 756.566 110.176 756.745 109.641C756.923 109.106 757.178 108.571 757.509 108.036C757.84 107.475 758.121 106.991 758.35 106.583C758.579 106.176 758.872 105.972 759.229 105.972C759.586 105.972 760.21 106.354 761.102 107.118C761.994 107.883 762.656 109.055 763.089 110.635C763.523 112.189 763.879 113.387 764.16 114.228C764.465 115.043 765.102 119.579 766.071 127.835C767.064 136.065 767.651 140.881 767.829 142.282C768.007 143.658 768.135 144.754 768.211 145.569C768.288 146.385 768.491 147.175 768.823 147.939C769.179 148.678 769.702 149.328 770.39 149.888C771.103 150.449 771.715 150.857 772.224 151.112C772.759 151.341 773.83 151.43 775.435 151.379V159.023ZM777.117 106.774C778.518 105.985 779.563 105.704 780.251 105.934C780.964 106.137 781.652 106.673 782.315 107.539C783.003 108.405 783.653 109.768 784.264 111.629C784.876 113.463 785.271 115.209 785.449 116.865C785.627 118.496 785.908 122.777 786.29 129.707C786.672 136.638 787.003 141.314 787.284 143.735C787.59 146.13 787.742 148.054 787.742 149.506C787.768 150.933 787.539 152.22 787.054 153.367C786.596 154.513 785.615 155.596 784.111 156.615C782.608 157.609 780.926 158.272 779.066 158.603C777.231 158.934 775.55 159.074 774.021 159.023V151.379C774.836 151.379 775.448 151.392 775.855 151.417C776.263 151.417 777.18 151.354 778.607 151.226C780.06 151.099 781.003 150.627 781.436 149.812C781.869 148.997 782.035 147.85 781.933 146.372C781.856 144.869 781.754 143.136 781.627 141.174C781.5 139.186 781.41 135.708 781.359 130.739C781.308 125.771 781.028 122.331 780.518 120.42C780.009 118.508 779.053 117.145 777.652 116.33C776.276 115.514 775.499 114.61 775.32 113.616C775.142 112.622 775.053 111.425 775.053 110.023C775.053 108.622 775.741 107.539 777.117 106.774Z" fill="white"/>
<path d="M1031.56 110.397C1031.56 109.709 1031.56 108.97 1031.56 108.18C1031.56 107.39 1031.98 106.766 1032.82 106.307C1033.69 105.849 1034.41 105.619 1035 105.619C1035.61 105.619 1036.23 105.619 1036.87 105.619C1037.53 105.619 1038.12 105.811 1038.63 106.193C1039.16 106.575 1039.57 107.097 1039.85 107.76C1040.16 108.397 1040.48 108.32 1040.81 107.531C1041.14 106.715 1041.66 105.989 1042.37 105.352C1043.09 104.689 1043.85 104.358 1044.67 104.358C1045.51 104.358 1046.2 104.358 1046.73 104.358C1047.29 104.358 1047.94 104.893 1048.68 105.963C1049.42 107.034 1049.79 107.76 1049.79 108.142C1049.79 108.524 1049.79 108.996 1049.79 109.556C1049.79 110.091 1049.25 110.716 1048.18 111.429C1047.11 112.143 1046.26 112.499 1045.62 112.499C1044.99 112.499 1044.37 112.499 1043.79 112.499C1043.23 112.499 1042.82 112.372 1042.57 112.117C1042.31 111.837 1042.04 111.518 1041.76 111.162C1041.51 110.805 1041.3 110.525 1041.15 110.321C1041 110.091 1040.55 110.435 1039.81 111.353C1039.1 112.27 1038.39 112.907 1037.67 113.264C1036.98 113.595 1036.41 113.761 1035.95 113.761C1035.52 113.761 1035.06 113.761 1034.58 113.761C1034.12 113.761 1033.49 113.366 1032.7 112.576C1031.94 111.786 1031.56 111.06 1031.56 110.397ZM1040.2 116.551C1041.11 116.551 1042.3 116.806 1043.75 117.315C1045.2 117.799 1045.97 119.405 1046.04 122.131C1046.12 124.858 1046.12 126.539 1046.04 127.176C1045.97 127.814 1045.97 128.132 1046.04 128.132C1046.12 128.132 1045.93 129.253 1045.47 131.496C1045.01 133.738 1044.78 134.948 1044.78 135.127C1044.78 135.279 1045.32 135.7 1046.39 136.388C1047.46 137.076 1047.99 138.286 1047.99 140.019C1047.99 141.726 1048.53 143.803 1049.6 146.249C1050.69 148.695 1051.38 150.033 1051.66 150.262C1051.97 150.466 1052.62 150.797 1053.61 151.256C1054.63 151.689 1055.46 151.957 1056.1 152.059C1056.73 152.135 1057.61 152.135 1058.73 152.059L1058.81 159.627C1055.11 159.805 1052.44 159.588 1050.78 158.977C1049.15 158.365 1047.98 157.524 1047.27 156.454C1046.58 155.384 1045.95 154.25 1045.39 153.053C1044.86 151.855 1044.54 151.103 1044.44 150.797C1044.36 150.466 1044.17 150.301 1043.86 150.301C1043.56 150.301 1042.82 151.791 1041.65 154.773C1040.5 157.728 1039.09 159.206 1037.41 159.206C1035.72 159.206 1034.72 159.372 1034.39 159.703C1034.08 160.009 1033.66 160.162 1033.12 160.162C1032.59 160.162 1032.09 160.162 1031.63 160.162C1031.18 160.162 1029.98 159.869 1028.04 159.283C1026.13 158.697 1025.11 158.174 1024.98 157.716C1024.86 157.231 1024.59 156.645 1024.18 155.957C1023.77 155.244 1023.57 154.479 1023.57 153.664C1023.57 152.849 1023.79 151.205 1024.22 148.734C1024.65 146.262 1025.19 144.86 1025.82 144.529C1026.46 144.198 1027.12 143.765 1027.81 143.23C1028.53 142.694 1030.26 141.726 1033.01 140.325C1035.79 138.923 1037.83 137.382 1039.13 135.7C1040.42 134.018 1041.07 132.413 1041.07 130.884C1041.07 129.355 1040.62 128.158 1039.7 127.291C1038.78 126.399 1038.17 125.737 1037.86 125.304C1037.56 124.87 1037.41 124.514 1037.41 124.233C1037.41 123.928 1037.65 122.577 1038.13 120.182C1038.62 117.761 1039.3 116.551 1040.2 116.551ZM1040.85 142.809C1040.69 142.656 1039.61 143.676 1037.6 145.867C1035.58 148.033 1034.04 149.23 1032.97 149.46C1031.93 149.689 1031.4 149.855 1031.4 149.957C1031.4 150.033 1031.43 150.186 1031.48 150.415C1031.53 150.645 1031.84 150.759 1032.4 150.759C1032.96 150.759 1034.09 150.759 1035.8 150.759C1037.51 150.759 1038.58 150.122 1039.01 148.848C1039.47 147.574 1039.93 146.377 1040.39 145.255C1040.85 144.109 1041.07 143.459 1041.07 143.306C1041.07 143.128 1041 142.962 1040.85 142.809ZM1090.46 135.165C1090.53 135.165 1091.02 135.165 1091.91 135.165C1092.83 135.165 1093.74 135.815 1094.66 137.114C1095.58 138.414 1096.27 139.79 1096.73 141.242C1097.18 142.694 1097.41 143.561 1097.41 143.841C1097.41 144.121 1097.41 144.86 1097.41 146.058C1097.41 147.256 1097.29 148.542 1097.03 149.918C1097.62 150.53 1098.43 151.04 1099.48 151.447C1100.55 151.829 1102.06 152.033 1104.03 152.059V159.703C1101.81 159.703 1099.8 159.359 1097.99 158.671C1096.2 157.983 1094.73 157.219 1093.55 156.378C1093.32 156.505 1092.51 156.989 1091.11 157.83C1089.73 158.646 1088.84 159.13 1088.43 159.283C1088.05 159.436 1087.5 159.436 1086.79 159.283C1086.1 159.13 1085.36 158.76 1084.57 158.174C1083.78 157.563 1082.67 156.76 1081.25 155.766C1080.15 156.786 1078.98 157.639 1077.73 158.327C1076.48 158.99 1075.47 159.372 1074.71 159.474C1073.97 159.576 1072.65 159.41 1070.73 158.977C1068.85 158.544 1067.51 157.945 1066.72 157.18C1065.93 156.391 1065.4 155.817 1065.12 155.461C1062.57 158.034 1060.13 159.436 1057.82 159.665L1055.41 159.703L1055.45 152.021C1057.1 152.097 1058.41 151.893 1059.38 151.409C1060.38 150.899 1061.27 150.186 1062.06 149.269C1062.85 148.351 1063.4 147.472 1063.7 146.631C1064.03 145.79 1064.45 145.102 1064.96 144.567C1065.47 144.007 1065.8 143.726 1065.96 143.726C1066.14 143.726 1066.48 143.726 1066.99 143.726C1067.52 143.726 1068.12 144.376 1068.79 145.676C1069.45 146.95 1070.05 147.791 1070.58 148.198C1071.12 148.606 1071.93 149.039 1073.03 149.498C1074.15 149.957 1074.99 150.16 1075.55 150.109C1076.11 150.059 1076.75 149.651 1077.46 148.886C1078.18 148.122 1078.6 147.434 1078.72 146.822C1078.85 146.211 1079.25 145.446 1079.91 144.529C1080.6 143.612 1081.11 143.102 1081.44 143C1081.79 142.898 1082.15 142.898 1082.51 143C1082.89 143.102 1083.14 143.816 1083.27 145.141C1083.4 146.466 1084.01 147.459 1085.11 148.122C1086.23 148.759 1087.16 149.218 1087.9 149.498C1088.64 149.753 1089.39 149.638 1090.15 149.154C1090.94 148.644 1091.32 148.211 1091.3 147.854C1091.3 147.498 1091.16 146.886 1090.88 146.02C1090.6 145.128 1090.05 144.567 1089.23 144.338C1088.44 144.109 1087.96 143.676 1087.78 143.038C1087.63 142.376 1087.55 141.369 1087.55 140.019C1087.55 138.668 1088.01 137.522 1088.93 136.579C1089.87 135.636 1090.38 135.165 1090.46 135.165ZM1128.07 160.085C1126.72 160.136 1125.68 159.665 1124.97 158.671C1124.03 157.423 1123.31 156.62 1122.83 156.263C1122.53 156.518 1121.98 157.18 1121.19 158.251C1120.4 159.295 1119.28 159.869 1117.82 159.971C1116.83 159.792 1115.85 159.117 1114.88 157.945C1113.94 156.747 1113.42 156.085 1113.31 155.957C1112.37 156.798 1111.58 157.474 1110.94 157.983C1110.33 158.493 1109.2 158.913 1107.54 159.244C1105.91 159.55 1104.2 159.703 1102.42 159.703V152.059C1103.64 152.059 1105.12 151.97 1106.85 151.791C1108.61 151.587 1109.91 150.747 1110.75 149.269C1111.85 147.077 1112.73 145.854 1113.39 145.599H1113.77C1114.28 145.701 1114.93 146.695 1115.72 148.581C1116.51 150.466 1117.3 151.664 1118.09 152.173C1118.78 152.352 1119.52 151.409 1120.31 149.345C1121.1 147.281 1121.84 146.249 1122.53 146.249C1123.57 148.186 1124.59 149.816 1125.58 151.141C1126.42 152.263 1127.15 152.9 1127.76 153.053C1128.4 153.18 1128.88 153.104 1129.21 152.823C1129.7 152.288 1130.02 151.205 1130.17 149.574C1130.14 148.453 1129.95 147.727 1129.6 147.396C1129.26 147.039 1128.47 146.861 1127.23 146.861C1126.56 146.555 1125.89 146.045 1125.2 145.332C1124.54 144.593 1124.23 143.637 1124.28 142.465C1124.26 141.089 1124.64 139.955 1125.43 139.063C1126.25 138.172 1127.44 137.726 1129.02 137.726C1129.99 138.031 1131.34 139.395 1133.07 141.815C1134.81 144.236 1135.67 146.542 1135.67 148.734C1135.72 149.167 1135.75 149.536 1135.75 149.842C1135.75 152.033 1135.18 154.186 1134.03 156.301C1132.88 158.416 1130.9 159.678 1128.07 160.085ZM1151.73 122.781C1150.96 123.24 1150.58 123.762 1150.58 124.348C1150.58 124.501 1150.61 124.654 1150.66 124.807C1150.76 125.367 1151.05 125.801 1151.54 126.106C1152.04 126.387 1152.61 126.527 1153.22 126.527H1153.41C1153.82 126.527 1154.71 126.399 1156.08 126.145C1157.66 125.864 1158.59 125.724 1158.87 125.724C1159.79 125.724 1160.25 126.246 1160.25 127.291C1160.25 128.081 1159.47 128.603 1157.92 128.858C1156.36 129.088 1154.8 129.623 1153.22 130.464C1151.66 131.279 1150.26 132.145 1149.01 133.063C1147.82 133.929 1147.13 134.362 1146.95 134.362C1145.7 134.209 1145.08 133.789 1145.08 133.101L1145.23 132.489C1145.53 131.75 1146.11 130.986 1146.95 130.196C1147.79 129.406 1148.41 128.909 1148.82 128.705C1147.83 127.992 1147.22 127.202 1146.99 126.336C1146.76 125.469 1146.64 124.807 1146.64 124.348C1146.64 123.125 1147.03 122.029 1147.79 121.061C1148.58 120.067 1149.39 119.443 1150.24 119.188C1151.08 118.908 1151.76 118.768 1152.3 118.768C1153.4 118.768 1154.35 118.972 1155.17 119.379C1156.01 119.761 1156.43 120.233 1156.43 120.793C1156.43 121.532 1156.2 122.093 1155.74 122.475C1155.41 122.756 1155.04 122.896 1154.63 122.896C1154.43 122.896 1154.2 122.857 1153.94 122.781C1153.31 122.603 1152.89 122.513 1152.68 122.513C1152.35 122.513 1152.03 122.603 1151.73 122.781ZM1154.98 145.638C1154.29 146.224 1153.88 146.759 1153.75 147.243C1153.65 147.727 1153.6 148.249 1153.6 148.81C1153.62 149.371 1153.78 149.829 1154.06 150.186C1154.34 150.543 1154.96 150.938 1155.93 151.371C1156.9 151.804 1158.01 152.059 1159.26 152.135C1159.33 151.091 1159.36 150.008 1159.33 148.886C1159.33 147.765 1159.15 146.912 1158.8 146.326C1158.47 145.739 1157.92 145.332 1157.15 145.102C1156.39 144.873 1155.66 145.051 1154.98 145.638ZM1156.2 137.802C1158.57 137.394 1160.95 138.082 1163.35 139.866C1165.77 141.624 1166.82 145.714 1166.52 152.135C1167 152.135 1167.63 152.11 1168.39 152.059L1168.35 159.665C1167.23 159.843 1166.24 159.958 1165.37 160.009C1163.49 165.513 1161.47 169.921 1159.33 173.234C1157.19 176.572 1154.33 179.426 1150.73 181.795C1147.14 184.165 1143.61 185.77 1140.15 186.611C1136.71 187.478 1133.39 188.013 1130.21 188.216C1127 188.42 1123.98 188.369 1121.15 188.064C1118.32 187.783 1115.33 187.184 1112.17 186.267C1108.98 185.375 1105.83 183.783 1102.73 181.489C1099.62 179.196 1097.86 177.298 1097.45 175.794C1097.04 174.317 1097.01 173.259 1097.34 172.622C1097.64 172.01 1098.04 171.717 1098.52 171.743C1099.01 171.768 1100.13 172.66 1101.89 174.418C1103.62 176.177 1105.11 177.463 1106.36 178.279C1107.61 179.094 1109.08 179.846 1110.79 180.534C1112.5 181.247 1115.16 181.974 1118.78 182.713C1122.37 183.477 1126.64 183.643 1131.58 183.209C1136.5 182.776 1140.63 181.604 1143.97 179.693C1147.31 177.782 1149.7 176.037 1151.15 174.457C1152.61 172.877 1153.78 171.297 1154.67 169.717C1155.56 168.137 1156.87 164.736 1158.61 159.512C1157.08 159.232 1155.77 158.964 1154.67 158.709C1153.57 158.429 1152.43 158.021 1151.23 157.486C1150.06 156.951 1149 155.919 1148.06 154.39C1147.14 152.836 1146.8 150.899 1147.03 148.581C1147.25 146.236 1148.25 143.956 1150.01 141.739C1151.76 139.497 1153.83 138.184 1156.2 137.802ZM1185.4 137.649C1186.52 137.343 1187.85 137.356 1189.37 137.687C1190.9 137.993 1192.31 139.688 1193.58 142.771C1194.85 145.829 1195.53 148.122 1195.6 149.651C1195.71 151.154 1195.52 152.632 1195.03 154.085C1194.55 155.537 1193.83 157.002 1192.89 158.48C1191.97 159.958 1190.67 160.875 1188.99 161.232C1187.34 161.589 1185.34 161.729 1182.99 161.652C1180.67 161.576 1178.42 160.06 1176.23 157.104C1175.33 157.818 1174.3 158.442 1173.13 158.977C1171.98 159.512 1170.49 159.767 1168.66 159.741L1167.32 159.703V152.059H1168.7C1171.04 151.626 1172.67 151.091 1173.59 150.453C1174.51 149.791 1175.4 148.644 1176.26 147.014C1177.16 145.357 1178.62 143.459 1180.66 141.319C1182.7 139.153 1184.28 137.93 1185.4 137.649ZM1181 149.383C1180.83 149.816 1180.75 150.301 1180.77 150.836C1180.83 151.345 1181.25 151.893 1182.04 152.479C1182.85 153.065 1183.86 153.422 1185.06 153.549C1186.28 153.677 1187.41 153.562 1188.46 153.205C1189.5 152.849 1190.09 152.301 1190.22 151.562C1190.34 150.823 1190.15 149.982 1189.64 149.039C1189.13 148.071 1188.76 147.434 1188.53 147.128C1188.3 146.797 1187.88 146.491 1187.27 146.211C1186.66 145.931 1185.72 145.982 1184.44 146.364C1183.2 146.746 1182.35 147.243 1181.92 147.854C1181.51 148.44 1181.21 148.95 1181 149.383Z" fill="white"/>
<circle cx="978.658" cy="113.394" r="4.23211" transform="rotate(-4.12181 978.658 113.394)" fill="white"/>
<circle cx="983.455" cy="101.698" r="4.23211" transform="rotate(-4.12181 983.455 101.698)" fill="white"/>
<path d="M432.427 324.03H444.791C448.759 324.03 451.623 324.631 453.383 325.833C456.121 327.677 457.49 330.471 457.49 334.215C457.49 337.261 456.457 339.719 454.389 341.591C452.601 343.212 449.96 344.022 446.468 344.022H440.265V354.039H432.427V324.03ZM440.265 330.485V337.861H445.42C448.382 337.861 449.863 336.632 449.863 334.173C449.863 331.77 448.284 330.555 445.127 330.527L440.265 330.485ZM476.62 332.161L476.578 338.029C475.544 337.722 474.566 337.568 473.644 337.568C470.012 337.568 468.196 339.901 468.196 344.567V354.039H461.071V332.287H467.944V336.017C468.783 333.139 471.116 331.7 474.944 331.7C475.391 331.7 475.949 331.854 476.62 332.161ZM500.99 347.375C500.654 348.66 500.012 349.848 499.062 350.938C496.91 353.396 493.934 354.626 490.135 354.626C486.698 354.626 483.918 353.676 481.794 351.776C479.419 349.652 478.232 346.844 478.232 343.352C478.232 339.691 479.461 336.758 481.92 334.55C484.043 332.65 486.684 331.7 489.841 331.7C493.669 331.7 496.617 332.958 498.684 335.472C500.501 337.68 501.409 340.572 501.409 344.148C501.409 344.399 501.409 344.623 501.409 344.819H485.231C485.287 346.383 485.748 347.613 486.614 348.507C487.48 349.373 488.654 349.806 490.135 349.806C491.951 349.806 493.334 348.996 494.284 347.375H500.99ZM494.409 340.753C494.046 337.931 492.551 336.52 489.925 336.52C487.271 336.52 485.734 337.931 485.315 340.753H494.409ZM497.93 323.234L491.308 329.269H486.782L490.47 323.234H497.93ZM523.72 338.406H517.14C517.028 337.568 516.693 336.981 516.134 336.646C515.603 336.283 514.723 336.101 513.494 336.101C511.594 336.101 510.644 336.688 510.644 337.861C510.644 338.476 510.937 338.923 511.524 339.202C512.139 339.482 513.536 339.831 515.715 340.25C518.873 340.865 521.08 341.689 522.337 342.723C523.623 343.729 524.265 345.196 524.265 347.124C524.265 349.638 523.217 351.566 521.122 352.907C519.278 354.053 516.833 354.626 513.787 354.626C509.931 354.626 507.081 353.718 505.237 351.902C504.343 351.007 503.757 350.309 503.477 349.806C503.226 349.275 503.058 348.423 502.974 347.249H509.973C510.085 348.255 510.42 348.968 510.979 349.387C511.566 349.778 512.53 349.974 513.871 349.974C516.106 349.974 517.224 349.233 517.224 347.752C517.224 347.11 516.959 346.649 516.428 346.369C515.897 346.062 514.64 345.685 512.656 345.238C509.554 344.567 507.445 343.924 506.327 343.31C504.539 342.304 503.645 340.683 503.645 338.448C503.645 336.269 504.511 334.606 506.243 333.461C507.976 332.287 510.434 331.7 513.62 331.7C517.559 331.7 520.367 332.636 522.044 334.508C523.05 335.598 523.609 336.897 523.72 338.406ZM549.032 345.489C548.612 348.591 547.327 350.938 545.176 352.53C543.304 353.927 540.957 354.626 538.135 354.626C534.446 354.626 531.541 353.452 529.417 351.105C527.573 349.066 526.651 346.481 526.651 343.352C526.651 339.58 527.838 336.632 530.213 334.508C532.309 332.636 534.963 331.7 538.177 331.7C541.446 331.7 544.058 332.566 546.014 334.299C547.746 335.836 548.696 337.791 548.864 340.166H541.949C541.585 337.987 540.37 336.897 538.302 336.897C535.368 336.897 533.902 339.035 533.902 343.31C533.902 347.305 535.327 349.303 538.177 349.303C540.44 349.303 541.767 348.032 542.158 345.489H549.032ZM562.816 354.626C559.156 354.626 556.25 353.424 554.098 351.021C552.226 348.926 551.29 346.299 551.29 343.142C551.29 339.51 552.492 336.618 554.895 334.466C556.99 332.622 559.617 331.7 562.774 331.7C566.462 331.7 569.382 332.888 571.533 335.263C573.378 337.302 574.3 339.915 574.3 343.1C574.3 346.76 573.098 349.666 570.695 351.818C568.6 353.69 565.973 354.626 562.816 354.626ZM562.732 336.897C561.391 336.897 560.357 337.442 559.631 338.532C558.904 339.622 558.541 341.158 558.541 343.142C558.541 347.333 559.966 349.429 562.816 349.429C565.666 349.429 567.091 347.319 567.091 343.1C567.091 338.965 565.638 336.897 562.732 336.897ZM585.13 324.03V354.039H578.005V324.03H585.13ZM610.994 354.039H603.744C603.52 353.341 603.394 352.656 603.367 351.985C602.025 353.746 599.65 354.626 596.242 354.626C593.699 354.626 591.743 353.955 590.374 352.614C589.172 351.441 588.572 349.89 588.572 347.962C588.572 345.308 589.745 343.435 592.092 342.346C593.098 341.899 595.166 341.382 598.295 340.795L603.241 339.873V338.574C603.185 336.981 602.081 336.185 599.93 336.185C598.756 336.185 597.89 336.394 597.331 336.813C596.8 337.205 596.451 337.917 596.283 338.951H589.536C589.787 334.117 593.28 331.7 600.014 331.7C603.59 331.7 606.272 332.343 608.061 333.628C608.899 334.271 609.472 334.997 609.779 335.808C610.086 336.59 610.24 337.791 610.24 339.412C610.24 339.691 610.226 340.558 610.198 342.01V342.471L610.156 346.076C610.156 347.054 610.156 347.71 610.156 348.046C610.156 348.381 610.142 348.912 610.114 349.638C610.114 350.03 610.114 350.337 610.114 350.56C610.114 352.125 610.408 353.285 610.994 354.039ZM603.325 344.106L600.056 344.819C598.351 345.21 597.219 345.601 596.661 345.992C596.102 346.383 595.822 346.97 595.822 347.752C595.822 349.457 596.786 350.309 598.714 350.309C600.335 350.309 601.592 349.736 602.486 348.591C602.989 347.976 603.255 346.998 603.283 345.657L603.325 344.106ZM621.762 332.287V354.039H614.637V332.287H621.762ZM618.2 323.234C619.094 323.234 619.862 323.555 620.505 324.198C621.147 324.813 621.469 325.581 621.469 326.503C621.469 327.397 621.147 328.166 620.505 328.808C619.862 329.451 619.094 329.772 618.2 329.772C617.278 329.772 616.495 329.451 615.853 328.808C615.238 328.166 614.93 327.397 614.93 326.503C614.93 325.581 615.238 324.813 615.853 324.198C616.495 323.555 617.278 323.234 618.2 323.234ZM642.219 332.161L642.177 338.029C641.144 337.722 640.166 337.568 639.244 337.568C635.611 337.568 633.795 339.901 633.795 344.567V354.039H626.67V332.287H633.544V336.017C634.382 333.139 636.715 331.7 640.543 331.7C640.99 331.7 641.549 331.854 642.219 332.161ZM666.589 347.375C666.254 348.66 665.611 349.848 664.661 350.938C662.51 353.396 659.534 354.626 655.734 354.626C652.297 354.626 649.517 353.676 647.394 351.776C645.019 349.652 643.831 346.844 643.831 343.352C643.831 339.691 645.06 336.758 647.519 334.55C649.643 332.65 652.283 331.7 655.441 331.7C659.268 331.7 662.216 332.958 664.284 335.472C666.1 337.68 667.008 340.572 667.008 344.148C667.008 344.399 667.008 344.623 667.008 344.819H650.83C650.886 346.383 651.347 347.613 652.213 348.507C653.079 349.373 654.253 349.806 655.734 349.806C657.55 349.806 658.933 348.996 659.883 347.375H666.589ZM660.009 340.753C659.646 337.931 658.151 336.52 655.524 336.52C652.87 336.52 651.333 337.931 650.914 340.753H660.009ZM687.794 340.627V346.034H677.442V340.627H687.794ZM699.818 324.03H712.181C716.149 324.03 719.013 324.631 720.773 325.833C723.511 327.677 724.881 330.471 724.881 334.215C724.881 337.261 723.847 339.719 721.779 341.591C719.991 343.212 717.351 344.022 713.858 344.022H707.655V354.039H699.818V324.03ZM707.655 330.485V337.861H712.81C715.772 337.861 717.253 336.632 717.253 334.173C717.253 331.77 715.674 330.555 712.517 330.527L707.655 330.485ZM744.01 332.161L743.968 338.029C742.934 337.722 741.957 337.568 741.034 337.568C737.402 337.568 735.586 339.901 735.586 344.567V354.039H728.461V332.287H735.335V336.017C736.173 333.139 738.506 331.7 742.334 331.7C742.781 331.7 743.34 331.854 744.01 332.161ZM754.004 332.287V354.039H746.879V332.287H754.004ZM750.442 323.234C751.336 323.234 752.104 323.555 752.747 324.198C753.389 324.813 753.711 325.581 753.711 326.503C753.711 327.397 753.389 328.166 752.747 328.808C752.104 329.451 751.336 329.772 750.442 329.772C749.52 329.772 748.737 329.451 748.095 328.808C747.48 328.166 747.173 327.397 747.173 326.503C747.173 325.581 747.48 324.813 748.095 324.198C748.737 323.555 749.52 323.234 750.442 323.234ZM765.786 332.287V335.179C767.406 332.86 769.642 331.7 772.492 331.7C775.37 331.7 777.409 332.86 778.611 335.179C780.371 332.86 782.676 331.7 785.526 331.7C788.041 331.7 789.983 332.483 791.352 334.047C792.525 335.444 793.112 337.288 793.112 339.58V354.039H785.987V341.424C785.987 338.825 784.981 337.526 782.97 337.526C781.6 337.526 780.622 338.085 780.036 339.202C779.728 339.789 779.575 340.753 779.575 342.094V354.039H772.45V341.13C772.45 338.727 771.486 337.526 769.558 337.526C767.211 337.526 766.037 339.049 766.037 342.094V354.039H758.912V332.287H765.786ZM818.792 354.039H811.541C811.318 353.341 811.192 352.656 811.164 351.985C809.823 353.746 807.448 354.626 804.039 354.626C801.496 354.626 799.54 353.955 798.171 352.614C796.97 351.441 796.369 349.89 796.369 347.962C796.369 345.308 797.543 343.435 799.89 342.346C800.896 341.899 802.963 341.382 806.093 340.795L811.038 339.873V338.574C810.982 336.981 809.879 336.185 807.727 336.185C806.554 336.185 805.687 336.394 805.129 336.813C804.598 337.205 804.248 337.917 804.081 338.951H797.333C797.585 334.117 801.077 331.7 807.811 331.7C811.387 331.7 814.07 332.343 815.858 333.628C816.696 334.271 817.269 334.997 817.576 335.808C817.884 336.59 818.037 337.791 818.037 339.412C818.037 339.691 818.023 340.558 817.995 342.01V342.471L817.953 346.076C817.953 347.054 817.953 347.71 817.953 348.046C817.953 348.381 817.94 348.912 817.912 349.638C817.912 350.03 817.912 350.337 817.912 350.56C817.912 352.125 818.205 353.285 818.792 354.039ZM811.122 344.106L807.853 344.819C806.148 345.21 805.017 345.601 804.458 345.992C803.899 346.383 803.62 346.97 803.62 347.752C803.62 349.457 804.584 350.309 806.512 350.309C808.132 350.309 809.39 349.736 810.284 348.591C810.787 347.976 811.052 346.998 811.08 345.657L811.122 344.106ZM829.559 332.287V354.039H822.434V332.287H829.559ZM825.997 323.234C826.891 323.234 827.659 323.555 828.302 324.198C828.945 324.813 829.266 325.581 829.266 326.503C829.266 327.397 828.945 328.166 828.302 328.808C827.659 329.451 826.891 329.772 825.997 329.772C825.075 329.772 824.292 329.451 823.65 328.808C823.035 328.166 822.728 327.397 822.728 326.503C822.728 325.581 823.035 324.813 823.65 324.198C824.292 323.555 825.075 323.234 825.997 323.234ZM850.017 332.161L849.975 338.029C848.941 337.722 847.963 337.568 847.041 337.568C843.409 337.568 841.593 339.901 841.593 344.567V354.039H834.468V332.287H841.341V336.017C842.179 333.139 844.512 331.7 848.34 331.7C848.787 331.7 849.346 331.854 850.017 332.161ZM874.386 347.375C874.051 348.66 873.408 349.848 872.458 350.938C870.307 353.396 867.331 354.626 863.531 354.626C860.094 354.626 857.314 353.676 855.191 351.776C852.816 349.652 851.628 346.844 851.628 343.352C851.628 339.691 852.858 336.758 855.317 334.55C857.44 332.65 860.081 331.7 863.238 331.7C867.066 331.7 870.014 332.958 872.081 335.472C873.897 337.68 874.805 340.572 874.805 344.148C874.805 344.399 874.805 344.623 874.805 344.819H858.628C858.683 346.383 859.144 347.613 860.011 348.507C860.877 349.373 862.05 349.806 863.531 349.806C865.347 349.806 866.73 348.996 867.68 347.375H874.386ZM867.806 340.753C867.443 337.931 865.948 336.52 863.322 336.52C860.667 336.52 859.131 337.931 858.711 340.753H867.806ZM895.591 340.627V346.034H885.239V340.627H895.591ZM935.109 342.346C934.913 345.475 933.837 348.171 931.882 350.435C929.395 353.341 925.846 354.793 921.236 354.793C916.318 354.793 912.505 353.089 909.794 349.68C907.475 346.802 906.316 343.24 906.316 338.993C906.316 334.606 907.643 330.918 910.297 327.928C913.063 324.827 916.793 323.276 921.488 323.276C925.399 323.276 928.654 324.491 931.253 326.922C933.488 329.018 934.704 331.588 934.899 334.634H927.271C926.964 333.265 926.489 332.231 925.846 331.533C924.757 330.331 923.262 329.73 921.362 329.73C919.015 329.73 917.199 330.666 915.913 332.538C914.824 334.187 914.279 336.352 914.279 339.035C914.279 342.136 914.977 344.511 916.374 346.16C917.604 347.613 919.238 348.339 921.278 348.339C923.374 348.339 924.966 347.571 926.056 346.034C926.643 345.196 927.048 343.966 927.271 342.346H935.109ZM948.86 354.626C945.199 354.626 942.294 353.424 940.142 351.021C938.27 348.926 937.334 346.299 937.334 343.142C937.334 339.51 938.535 336.618 940.938 334.466C943.034 332.622 945.66 331.7 948.818 331.7C952.506 331.7 955.426 332.888 957.577 335.263C959.421 337.302 960.343 339.915 960.343 343.1C960.343 346.76 959.142 349.666 956.739 351.818C954.643 353.69 952.017 354.626 948.86 354.626ZM948.776 336.897C947.435 336.897 946.401 337.442 945.674 338.532C944.948 339.622 944.585 341.158 944.585 343.142C944.585 347.333 946.01 349.429 948.86 349.429C951.71 349.429 953.135 347.319 953.135 343.1C953.135 338.965 951.682 336.897 948.776 336.897ZM971.174 324.03V354.039H964.049V324.03H971.174ZM983.207 324.03V354.039H976.082V324.03H983.207ZM1009.62 347.375C1009.28 348.66 1008.64 349.848 1007.69 350.938C1005.54 353.396 1002.56 354.626 998.761 354.626C995.324 354.626 992.544 353.676 990.421 351.776C988.046 349.652 986.858 346.844 986.858 343.352C986.858 339.691 988.088 336.758 990.547 334.55C992.67 332.65 995.31 331.7 998.468 331.7C1002.3 331.7 1005.24 332.958 1007.31 335.472C1009.13 337.68 1010.04 340.572 1010.04 344.148C1010.04 344.399 1010.04 344.623 1010.04 344.819H993.858C993.913 346.383 994.374 347.613 995.241 348.507C996.107 349.373 997.28 349.806 998.761 349.806C1000.58 349.806 1001.96 348.996 1002.91 347.375H1009.62ZM1003.04 340.753C1002.67 337.931 1001.18 336.52 998.552 336.52C995.897 336.52 994.36 337.931 993.941 340.753H1003.04ZM991.217 323.234H998.677L1002.32 329.269H997.839L991.217 323.234ZM1034.86 332.287V351.147C1034.86 354.081 1034.37 356.288 1033.39 357.769C1031.61 360.424 1028.44 361.751 1023.88 361.751C1017.37 361.751 1013.82 359.418 1013.24 354.752H1020.36C1020.81 356.344 1022.01 357.141 1023.96 357.141C1025.45 357.141 1026.48 356.777 1027.07 356.051C1027.68 355.324 1027.99 354.067 1027.99 352.279V349.89C1026.48 351.93 1024.38 352.949 1021.7 352.949C1018.68 352.949 1016.35 351.874 1014.7 349.722C1013.25 347.85 1012.52 345.419 1012.52 342.43C1012.52 338.965 1013.49 336.241 1015.41 334.257C1017.09 332.552 1019.24 331.7 1021.87 331.7C1024.47 331.7 1026.51 332.818 1027.99 335.053V332.287H1034.86ZM1023.8 337.107C1022.48 337.107 1021.44 337.582 1020.65 338.532C1019.9 339.454 1019.52 340.725 1019.52 342.346C1019.52 343.994 1019.9 345.308 1020.65 346.285C1021.44 347.235 1022.5 347.71 1023.84 347.71C1025.15 347.71 1026.19 347.235 1026.94 346.285C1027.72 345.335 1028.11 344.036 1028.11 342.388C1028.11 340.739 1027.72 339.454 1026.94 338.532C1026.19 337.582 1025.14 337.107 1023.8 337.107ZM1061.27 347.375C1060.93 348.66 1060.29 349.848 1059.34 350.938C1057.19 353.396 1054.21 354.626 1050.41 354.626C1046.98 354.626 1044.2 353.676 1042.07 351.776C1039.7 349.652 1038.51 346.844 1038.51 343.352C1038.51 339.691 1039.74 336.758 1042.2 334.55C1044.32 332.65 1046.96 331.7 1050.12 331.7C1053.95 331.7 1056.9 332.958 1058.96 335.472C1060.78 337.68 1061.69 340.572 1061.69 344.148C1061.69 344.399 1061.69 344.623 1061.69 344.819H1045.51C1045.57 346.383 1046.03 347.613 1046.89 348.507C1047.76 349.373 1048.93 349.806 1050.41 349.806C1052.23 349.806 1053.61 348.996 1054.56 347.375H1061.27ZM1054.69 340.753C1054.33 337.931 1052.83 336.52 1050.2 336.52C1047.55 336.52 1046.01 337.931 1045.59 340.753H1054.69ZM1082.47 340.627V346.034H1072.12V340.627H1082.47ZM1116.42 347.291V354.039H1094.5V324.03H1102.33V347.291H1116.42ZM1140.48 332.287L1132.6 354.249C1131.51 357.266 1130.34 359.25 1129.08 360.2C1127.82 361.15 1125.76 361.625 1122.88 361.625C1121.34 361.625 1119.6 361.457 1117.64 361.122L1118.77 355.464C1119.39 355.688 1120.18 355.799 1121.16 355.799C1122.7 355.799 1123.68 355.478 1124.09 354.835C1124.54 354.193 1124.77 353.48 1124.77 352.698C1124.77 352.53 1124.72 352.349 1124.64 352.153L1117.22 332.287H1124.81L1127.82 341.927C1128.19 343.128 1128.58 344.819 1129 346.998C1129.56 344.511 1130 342.737 1130.34 341.675L1133.19 332.287H1140.48ZM1163.79 345.489C1163.37 348.591 1162.08 350.938 1159.93 352.53C1158.06 353.927 1155.71 354.626 1152.89 354.626C1149.2 354.626 1146.3 353.452 1144.17 351.105C1142.33 349.066 1141.41 346.481 1141.41 343.352C1141.41 339.58 1142.59 336.632 1144.97 334.508C1147.06 332.636 1149.72 331.7 1152.93 331.7C1156.2 331.7 1158.81 332.566 1160.77 334.299C1162.5 335.836 1163.45 337.791 1163.62 340.166H1156.7C1156.34 337.987 1155.13 336.897 1153.06 336.897C1150.12 336.897 1148.66 339.035 1148.66 343.31C1148.66 347.305 1150.08 349.303 1152.93 349.303C1155.2 349.303 1156.52 348.032 1156.91 345.489H1163.79ZM1188.8 347.375C1188.47 348.66 1187.83 349.848 1186.88 350.938C1184.72 353.396 1181.75 354.626 1177.95 354.626C1174.51 354.626 1171.73 353.676 1169.61 351.776C1167.23 349.652 1166.05 346.844 1166.05 343.352C1166.05 339.691 1167.28 336.758 1169.73 334.55C1171.86 332.65 1174.5 331.7 1177.66 331.7C1181.48 331.7 1184.43 332.958 1186.5 335.472C1188.32 337.68 1189.22 340.572 1189.22 344.148C1189.22 344.399 1189.22 344.623 1189.22 344.819H1173.05C1173.1 346.383 1173.56 347.613 1174.43 348.507C1175.29 349.373 1176.47 349.806 1177.95 349.806C1179.77 349.806 1181.15 348.996 1182.1 347.375H1188.8ZM1182.22 340.753C1181.86 337.931 1180.37 336.52 1177.74 336.52C1175.09 336.52 1173.55 337.931 1173.13 340.753H1182.22ZM1185.74 323.234L1179.12 329.269H1174.6L1178.28 323.234H1185.74ZM1214.38 347.375C1214.05 348.66 1213.41 349.848 1212.46 350.938C1210.31 353.396 1207.33 354.626 1203.53 354.626C1200.09 354.626 1197.31 353.676 1195.19 351.776C1192.81 349.652 1191.63 346.844 1191.63 343.352C1191.63 339.691 1192.86 336.758 1195.32 334.55C1197.44 332.65 1200.08 331.7 1203.24 331.7C1207.06 331.7 1210.01 332.958 1212.08 335.472C1213.9 337.68 1214.8 340.572 1214.8 344.148C1214.8 344.399 1214.8 344.623 1214.8 344.819H1198.63C1198.68 346.383 1199.14 347.613 1200.01 348.507C1200.88 349.373 1202.05 349.806 1203.53 349.806C1205.35 349.806 1206.73 348.996 1207.68 347.375H1214.38ZM1207.8 340.753C1207.44 337.931 1205.95 336.52 1203.32 336.52C1200.67 336.52 1199.13 337.931 1198.71 340.753H1207.8Z" fill="white"/>
</svg>
